<svg width="44" height="45" viewBox="0 0 44 45" fill="none" xmlns="http://www.w3.org/2000/svg">
<g clip-path="url(#clip0)">
<path d="M41.1641 22.6973C41.1641 33.2813 32.5841 41.8613 22 41.8613C11.4159 41.8613 2.83594 33.2813 2.83594 22.6973C2.83594 12.1132 11.4159 3.5332 22 3.5332C32.5841 3.5332 41.1641 12.1132 41.1641 22.6973Z" fill="#FF4057"/>
<path d="M39.4453 22.6973C39.4453 32.332 31.6347 40.1426 22 40.1426C12.3653 40.1426 4.55469 32.332 4.55469 22.6973C4.55469 13.0625 12.3653 5.25195 22 5.25195C31.6347 5.25195 39.4453 13.0625 39.4453 22.6973Z" fill="#FF4057"/>
<path d="M34.2719 22.6977C34.2719 29.4754 28.7776 34.9697 22 34.9697C15.2224 34.9697 9.72806 29.4754 9.72806 22.6977C9.72806 15.9201 15.2224 10.4258 22 10.4258C28.7776 10.4258 34.2719 15.9201 34.2719 22.6977Z" fill="#E9E9EA"/>
<path d="M19.439 28.1283L15.0562 23.7455C14.3858 23.0751 14.3858 21.9925 15.0562 21.3221C15.7266 20.6517 16.8095 20.6517 17.4796 21.3221L20.6421 24.4847L26.7266 18.4002C27.3969 17.7299 28.4796 17.7299 29.1499 18.4002C29.8203 19.0706 29.8203 20.1532 29.1499 20.8236L21.8624 28.1112C21.1923 28.7987 20.1094 28.7987 19.439 28.1283Z" fill="#FF4057"/>
<path d="M35.8702 2.24414C35.0967 2.08939 34.5126 1.50494 34.3579 0.731506C34.3579 0.714386 34.3408 0.697266 34.3233 0.697266C34.3062 0.697266 34.3062 0.714386 34.2891 0.731506C34.1343 1.50494 33.5499 2.08939 32.7764 2.24414C32.7593 2.24414 32.7422 2.26126 32.7422 2.27838C32.7422 2.29584 32.7593 2.29584 32.7764 2.31296C33.5499 2.46771 34.1343 3.05182 34.2891 3.82526C34.2891 3.84271 34.3062 3.85983 34.3233 3.85983C34.3408 3.85983 34.3408 3.84271 34.3579 3.82526C34.5126 3.05182 35.0967 2.46771 35.8702 2.31296C35.8876 2.31296 35.9047 2.29584 35.8876 2.27838C35.8876 2.24414 35.8702 2.24414 35.8702 2.24414Z" fill="#60BAE2"/>
<path d="M5.48288 39.833H3.98737C3.74701 39.833 3.55768 39.644 3.55768 39.4033C3.55768 39.163 3.74701 38.9736 3.98737 38.9736H5.48288C5.72357 38.9736 5.91257 39.163 5.91257 39.4033C5.91257 39.644 5.70612 39.833 5.48288 39.833Z" fill="#FF4057"/>
<path d="M4.72656 40.5723C4.48587 40.5723 4.29688 40.3833 4.29688 40.1426V38.6475C4.29688 38.4068 4.48587 38.2178 4.72656 38.2178C4.96725 38.2178 5.15625 38.4068 5.15625 38.6475V40.1426C5.15625 40.3833 4.96725 40.5723 4.72656 40.5723Z" fill="#FF4057"/>
<path d="M9.72805 44.6979C9.60788 44.6979 9.50482 44.6462 9.41888 44.5777C9.40142 44.5603 9.3843 44.5432 9.36718 44.5089C9.35006 44.4918 9.33294 44.4572 9.33294 44.4401C9.31549 44.4059 9.31549 44.3884 9.31549 44.3542C9.31549 44.3199 9.29837 44.3025 9.31549 44.2682C9.31549 44.234 9.31549 44.2165 9.31549 44.1823C9.31549 44.148 9.33294 44.1306 9.33294 44.0964C9.35006 44.0621 9.35006 44.0447 9.36718 44.0275C9.3843 44.0104 9.40142 43.9762 9.41888 43.9587C9.53906 43.8385 9.72805 43.8043 9.88281 43.8728C9.89993 43.8902 9.93451 43.8902 9.95163 43.9074C9.96875 43.9245 10.003 43.9416 10.0204 43.9587C10.0376 43.9762 10.0547 43.9933 10.0718 44.0275C10.0889 44.0447 10.1064 44.0792 10.1064 44.0964C10.1235 44.1135 10.1235 44.148 10.1235 44.1823V44.2682V44.3542C10.1235 44.3884 10.1064 44.4059 10.1064 44.4401C10.0889 44.4743 10.0889 44.4918 10.0718 44.5089C10.0547 44.526 10.0376 44.5603 10.0204 44.5777C10.003 44.5949 9.98587 44.612 9.95163 44.6291C9.93451 44.6462 9.89993 44.6637 9.88281 44.6637C9.84857 44.6808 9.83111 44.6808 9.79687 44.6808C9.77975 44.6979 9.76263 44.6979 9.72805 44.6979Z" fill="#FCD770"/>
<path d="M38.1734 6.1111C38.1391 6.1111 38.122 6.1111 38.0874 6.1111C38.0532 6.1111 38.0361 6.09398 38.0015 6.09398C37.9673 6.07686 37.9501 6.07686 37.9327 6.0594C37.9156 6.04228 37.8813 6.02516 37.8642 6.00804C37.7783 5.9221 37.7437 5.81905 37.7437 5.69853C37.7437 5.66429 37.7437 5.64717 37.7608 5.61259C37.7608 5.57835 37.7783 5.56123 37.7783 5.52666C37.7954 5.49242 37.7954 5.4753 37.8125 5.45784C37.8296 5.44072 37.8467 5.40648 37.8642 5.38936C37.8813 5.3719 37.8984 5.35478 37.9327 5.33766C37.9501 5.32054 37.9844 5.30342 38.0015 5.30342C38.1046 5.25172 38.2251 5.25172 38.3281 5.30342C38.3624 5.32054 38.3798 5.32054 38.3969 5.33766C38.4483 5.3719 38.4829 5.40648 38.5171 5.45784C38.5342 5.4753 38.5517 5.50954 38.5517 5.52666C38.5688 5.56123 38.5688 5.57835 38.5688 5.61259C38.5688 5.64717 38.5859 5.66429 38.5859 5.69853C38.5859 5.81905 38.5342 5.9221 38.4658 6.00804C38.4483 6.02516 38.4312 6.04228 38.3969 6.0594C38.3798 6.07686 38.3452 6.09398 38.3281 6.09398C38.2939 6.1111 38.2764 6.1111 38.2422 6.1111C38.2422 6.1111 38.2079 6.1111 38.1734 6.1111Z" fill="#F75C64"/>
<path d="M22 42.291C11.1719 42.291 2.40625 33.5254 2.40625 22.6973C2.40625 11.8691 11.1719 3.10352 22 3.10352C32.8281 3.10352 41.5938 11.8691 41.5938 22.6973C41.5766 33.5083 32.811 42.2739 22 42.291ZM22 3.96289C11.6533 3.96289 3.26562 12.3505 3.26562 22.6973C3.26562 33.044 11.6533 41.4316 22 41.4316C32.3467 41.4316 40.7344 33.044 40.7344 22.6973C40.7173 12.3505 32.3467 3.98001 22 3.96289Z" fill="#231F20"/>
<path d="M22 40.5723C12.1343 40.5723 4.125 32.563 4.125 22.6973C4.125 12.8316 12.1343 4.82227 22 4.82227C31.8657 4.82227 39.875 12.8316 39.875 22.6973C39.8579 32.563 31.8657 40.5551 22 40.5723ZM22 5.68164C12.5986 5.68164 4.98438 13.2958 4.98438 22.6973C4.98438 32.0987 12.5986 39.7129 22 39.7129C31.4014 39.7129 39.0156 32.0987 39.0156 22.6973C38.9985 13.2958 31.4014 5.69876 22 5.68164Z" fill="#231F20"/>
<path d="M22 35.3994C14.9874 35.3994 9.29837 29.7104 9.29837 22.6977C9.29837 15.6851 14.9874 9.99609 22 9.99609C29.0126 9.99609 34.7016 15.6851 34.7016 22.6977C34.6845 29.7104 29.0126 35.3822 22 35.3994ZM22 10.8555C15.4688 10.8555 10.1577 16.1665 10.1577 22.6977C10.1577 29.229 15.4688 34.54 22 34.54C28.5312 34.54 33.8423 29.2461 33.8423 22.6977C33.8251 16.1665 28.5312 10.8726 22 10.8555Z" fill="#231F20"/>
<path d="M20.6592 29.0572C20.0922 29.0572 19.542 28.8336 19.1469 28.4214L14.7641 24.0385C13.9219 23.1963 13.9219 21.8384 14.747 20.9962C15.5889 20.1539 16.9468 20.1539 17.7891 20.979L17.8062 20.9962L20.6592 23.8492L26.4345 18.0743C27.2764 17.232 28.6343 17.232 29.4766 18.0572C30.3188 18.8994 30.3188 20.2573 29.4937 21.0992L29.4766 21.1167L22.1719 28.4385C21.7764 28.8336 21.2266 29.0572 20.6592 29.0572ZM16.2764 21.254C15.5718 21.254 14.9874 21.8384 14.9874 22.543C14.9874 22.8868 15.125 23.2134 15.3657 23.4541L19.7485 27.8369C20.247 28.3354 21.0718 28.3354 21.5703 27.8369L28.8579 20.5493C29.3564 20.0508 29.3564 19.226 28.8579 18.7275C28.3594 18.229 27.5342 18.229 27.0361 18.7275L20.9516 24.812C20.7797 24.9839 20.5048 24.9839 20.3501 24.812L17.1875 21.6323C16.9468 21.3916 16.6202 21.254 16.2764 21.254Z" fill="#231F20"/>
</g>
<defs>
<clipPath id="clip0">
<rect width="44" height="44" fill="white" transform="translate(0 0.697266)"/>
</clipPath>
</defs>
</svg>
