<svg width="62" height="62" viewBox="0 0 62 62" fill="none" xmlns="http://www.w3.org/2000/svg">
<g clip-path="url(#clip0)">
<path d="M41.2445 29.5711C41.0992 29.2078 41.2687 28.8203 41.6078 28.675H41.632L41.293 27.8516L40.7844 26.6164C40.6391 26.2531 40.8086 25.8656 41.1719 25.7203C40.9781 25.2117 40.8086 24.6547 40.7359 24.0977C40.6875 23.8312 40.6633 23.5406 40.6391 23.2742C40.6391 23.1531 40.6391 23.032 40.6391 22.8867C40.6391 22.4992 40.6633 22.1359 40.7359 21.7484C40.7602 21.6273 40.7844 21.5063 40.8086 21.3852C40.9055 21.0219 41.0266 20.6586 41.1719 20.3195C41.3656 19.8836 41.5836 19.375 41.7773 18.8664C41.8258 18.7695 41.85 18.6484 41.8984 18.5516C42.0437 18.1156 42.1891 17.6797 42.3102 17.268C42.4312 16.832 42.5281 16.3719 42.5523 15.8875C42.5523 15.6453 42.5766 15.4031 42.5766 15.1609C42.5766 15.1367 42.5766 15.1125 42.5766 15.0883C42.5281 15.0641 42.4555 15.0641 42.407 15.0641C37.4906 14.9188 34.8992 12.957 33.882 11.9883C33.6398 11.7461 33.2281 11.7461 32.9859 11.9883C32.9617 12.0125 32.9617 12.0125 32.9375 12.0367C28.5781 17.4375 22.1844 16.6867 20.0531 16.2266C19.8836 16.1781 19.6898 16.2266 19.5445 16.3477C19.7383 17.5586 20.368 19.1813 20.8766 20.2953C21.1187 20.8281 21.2641 21.4094 21.3609 21.9906C21.3852 22.0875 21.3852 22.2086 21.3852 22.3055C21.3852 22.3781 21.4094 22.4508 21.4094 22.5234C21.4094 22.7656 21.4094 22.9836 21.4094 23.2258C21.3852 23.7586 21.2883 24.3156 21.143 24.8242C21.0703 25.1148 20.9734 25.3812 20.8766 25.6477C21.2398 25.793 21.4094 26.2047 21.2641 26.5437L20.4164 28.6266H20.4406C20.7797 28.7719 20.9492 29.1836 20.8281 29.5227L20.3195 31C22.1844 35.3594 26.4711 38.1687 31.218 38.193C35.8195 38.1687 40.0094 35.5047 41.9469 31.3391L41.2445 29.5711Z" fill="#F9D0B4"/>
<path d="M26.7859 24.7271C26.1078 24.7271 25.5508 24.1701 25.575 23.492C25.5992 22.8138 26.132 22.2568 26.8101 22.281C27.4883 22.281 28.0211 22.8381 28.0211 23.492C27.9969 24.1943 27.464 24.7271 26.7859 24.7271Z" fill="#E9E9EA"/>
<path d="M35.8195 24.7273C35.1414 24.7273 34.5844 24.1703 34.5844 23.5164C34.5844 22.8383 35.1414 22.2812 35.7953 22.2812C36.4734 22.2812 37.0305 22.8383 37.0305 23.4922C37.0547 24.1703 36.4977 24.7273 35.8195 24.7273Z" fill="#E9E9EA"/>
<path d="M42.5523 15.0398C42.5523 14.7977 42.5523 14.5555 42.5765 14.3133C42.5765 14.1437 42.6008 13.9984 42.6008 13.8289C42.625 13.6109 42.625 13.4172 42.6734 13.1992C42.6976 13.0539 42.7219 12.9328 42.7461 12.8117C42.7703 12.6906 42.7945 12.5938 42.8187 12.4969C43.0367 11.7945 43.4726 11.3344 44.2961 11.3586C44.3687 11.3586 44.4656 11.3828 44.5383 11.407C44.7805 11.4797 44.9984 11.625 45.1437 11.8187C45.2164 11.8914 45.2648 11.9641 45.3133 12.0367L44.0539 9.03359L42.7945 6.03047C42.4797 5.25547 42.8187 4.38359 43.5937 4.06875C43.6664 4.04453 43.7633 3.99609 43.8359 3.99609C41.7047 2.76094 39.089 2.76094 36.982 4.04453C35.7711 1.98594 33.5672 0.726562 31.1695 0.726562H27.682C24.3883 0.726562 21.2398 2.05859 18.939 4.40781C19.2055 4.69844 19.3508 5.0375 19.3508 5.425V5.44922C19.3508 5.64297 19.3023 5.83672 19.2297 6.03047L16.6867 12.0609C16.8805 11.6734 17.268 11.407 17.7039 11.3828C19.4961 11.3102 19.3992 13.5383 19.4476 15.4516C19.4476 15.5727 19.4476 15.718 19.4719 15.8391C19.4719 16.0086 19.4961 16.1781 19.5203 16.3234C19.6656 16.2023 19.8594 16.1781 20.0289 16.2023C22.1844 16.6625 28.5539 17.4133 32.889 11.9641C33.107 11.6977 33.5187 11.6492 33.7851 11.8672C33.8094 11.8914 33.8094 11.8914 33.8336 11.9156C34.8265 12.8844 37.418 14.8461 42.3586 14.9914C42.4312 15.0156 42.4797 15.0398 42.5523 15.0398Z" fill="#6D6C6B"/>
<path d="M41.1477 20.2945C41.7047 19.0109 42.4797 17.0734 42.5281 15.8382C42.625 13.8281 42.3828 11.3093 44.2961 11.382C44.732 11.4062 45.1195 11.6726 45.3133 12.0601L42.7703 6.02962C42.4555 5.25462 42.8187 4.38275 43.5695 4.04369C44.2719 3.75306 45.0953 4.01947 45.4586 4.67337L48.8008 10.4617C49.9149 12.6171 50.1328 15.1117 49.4305 17.4124L48.1711 21.4812C48.0984 21.9171 48.0742 22.3531 48.1469 22.789L41.1719 25.6952C40.857 24.9202 40.6633 24.0968 40.6148 23.2492C40.5422 22.232 40.7359 21.2148 41.1477 20.2945Z" fill="#F9D0B4"/>
<path d="M31.1211 38.2414C29.2805 38.2414 27.4641 37.8055 25.8414 36.982V40.518L28.1906 45.7492C28.3844 46.1609 28.7719 46.4273 29.232 46.4273H33.2039C33.6398 46.4273 34.0273 46.1852 34.2211 45.7977L36.7641 40.5422V36.8125C35.0445 37.757 33.107 38.2414 31.1211 38.2414Z" fill="#F9D0B4"/>
<path d="M20.8523 20.2945C20.2953 19.0109 19.5203 17.0734 19.4719 15.8382C19.3992 13.8281 19.6172 11.3093 17.7039 11.382C17.268 11.4062 16.8805 11.6726 16.6867 12.0601L19.2297 6.02962C19.5445 5.25462 19.1812 4.38275 18.4062 4.04369C17.7039 3.75306 16.9047 4.01947 16.5172 4.67337L13.1992 10.5101C12.0851 12.6413 11.8672 15.1359 12.5695 17.4367L13.8289 21.5054C13.9016 21.9413 13.9258 22.3773 13.8531 22.8132L20.8281 25.6952C21.143 24.9202 21.3367 24.0968 21.3851 23.2492C21.4578 22.232 21.2641 21.2148 20.8523 20.2945Z" fill="#F9D0B4"/>
<path d="M41.1719 25.6958L48.7039 22.5958C49.0672 22.4505 49.4547 22.6201 49.6 22.9833L50.4477 25.0662L41.632 28.699L40.7844 26.6162C40.6391 26.2529 40.8086 25.8412 41.1719 25.6958Z" fill="#E9E9EA"/>
<path d="M42.3102 41.7777L39.5734 49.9879C39.3555 50.5207 38.7742 50.7629 38.2414 50.5449C38.0719 50.4723 37.9508 50.3754 37.8297 50.2301L34.2211 45.7496L36.7641 40.4941L42.3102 41.7777Z" fill="#E9E9EA"/>
<path d="M23.032 49.9867C23.25 50.5195 23.8312 50.7617 24.3641 50.5438C24.5336 50.4711 24.6547 50.3742 24.7758 50.2289L28.2633 45.8695C28.2391 45.8211 28.1906 45.7727 28.1664 45.7L25.8172 40.4688L20.2711 41.7523L23.032 49.9867Z" fill="#E9E9EA"/>
<path d="M20.8281 25.6958L13.2961 22.5958C12.9328 22.4505 12.5453 22.6201 12.4 22.9833L11.5523 25.0662L20.368 28.699L21.2156 26.6162C21.3609 26.2529 21.1914 25.8412 20.8281 25.6958Z" fill="#E9E9EA"/>
<path d="M57.1805 54.4193C59.9899 53.2568 61.3219 50.0599 60.1594 47.2505L51.368 25.4052C51.2227 25.0419 50.8109 24.8724 50.4719 25.0177L41.6078 28.6747C41.2445 28.8201 41.075 29.2318 41.2203 29.5708L50.0117 51.4161C51.1742 54.2255 54.3953 55.5576 57.1805 54.4193Z" fill="#EB6504"/>
<path d="M4.81951 54.4193C2.01014 53.2568 0.678104 50.0599 1.8406 47.2505L10.632 25.4052C10.7773 25.0419 11.189 24.8724 11.5281 25.0177L20.3922 28.6747C20.7554 28.8201 20.925 29.2318 20.7797 29.5708L11.9883 51.4161C10.8258 54.2255 7.60467 55.5576 4.81951 54.4193Z" fill="#EB6504"/>
<path d="M7.04764 54.8309L7.28983 54.8066C7.19295 54.8066 7.12029 54.8309 7.04764 54.8309Z" fill="#EB6504"/>
<path d="M50.0359 51.4406L46.4516 42.5523L42.3102 41.8016L39.5734 50.0117C39.3555 50.5445 38.7742 50.7867 38.2414 50.5688C38.0719 50.4961 37.9508 50.3992 37.8297 50.2539L34.2211 45.7734C34.0273 46.1609 33.6398 46.4031 33.2039 46.4031H29.232C28.8445 46.4031 28.5055 46.2094 28.2875 45.8945L24.8 50.2539C24.4367 50.6898 23.807 50.7625 23.3711 50.3992C23.2258 50.3023 23.1289 50.157 23.0562 49.9875L20.3195 41.7773L15.5 42.6492L11.9641 51.4406C11.2133 53.2812 9.51796 54.5648 7.55624 54.807L16.4445 54.0562C16.9047 54.0078 17.3406 54.3711 17.3648 54.8312C17.3648 54.8555 17.3648 54.8797 17.3648 54.9039V60.4258C17.3648 60.9586 17.8008 61.3945 18.3336 61.3945H44.2719C44.8047 61.3945 45.2406 60.9586 45.2406 60.4258V54.9039C45.2406 54.4195 45.6281 54.0562 46.0883 54.0562C46.1125 54.0562 46.1367 54.0562 46.1609 54.0562L53.8867 54.7102C52.143 54.2984 50.7141 53.0875 50.0359 51.4406Z" fill="#EB6504"/>
<path d="M9.20312 17.3646H8.76718V16.9287C8.76718 16.5896 8.50077 16.3232 8.16171 16.3232C7.82265 16.3232 7.55624 16.5896 7.55624 16.9287V17.3646H7.1203C6.78124 17.3646 6.51483 17.6311 6.51483 17.9701C6.51483 18.3092 6.78124 18.5756 7.1203 18.5756H7.55624V19.0115C7.55624 19.3506 7.82265 19.617 8.16171 19.617C8.50077 19.617 8.76718 19.3506 8.76718 19.0115V18.5756H9.20312C9.54218 18.5756 9.80858 18.3092 9.80858 17.9701C9.80858 17.6311 9.54218 17.3646 9.20312 17.3646Z" fill="#F75C64"/>
<path d="M48.8008 0.48418C48.8008 0.435742 48.7766 0.411523 48.7766 0.363086C48.7523 0.338867 48.7523 0.29043 48.7281 0.266211C48.7039 0.241992 48.6797 0.193555 48.6555 0.169336C48.4133 -0.0486328 48.05 -0.0486328 47.8078 0.169336C47.7836 0.193555 47.7594 0.217773 47.7352 0.266211C47.7109 0.29043 47.6867 0.338867 47.6867 0.363086C47.6625 0.411523 47.6625 0.435742 47.6625 0.48418C47.6625 0.532617 47.6383 0.556836 47.6383 0.605273C47.6383 0.653711 47.6383 0.67793 47.6625 0.726367C47.6625 0.774805 47.6867 0.799023 47.6867 0.847461C47.7109 0.895898 47.7109 0.920117 47.7352 0.944336C47.7594 0.968555 47.7836 1.01699 47.8078 1.04121C48.05 1.2834 48.4133 1.2834 48.6555 1.04121C48.6797 1.01699 48.7039 0.992773 48.7281 0.944336C48.7523 0.920117 48.7766 0.87168 48.7766 0.847461C48.8008 0.823242 48.8008 0.774805 48.8008 0.726367C48.8008 0.67793 48.8008 0.653711 48.825 0.605273C48.8008 0.556836 48.8008 0.508398 48.8008 0.48418Z" fill="#FFCD29"/>
<path d="M6.24841 23.3953C6.24841 23.3469 6.2242 23.3227 6.2242 23.2742C6.19998 23.25 6.19998 23.2016 6.17576 23.1773C6.15154 23.1531 6.12732 23.1047 6.1031 23.0805C5.86091 22.8625 5.49763 22.8625 5.25544 23.0805C5.23123 23.1047 5.20701 23.1289 5.18279 23.1773C5.13435 23.25 5.11013 23.3227 5.08591 23.3953C5.06169 23.468 5.06169 23.5648 5.08591 23.6375C5.08591 23.6859 5.11013 23.7102 5.11013 23.7586C5.13435 23.807 5.13435 23.8312 5.15857 23.8555C5.18279 23.8797 5.20701 23.9281 5.23123 23.9523C5.47341 24.1945 5.83669 24.1945 6.07888 23.9523C6.1031 23.9281 6.12732 23.9039 6.15154 23.8555C6.17576 23.8312 6.19998 23.7828 6.19998 23.7586C6.2242 23.7344 6.2242 23.6859 6.2242 23.6375C6.27263 23.5406 6.27263 23.468 6.24841 23.3953Z" fill="#FFCD29"/>
<path d="M53.3781 19.5926C53.3781 19.5441 53.3539 19.5199 53.3539 19.4715C53.3297 19.4473 53.3297 19.3988 53.3055 19.3746C53.2812 19.3504 53.257 19.302 53.2328 19.2777C52.9906 19.0598 52.6273 19.0598 52.3851 19.2777C52.3609 19.302 52.3367 19.3262 52.3125 19.3746C52.264 19.4473 52.2398 19.5199 52.2156 19.5926C52.1914 19.6652 52.1914 19.7621 52.2156 19.8348C52.2156 19.8832 52.2398 19.9074 52.2398 19.9559C52.264 20.0043 52.264 20.0285 52.2883 20.0527C52.3125 20.077 52.3367 20.1254 52.3609 20.1496C52.6031 20.3918 52.9664 20.3918 53.2086 20.1496C53.2328 20.1254 53.257 20.1012 53.2812 20.0527C53.3055 20.0285 53.3297 19.9801 53.3297 19.9559C53.3539 19.9316 53.3539 19.8832 53.3539 19.8348C53.4023 19.7379 53.4023 19.6652 53.3781 19.5926Z" fill="#EB6504"/>
<path d="M54.7828 5.10996C53.7899 4.91621 53.0391 4.14121 52.8453 3.17246C52.8453 3.14824 52.8211 3.12402 52.7969 3.12402C52.7727 3.12402 52.7727 3.14824 52.7484 3.17246C52.5547 4.16543 51.7797 4.91621 50.8109 5.10996C50.7867 5.10996 50.7625 5.13418 50.7625 5.1584C50.7625 5.18262 50.7867 5.18262 50.8109 5.20684C51.8039 5.40059 52.5547 6.17559 52.7484 7.14434C52.7484 7.16855 52.7727 7.19277 52.7969 7.19277C52.8211 7.19277 52.8211 7.16855 52.8453 7.14434C53.0391 6.15137 53.8141 5.40059 54.7828 5.20684C54.807 5.20684 54.8313 5.18262 54.8313 5.1584C54.807 5.13418 54.807 5.10996 54.7828 5.10996Z" fill="#6DCC6D"/>
<path d="M35.0929 32.2594C34.8992 32.2594 34.7054 32.1625 34.5843 31.993C33.3492 30.1766 30.8789 29.6922 29.0625 30.9274C28.6507 31.218 28.2632 31.5813 27.9968 31.993C27.8031 32.2594 27.4398 32.3321 27.1492 32.1625C26.8586 31.993 26.8101 31.6055 26.9797 31.3149C28.5781 28.9414 31.7992 28.3117 34.1968 29.9102C34.7539 30.2735 35.214 30.7578 35.6015 31.3149C35.7953 31.5813 35.7226 31.9688 35.432 32.1625C35.3351 32.2352 35.214 32.2594 35.0929 32.2594Z" fill="#231F20"/>
<path d="M26.7859 25.3324C25.7687 25.3324 24.9453 24.5089 24.9695 23.4917C24.9695 22.4745 25.793 21.6511 26.8101 21.6753C27.8273 21.6753 28.6265 22.4988 28.6265 23.4917C28.6023 24.5089 27.8031 25.3324 26.7859 25.3324ZM26.7859 22.8863C26.6406 22.8863 26.4953 22.9347 26.3984 23.0316C26.132 23.2495 26.1078 23.637 26.3258 23.9035C26.5437 24.1699 26.9312 24.1941 27.1976 23.9761C27.343 23.855 27.4156 23.6855 27.4156 23.4917C27.4156 23.2011 27.1976 22.9347 26.907 22.8863C26.8586 22.8863 26.8101 22.8863 26.7859 22.8863Z" fill="#231F20"/>
<path d="M35.8195 25.3328C34.8023 25.3328 33.9789 24.5094 33.9789 23.5164C33.9789 22.4992 34.8023 21.6758 35.7953 21.6758C36.8125 21.6758 37.6359 22.4992 37.6359 23.4922C37.6602 24.5094 36.8367 25.3328 35.8195 25.3328ZM35.8195 22.8867C35.6742 22.8867 35.5289 22.9352 35.432 23.032C35.1656 23.25 35.1414 23.6375 35.3352 23.9039C35.4563 24.0492 35.6258 24.1219 35.8195 24.1219C36.1586 24.1219 36.425 23.8555 36.425 23.4922C36.425 23.2016 36.207 22.9352 35.9164 22.8867C35.8922 22.8867 35.868 22.8867 35.8195 22.8867Z" fill="#231F20"/>
<path d="M23.1047 17.1469C22.039 17.1469 20.9734 17.05 19.932 16.832H19.9078C19.6414 17.0258 19.2539 16.9773 19.0601 16.7109C19.0117 16.6383 18.9633 16.5414 18.9633 16.4688C18.9633 16.4688 18.9633 16.4445 18.9633 16.4203C18.8906 16.2266 18.8906 16.057 18.8664 15.8633C18.8664 15.7422 18.8664 15.5969 18.8422 15.4758C18.8422 15.3305 18.8422 15.1852 18.8422 15.0398C18.8179 13.9016 18.7937 12.5938 18.3093 12.1578C18.1398 12.0125 17.9461 11.9641 17.7281 11.9883C17.6554 11.9883 17.4375 12.0125 17.1953 12.3758C17.0258 12.6664 16.6383 12.7391 16.3718 12.5695C16.1297 12.4242 16.0086 12.0852 16.1297 11.8187L18.6726 5.8125C18.7211 5.71562 18.7453 5.59453 18.7453 5.49766C18.7453 5.47344 18.7453 5.47344 18.7453 5.44922C18.7453 5.23125 18.6484 5.01328 18.5031 4.84375C18.2851 4.60156 18.2851 4.23828 18.5031 3.99609C20.9008 1.52578 24.2187 0.121094 27.682 0.121094H31.1695C33.5672 0.145313 35.7953 1.28359 37.1758 3.24531C39.3797 2.13125 41.9953 2.22812 44.1265 3.4875C44.4172 3.65703 44.514 4.02031 44.3445 4.31094C44.2719 4.45625 44.1265 4.55312 43.957 4.60156C43.6664 4.67422 43.4484 4.86797 43.3273 5.13438C43.2547 5.35234 43.2547 5.59453 43.3273 5.8125L45.8703 11.843C45.9914 12.1578 45.8461 12.4969 45.5554 12.6422C45.289 12.7633 44.9742 12.6664 44.8047 12.4C44.7804 12.3516 44.732 12.3031 44.6836 12.2305C44.6109 12.1336 44.4898 12.0609 44.3929 12.0125C44.3687 12.0125 44.3203 11.9883 44.2719 11.9883C43.8844 11.9641 43.5937 12.0852 43.4 12.6906C43.3758 12.7633 43.3515 12.8602 43.3273 12.957C43.3031 13.0781 43.2789 13.175 43.2789 13.2961C43.2547 13.4656 43.2304 13.6594 43.2304 13.8773C43.2304 14.0227 43.2062 14.1922 43.2062 14.3375C43.2062 14.5797 43.182 14.7977 43.182 15.0398C43.182 15.2336 43.0851 15.4031 42.9156 15.5242C42.7703 15.6453 42.5523 15.6695 42.3828 15.6211H42.3586C37.3453 15.4758 34.6328 13.5141 33.4461 12.3758C33.4219 12.3516 33.4218 12.3516 33.3976 12.3758C30.2492 16.2992 26.0836 17.1469 23.1047 17.1469ZM20.0773 15.6211C20.1015 15.6211 20.1258 15.6211 20.1742 15.6453C22.5234 16.1297 28.3843 16.7352 32.4289 11.625C32.8648 11.0922 33.6398 10.9953 34.1726 11.4313C34.1968 11.4555 34.2453 11.4797 34.2695 11.5281C35.0929 12.3273 37.4422 14.168 41.9468 14.4102C41.9468 14.3859 41.9468 14.3617 41.9468 14.3133C41.9468 14.1437 41.9711 13.9742 41.9711 13.8047C41.9953 13.5625 42.0195 13.3445 42.0437 13.1266C42.0679 12.957 42.0922 12.8117 42.1164 12.6906C42.1406 12.5695 42.189 12.4484 42.2133 12.3273C42.6008 11.1164 43.4 10.8016 44.1023 10.7773L42.2133 6.27266C41.8984 5.52187 42.0437 4.67422 42.5765 4.06875C40.8328 3.41484 38.8711 3.58437 37.2726 4.55312C36.982 4.72266 36.6187 4.62578 36.4492 4.33516C35.3351 2.47031 33.325 1.33203 31.1695 1.30781H27.682C24.7273 1.30781 21.8695 2.44609 19.7383 4.48047C19.8109 4.60156 19.8593 4.74688 19.8836 4.89219C19.932 5.06172 19.9562 5.20703 19.9562 5.37656C19.9562 5.40078 19.9562 5.425 19.9562 5.44922C19.9562 5.73984 19.9078 6.00625 19.7867 6.27266L17.8976 10.7773C18.3578 10.7773 18.8179 10.9469 19.157 11.2859C20.0047 12.0852 20.0289 13.5625 20.0773 15.0156C20.0773 15.1609 20.0773 15.3062 20.0773 15.4516C20.0773 15.5 20.0773 15.5727 20.0773 15.6211Z" fill="#231F20"/>
<path d="M31.1211 38.8464C26.132 38.8464 21.6515 35.8675 19.6656 31.2902C19.6172 31.1448 19.5929 30.9995 19.6414 30.8542L20.15 29.3769V29.3527V29.3284C20.15 29.28 20.1258 29.2558 20.1015 29.2316C19.7867 29.1105 19.6414 28.7472 19.7625 28.4323L20.6101 26.3495V26.3253C20.6101 26.3011 20.5859 26.2527 20.5617 26.2527C20.2468 26.1316 20.1015 25.7683 20.2226 25.4777C20.3195 25.2355 20.4164 24.9691 20.4648 24.7027C20.6101 24.2183 20.6828 23.7339 20.7312 23.2253C20.7554 23.0073 20.7554 22.7894 20.7312 22.5956C20.7312 22.523 20.7312 22.4745 20.707 22.4019C20.707 22.305 20.6828 22.2081 20.6828 22.087C20.6101 21.5542 20.4648 21.0456 20.2468 20.537C19.7867 19.3745 19.1328 17.7034 18.939 16.4441C18.9148 16.2261 18.9875 16.0081 19.1812 15.8628C19.4718 15.6449 19.8351 15.5722 20.1742 15.6448C22.5234 16.1292 28.3843 16.7347 32.4531 11.6245C32.889 11.0917 33.664 10.9949 34.1968 11.4308C34.2211 11.455 34.2695 11.4792 34.2937 11.5277C35.1414 12.3511 37.6117 14.2886 42.407 14.4339C42.5281 14.4339 42.6492 14.4581 42.7461 14.5066C42.9883 14.5792 43.1578 14.8214 43.1578 15.0878V15.1363C43.1578 15.4027 43.1336 15.6691 43.1336 15.9113C43.1094 16.4198 43.0125 16.9284 42.8672 17.4128C42.7703 17.8245 42.625 18.2605 42.4312 18.7448C42.3828 18.8659 42.3586 18.9628 42.3101 19.0839C42.1164 19.5683 41.9226 20.0769 41.7047 20.5855C41.5593 20.9003 41.4625 21.2152 41.3656 21.5542C41.3414 21.6753 41.3172 21.7722 41.2929 21.8933C41.2445 22.2323 41.1961 22.5714 41.1961 22.9105C41.1961 23.0316 41.1961 23.1284 41.1961 23.2495C41.2203 23.5159 41.2445 23.7581 41.2929 24.0003C41.3898 24.5089 41.5109 25.0175 41.7047 25.5019C41.8258 25.8167 41.6804 26.1558 41.3656 26.2769C41.3172 26.3011 41.2929 26.3495 41.3172 26.398L42.1648 28.4808C42.2859 28.7956 42.1406 29.1347 41.8258 29.28C41.7773 29.28 41.7531 29.3284 41.7531 29.3769V29.4011V29.4253L42.3828 31.2175C42.4312 31.3628 42.4312 31.5323 42.3586 31.6777C40.3726 36.0128 35.9648 38.8222 31.1211 38.8464ZM20.9008 31.0238C23.4679 36.6667 30.1039 39.1855 35.7711 36.6425C38.1445 35.5769 40.082 33.6878 41.2203 31.3386L40.6875 29.7886C40.5179 29.3284 40.5906 28.8198 40.9054 28.4566L40.2273 26.8097C40.0336 26.3495 40.1304 25.8409 40.4453 25.4777C40.3 25.0417 40.2031 24.6058 40.1304 24.1698C40.082 23.8792 40.0336 23.5886 40.0336 23.2738C40.0336 23.1284 40.0093 23.0073 40.0093 22.862C40.0093 22.4503 40.0336 22.0386 40.1062 21.6269C40.1304 21.4816 40.1547 21.3605 40.1789 21.2152C40.2758 20.8034 40.4211 20.4159 40.5664 20.0284C40.7843 19.5441 40.9781 19.0597 41.1476 18.5995C41.1961 18.5027 41.2203 18.3816 41.2687 18.2847C41.4383 17.8245 41.5593 17.4128 41.6562 17.0495C41.7773 16.6378 41.85 16.2261 41.8742 15.8144C41.8742 15.7417 41.8742 15.6691 41.8742 15.5964C37.1031 15.3542 34.5117 13.4894 33.3734 12.3753H33.3492C33.3492 12.3753 33.325 12.3753 33.325 12.3995C28.9656 17.873 22.5476 17.3402 20.1984 16.9042C20.489 17.9941 20.8765 19.0355 21.3367 20.0769C21.6031 20.6823 21.7726 21.312 21.8695 21.9417C21.8937 22.0628 21.8937 22.1839 21.9179 22.305C21.9179 22.4019 21.9422 22.4745 21.9422 22.5472C21.9664 22.8136 21.9664 23.0558 21.9422 23.3222C21.8937 23.9034 21.7968 24.4847 21.6515 25.0417C21.6031 25.2113 21.5547 25.3566 21.5062 25.5019C21.8211 25.8652 21.9179 26.398 21.7242 26.8581L21.0461 28.505C21.3609 28.8683 21.4336 29.3769 21.264 29.837L20.9008 31.0238Z" fill="#231F20"/>
<path d="M55.0977 55.4367C52.6273 55.4367 50.3992 53.9352 49.4547 51.6586L40.6875 29.8133C40.4211 29.1594 40.7359 28.4086 41.3898 28.118L50.2539 24.4609C50.9078 24.1945 51.6828 24.5094 51.9492 25.1633L60.7406 47.0086C62.0242 50.1086 60.5227 53.6688 57.4227 54.9523C56.6719 55.2672 55.8969 55.4367 55.0977 55.4367ZM50.7383 25.575H50.7141L41.85 29.232C41.8016 29.2562 41.7773 29.3047 41.8016 29.3531L50.593 51.1984C51.6102 53.693 54.468 54.8797 56.9625 53.8383C59.457 52.8211 60.6438 49.9633 59.6266 47.4688L50.8352 25.6234C50.8109 25.5992 50.7867 25.575 50.7383 25.575Z" fill="#231F20"/>
<path d="M41.632 29.2805C41.3898 29.2805 41.1719 29.1352 41.075 28.893L40.2274 26.8102C39.9609 26.1562 40.2758 25.3812 40.9297 25.1148L48.4859 22.0391C49.1398 21.7727 49.9148 22.0875 50.1813 22.7414L51.0289 24.8242C51.15 25.1391 51.0047 25.4781 50.6898 25.6234L41.8742 29.2562C41.8016 29.2562 41.7289 29.2805 41.632 29.2805ZM41.3898 26.2531C41.3414 26.2773 41.3172 26.3258 41.3414 26.3742L41.9711 27.9L49.6727 24.7273L49.043 23.2016C49.0188 23.1531 48.9703 23.1289 48.9219 23.1531L41.3898 26.2531Z" fill="#231F20"/>
<path d="M41.1719 26.3014C40.9297 26.3014 40.7117 26.1561 40.6148 25.9139C40.2758 25.0663 40.082 24.1944 40.0336 23.2983C39.9609 22.1843 40.1547 21.0702 40.6148 20.053C41.4383 18.1882 41.8984 16.6866 41.9469 15.8147C41.9469 15.5483 41.9711 15.2819 41.9711 15.0155C41.9953 13.5624 42.0438 12.0608 42.8914 11.2858C43.2305 10.971 43.6906 10.8014 44.1508 10.7772L42.2617 6.27254C41.8016 5.1827 42.3102 3.94754 43.4 3.5116C44.393 3.09988 45.5313 3.48738 46.0641 4.4077L49.4063 10.196C49.4063 10.196 49.4063 10.2202 49.4305 10.2202C50.6172 12.4968 50.8594 15.1608 50.0844 17.6311L48.825 21.6757C48.7523 22.0389 48.7523 22.4022 48.8008 22.7655C48.825 23.0319 48.6797 23.2983 48.4375 23.3952L41.4625 26.253C41.3172 26.2772 41.2445 26.3014 41.1719 26.3014ZM44.1992 11.9882C44.0055 11.9639 43.8117 12.0366 43.6906 12.1577C43.2305 12.5936 43.182 13.9014 43.1578 15.0397C43.1578 15.3304 43.1336 15.5968 43.1336 15.8632C43.0852 17.171 42.3344 19.1327 41.7047 20.5374C41.3414 21.385 41.1719 22.3054 41.2203 23.2014C41.2445 23.7585 41.3656 24.3397 41.5352 24.8725L47.493 22.4264C47.4688 22.0632 47.493 21.7241 47.5898 21.3608C47.5898 21.3366 47.5898 21.3366 47.5898 21.3124L48.8492 17.2436C49.5273 15.0882 49.3094 12.7632 48.268 10.7772L44.95 4.98895C44.7078 4.55301 44.1508 4.4077 43.7148 4.64988C43.3273 4.86785 43.1578 5.35223 43.3273 5.78817L45.8703 11.8186C45.9914 12.1335 45.8461 12.4725 45.5555 12.6179C45.2891 12.7389 44.9742 12.6421 44.8047 12.3757C44.5625 11.9882 44.3445 11.9882 44.2719 11.9882C44.2477 11.9882 44.2234 11.9882 44.1992 11.9882Z" fill="#231F20"/>
<path d="M45.9914 16.7344H45.9672C45.6281 16.7102 45.3859 16.4438 45.3859 16.1047C45.4101 15.4508 45.3859 13.5133 44.8531 12.5204C44.7078 12.2297 44.8047 11.8665 45.1195 11.6969C45.4101 11.5516 45.7734 11.6485 45.943 11.9633C46.718 13.4649 46.5969 16.0563 46.5969 16.1532C46.5969 16.468 46.3305 16.7344 45.9914 16.7344Z" fill="#231F20"/>
<path d="M38.6047 51.2225C38.1203 51.2225 37.6601 51.0045 37.3453 50.617L33.7367 46.1365C33.5914 45.9428 33.5672 45.7006 33.6641 45.4826L36.207 40.2272C36.3281 39.985 36.6187 39.8397 36.8851 39.9123L42.4312 41.1959C42.7461 41.2686 42.9641 41.6076 42.8914 41.9225C42.8914 41.9467 42.8914 41.9709 42.8672 41.9709L40.1305 50.1811C40.1305 50.2053 40.1305 50.2053 40.1062 50.2053C39.8883 50.7381 39.4039 51.1256 38.8469 51.1982C38.7742 51.2225 38.7016 51.2225 38.6047 51.2225ZM34.9234 45.6764L38.2898 49.8662C38.4352 50.0358 38.7016 50.0842 38.8711 49.9389C38.9195 49.8904 38.968 49.842 38.9922 49.7936L41.5109 42.2373L37.1031 41.2201L34.9234 45.6764Z" fill="#231F20"/>
<path d="M24.0008 51.2222C23.9281 51.2222 23.8312 51.2222 23.7586 51.1979C23.1773 51.1253 22.6929 50.7378 22.4992 50.205C22.4992 50.205 22.4992 50.1808 22.475 50.1808L19.7383 41.9706C19.6414 41.6558 19.8109 41.3167 20.1258 41.1956C20.15 41.1956 20.1742 41.1956 20.1742 41.1714L25.7203 39.8878C26.0109 39.8151 26.3015 39.9604 26.3984 40.2268L28.7476 45.4581C28.7476 45.4823 28.7718 45.5065 28.7961 45.5308C28.9414 45.7487 28.9172 46.0393 28.7718 46.2331L25.2843 50.5925C24.9453 51.0042 24.4851 51.2222 24.0008 51.2222ZM23.6133 49.769C23.7101 49.987 23.9523 50.0839 24.1703 49.987C24.2187 49.9628 24.2914 49.9143 24.3156 49.8659L27.5609 45.8214L25.4781 41.2198L21.0703 42.237L23.6133 49.769Z" fill="#231F20"/>
<path d="M33.2039 47.0085H29.232C28.5539 47.0085 27.9242 46.5968 27.6578 45.9914L25.3086 40.7601C25.2843 40.6874 25.2601 40.5906 25.2601 40.5179V36.982C25.2601 36.6429 25.5265 36.3765 25.8656 36.3765C25.9625 36.3765 26.0594 36.4007 26.132 36.4492C27.682 37.2242 29.4015 37.6359 31.1453 37.6359C33.0101 37.6359 34.8508 37.1757 36.4976 36.2796C36.7883 36.1101 37.1515 36.2312 37.3211 36.5218C37.3695 36.6187 37.3937 36.7156 37.3937 36.8124V40.5179C37.3937 40.6148 37.3695 40.7117 37.3453 40.7843L34.7539 46.0156C34.4633 46.621 33.8578 47.0085 33.2039 47.0085ZM26.4468 40.3726L28.7476 45.4828C28.8445 45.6765 29.014 45.7976 29.232 45.7976H33.2039C33.3976 45.7976 33.5914 45.6765 33.6883 45.507L36.1828 40.3726V37.7812C34.6086 38.4835 32.889 38.8468 31.1453 38.8468C29.5469 38.8468 27.9484 38.532 26.4711 37.9265L26.4468 40.3726Z" fill="#231F20"/>
<path d="M6.90233 55.4363C3.53592 55.4363 0.823425 52.6996 0.823425 49.3332C0.823425 48.534 0.968738 47.759 1.28358 47.0324L10.0508 25.1871C10.3172 24.5332 11.0922 24.1941 11.7461 24.4847L20.6101 28.1418C21.264 28.4082 21.5789 29.1832 21.3125 29.8371L12.5211 51.6824C11.6008 53.9347 9.37264 55.4363 6.90233 55.4363ZM11.2617 25.5746C11.2375 25.5746 11.189 25.5988 11.189 25.623L2.39764 47.4925C1.35624 49.9871 2.51874 52.8449 5.01327 53.8863C7.5078 54.9277 10.3656 53.7652 11.407 51.2707C11.407 51.2465 11.4312 51.2222 11.4312 51.198L20.2226 29.3527C20.2226 29.3285 20.2226 29.3043 20.2226 29.28C20.2226 29.2558 20.1984 29.2316 20.1742 29.2316L11.3101 25.5746C11.2859 25.5988 11.2617 25.5746 11.2617 25.5746Z" fill="#231F20"/>
<path d="M20.368 29.2803C20.2953 29.2803 20.2227 29.2561 20.1258 29.2318L11.3101 25.599C10.9953 25.4779 10.85 25.1146 10.9711 24.7998L11.8187 22.717C12.0851 22.0631 12.8601 21.7482 13.5141 22.0146L21.0703 25.1389C21.7242 25.4053 22.0391 26.1803 21.7727 26.8342L20.925 28.917C20.8281 29.135 20.6102 29.2803 20.368 29.2803ZM12.3273 24.7029L20.0289 27.8756L20.6586 26.3498C20.6828 26.3014 20.6586 26.2529 20.6102 26.2287L13.0539 23.1529C13.0055 23.1287 12.957 23.1529 12.9328 23.2014L12.3273 24.7029Z" fill="#231F20"/>
<path d="M20.8281 26.3009C20.7555 26.3009 20.6828 26.2767 20.5859 26.2524L13.6352 23.3946C13.393 23.2978 13.2234 23.0313 13.2719 22.7649C13.3203 22.4017 13.3203 22.0384 13.2477 21.6751L11.9883 17.6306C11.2133 15.1603 11.4555 12.5204 12.6422 10.2196C12.6422 10.2196 12.6422 10.1954 12.6664 10.1954L16.0086 4.40713C16.5898 3.38994 17.8734 3.02666 18.8906 3.63213C19.8109 4.16494 20.1984 5.30322 19.7867 6.29619L17.8977 10.8009C18.3578 10.8009 18.818 10.9704 19.157 11.3095C20.0047 12.1087 20.0289 13.586 20.0773 15.0392C20.0773 15.3056 20.1016 15.572 20.1016 15.8384C20.15 16.7103 20.6102 18.2118 21.4336 20.0767C21.8695 21.0938 22.0875 22.2079 22.0148 23.322C21.9664 24.2181 21.7484 25.1142 21.4336 25.9376C21.3125 26.1556 21.0945 26.3009 20.8281 26.3009ZM14.507 22.4259L20.4648 24.872C20.6344 24.3392 20.7313 23.7579 20.7797 23.2009C20.8281 22.2806 20.6828 21.3603 20.2953 20.5368C19.6656 19.1321 18.9148 17.1704 18.8664 15.8626C18.8422 15.5962 18.8422 15.3056 18.8422 15.0392C18.818 13.9009 18.7938 12.5931 18.3094 12.1571C18.1398 12.0118 17.9461 11.9634 17.7281 11.9876C17.6555 11.9876 17.4375 12.0118 17.1953 12.3751C17.0258 12.6657 16.6383 12.7384 16.3719 12.5688C16.1297 12.4235 16.0086 12.0845 16.1297 11.8181L18.6727 5.81182C18.8664 5.35166 18.6484 4.81885 18.1883 4.6251C17.7766 4.45557 17.268 4.60088 17.05 5.0126L13.732 10.8009C12.6906 12.811 12.4969 15.136 13.1508 17.2673L14.4102 21.336C14.4102 21.3603 14.4102 21.3603 14.4102 21.3845C14.507 21.7235 14.5312 22.0868 14.507 22.4259Z" fill="#231F20"/>
<path d="M16.0086 16.7348C15.6937 16.7348 15.4273 16.4684 15.4031 16.1536C15.4031 16.0325 15.282 13.4411 16.057 11.9637C16.2023 11.6731 16.5656 11.552 16.8804 11.6973C17.1711 11.8426 17.2922 12.2059 17.1469 12.5208C16.6383 13.5137 16.5898 15.4512 16.614 16.1051C16.6383 16.4442 16.3719 16.7106 16.0328 16.7348H16.0086Z" fill="#231F20"/>
<path d="M7.04764 55.4361C6.70858 55.4361 6.44217 55.1697 6.44217 54.8306C6.44217 54.4916 6.70858 54.2252 7.02342 54.2252C7.07186 54.2252 7.14451 54.2252 7.19295 54.2252H7.21717C7.55623 54.2009 7.84686 54.4674 7.87108 54.7822C7.8953 55.1213 7.65311 55.3877 7.31405 55.4361L7.07186 55.4603C7.07186 55.4361 7.07186 55.4361 7.04764 55.4361Z" fill="#231F20"/>
<path d="M44.2719 61.9998H18.3336C17.4617 61.9998 16.7594 61.2975 16.7594 60.4256V54.9037C16.7594 54.7584 16.6383 54.6615 16.5172 54.6615H16.493L7.60467 55.4123C7.26561 55.4365 6.97499 55.1943 6.95077 54.8553C6.92655 54.5404 7.16874 54.2498 7.48358 54.2014C9.22733 53.9834 10.7531 52.8451 11.407 51.2225L14.943 42.4553C15.0156 42.2615 15.1851 42.1162 15.4031 42.092L20.1984 41.2201C20.489 41.1717 20.7797 41.3412 20.8765 41.6318L23.6133 49.8178C23.7101 50.0358 23.9523 50.1326 24.1703 50.0358C24.2187 50.0115 24.2914 49.9631 24.3156 49.9147L27.8031 45.5553C28.0211 45.2889 28.3844 45.2647 28.6508 45.4584C28.6992 45.5068 28.7476 45.5553 28.7719 45.6037C28.8687 45.749 29.0383 45.8459 29.2078 45.8459H33.1797C33.3734 45.8459 33.5672 45.7248 33.664 45.5553C33.8094 45.2647 34.1726 45.1193 34.4633 45.2647C34.5359 45.3131 34.6086 45.3615 34.6812 45.4342L38.2898 49.9147C38.4351 50.0842 38.7015 50.1326 38.8711 49.9873C38.9195 49.9389 38.9679 49.8904 38.9922 49.842L41.7289 41.6561C41.8258 41.3654 42.1164 41.1959 42.407 41.2443L46.5484 41.9951C46.7422 42.0436 46.9359 42.1647 47.0086 42.3584L50.5929 51.2467C51.1984 52.724 52.482 53.7897 54.032 54.1529C54.3469 54.2256 54.5648 54.5404 54.4922 54.8795C54.4195 55.1701 54.1531 55.3639 53.8625 55.3397L46.1367 54.6858C45.9914 54.6858 45.8703 54.7826 45.8703 54.9279V54.9522V60.474C45.8461 61.2975 45.1437 61.9998 44.2719 61.9998ZM16.5172 53.4264C17.3164 53.4264 17.9703 54.0803 17.9703 54.8795V60.4014C17.9703 60.5951 18.1398 60.7647 18.3336 60.7647H44.2719C44.4656 60.7647 44.6351 60.5951 44.6351 60.4014V54.8795C44.6351 54.0803 45.289 53.4264 46.0883 53.4264C46.1367 53.4264 46.1609 53.4264 46.2094 53.4264L50.9804 53.8139C50.3265 53.2084 49.7937 52.4576 49.4547 51.6342L46.0156 43.0608L42.7219 42.4795L40.1547 50.1811C40.1547 50.2053 40.1547 50.2053 40.1304 50.2053C39.7914 51.0287 38.8469 51.4404 38.0234 51.1014C37.757 51.0045 37.539 50.835 37.3695 50.617L34.2211 46.6936C33.9304 46.8873 33.5914 47.0084 33.2281 47.0084H29.2562C28.9414 47.0084 28.6508 46.9358 28.3844 46.7662L25.2601 50.617C24.7031 51.3193 23.6859 51.4162 22.9836 50.8592C22.7656 50.6897 22.5961 50.4717 22.4992 50.2053C22.4992 50.2053 22.4992 50.1811 22.475 50.1811L19.9078 42.4795L15.9601 43.1818L12.5453 51.6584C12.182 52.5061 11.6492 53.2811 10.9469 53.9108L16.3961 53.4506C16.4203 53.4506 16.4687 53.4264 16.5172 53.4264Z" fill="#231F20"/>
<path d="M31.3148 51.2712C31.2664 51.2712 31.2422 51.2712 31.1937 51.247C31.1453 51.247 31.1211 51.2228 31.0726 51.2228C31.0242 51.1986 31 51.1986 30.9758 51.1743C30.9515 51.1501 30.9031 51.1259 30.8789 51.1017C30.6367 50.8595 30.6367 50.4962 30.8789 50.254C30.9031 50.2298 30.9273 50.2056 30.9758 50.1814C31 50.1571 31.0484 50.1329 31.0726 50.1329C31.1211 50.1087 31.1453 50.1087 31.1937 50.1087C31.5328 50.036 31.8476 50.254 31.8961 50.5931C31.9687 50.9321 31.7508 51.247 31.4117 51.2954C31.3875 51.2712 31.339 51.2712 31.3148 51.2712Z" fill="#231F20"/>
<path d="M31.3148 54.4435C31.2664 54.4435 31.2422 54.4435 31.1937 54.4193C31.1453 54.4193 31.1211 54.3951 31.0726 54.3951C31.0242 54.3708 31 54.3708 30.9758 54.3466C30.9515 54.3224 30.9031 54.2982 30.8789 54.274C30.6367 54.0318 30.6367 53.6685 30.8789 53.4263C30.9031 53.4021 30.9273 53.3779 30.9758 53.3537C31 53.3295 31.0484 53.3052 31.0726 53.3052C31.2906 53.2084 31.557 53.2568 31.7265 53.4263C31.9687 53.6685 31.9687 54.056 31.7265 54.274C31.6297 54.3708 31.4601 54.4435 31.3148 54.4435Z" fill="#231F20"/>
<path d="M31.3148 57.6167C31.2664 57.6167 31.2422 57.6167 31.1937 57.5925C31.1453 57.5925 31.1211 57.5683 31.0726 57.5683C31.0242 57.544 31 57.544 30.9758 57.5198C30.9515 57.4956 30.9031 57.4714 30.8789 57.4472C30.7578 57.3261 30.7094 57.1808 30.7094 57.0112C30.7094 56.9628 30.7094 56.9386 30.7336 56.8901C30.7336 56.8417 30.7578 56.8175 30.782 56.769C30.8062 56.7206 30.8062 56.6964 30.8304 56.6722C30.8789 56.5995 30.9273 56.5511 31 56.5026C31.0242 56.4784 31.0726 56.4542 31.0968 56.4542C31.1453 56.43 31.1695 56.43 31.2179 56.43C31.4117 56.3815 31.6297 56.4542 31.7508 56.5995C31.775 56.6237 31.7992 56.648 31.8234 56.6964C31.8476 56.7206 31.8719 56.769 31.8719 56.7933C31.8961 56.8417 31.8961 56.8659 31.8961 56.9144C31.8961 56.9628 31.9203 56.987 31.9203 57.0354C31.9203 57.3503 31.6297 57.6167 31.3148 57.6167Z" fill="#231F20"/>
</g>
<defs>
<clipPath id="clip0">
<rect width="62" height="62" fill="white"/>
</clipPath>
</defs>
</svg>
