<svg width="65" height="64" viewBox="0 0 65 64" fill="none" xmlns="http://www.w3.org/2000/svg">
<path d="M51.0961 32L62.0961 21L43.0961 2L13.0961 32" fill="#78B75B"/>
<path d="M22.0961 32.0002C22.0961 29.4412 23.0721 26.8822 25.0251 24.9292C28.9301 21.0242 35.2621 21.0242 39.1671 24.9292C41.1201 26.8822 42.0961 29.4412 42.0961 32.0002" fill="#669E4F"/>
<path d="M38.923 33.4137C38.923 32.3457 38.507 31.3407 37.751 30.5847C36.241 29.0737 33.605 29.0737 32.096 30.5847L29.267 27.7557C30.048 26.9767 31.315 26.9777 32.096 27.7567L33.509 26.3417C31.951 24.7837 29.413 24.7827 27.853 26.3417L27.146 25.6347L25.731 27.0497L26.439 27.7577C25.683 28.5127 25.268 29.5167 25.268 30.5857C25.267 31.6537 25.684 32.6587 26.44 33.4147C27.195 34.1697 28.2 34.5857 29.268 34.5857C30.336 34.5857 31.34 34.1697 32.095 33.4147L34.924 36.2437C34.143 37.0227 32.876 37.0217 32.095 36.2427L30.682 37.6577C31.461 38.4367 32.486 38.8267 33.51 38.8267C34.534 38.8267 35.558 38.4367 36.338 37.6577L37.045 38.3647L38.46 36.9497L37.752 36.2417C38.507 35.4857 38.923 34.4817 38.923 33.4137ZM30.68 31.9997C29.926 32.7547 28.607 32.7547 27.853 31.9997C27.475 31.6217 27.266 31.1197 27.267 30.5857C27.267 30.0517 27.475 29.5497 27.852 29.1717L30.68 31.9997ZM33.51 31.9987C34.264 31.2437 35.583 31.2437 36.337 31.9987C36.715 32.3767 36.923 32.8787 36.923 33.4127C36.923 33.9467 36.715 34.4487 36.338 34.8267L33.51 31.9987Z" fill="#78B75B"/>
<path d="M48.3182 29.9199L46.9032 28.5049L54.6812 20.7269L43.3672 9.4139L35.5892 17.1919L34.1742 15.7769L42.6592 7.2919C43.0502 6.9019 43.6832 6.9009 44.0742 7.2919L56.8032 20.0199C56.9912 20.2079 57.0952 20.4619 57.0952 20.7269C57.0952 20.9929 56.9912 21.2469 56.8032 21.4349L48.3182 29.9199Z" fill="#669E4F"/>
<path d="M44.0987 25.6611L45.5127 24.2451L46.9287 25.6591L45.5147 27.0751L44.0987 25.6611Z" fill="#96CC7F"/>
<path d="M46.898 22.8604L48.3123 21.4461L49.7272 22.8611L48.313 24.2753L46.898 22.8604Z" fill="#96CC7F"/>
<path d="M37.0269 18.605L38.4429 17.191L39.8561 18.6063L38.4401 20.0203L37.0269 18.605Z" fill="#96CC7F"/>
<path d="M39.8286 15.7871L41.2428 14.3729L42.6578 15.7878L41.2435 17.202L39.8286 15.7871Z" fill="#96CC7F"/>
<path d="M2.09607 32H62.0961V58H2.09607V32Z" fill="#96CC7F"/>
<path d="M32.0961 55C37.6189 55 42.0961 50.5228 42.0961 45C42.0961 39.4772 37.6189 35 32.0961 35C26.5732 35 22.0961 39.4772 22.0961 45C22.0961 50.5228 26.5732 55 32.0961 55Z" fill="#78B75B"/>
<path d="M17.0961 58L21.0961 62L25.0961 58" fill="#78B75B"/>
<path d="M33.0963 44H33.0943V40H33.0963C34.1983 40 35.0943 40.897 35.0943 42H37.0943C37.0943 39.794 35.3003 38 33.0963 38H33.0943V37H31.0953V38C28.8893 38 27.0953 39.794 27.0953 42C27.0953 44.205 28.8893 45.999 31.0953 45.999V49.999C29.9913 49.999 29.0953 49.102 29.0953 47.999L27.0953 48C27.0953 50.205 28.8893 51.999 31.0953 51.999V52.999H33.0943V51.999H33.0963C35.3003 51.999 37.0943 50.205 37.0943 47.999C37.0943 45.793 35.3003 44 33.0963 44ZM29.0953 42C29.0953 40.897 29.9913 40 31.0953 40V44C29.9923 44 29.0953 43.102 29.0953 42ZM33.0963 49.999H33.0943V45.999H33.0963C34.1983 45.999 35.0943 46.896 35.0943 48C35.0943 49.102 34.1983 49.999 33.0963 49.999Z" fill="#669E4F"/>
<path d="M58.0943 54.999H46.0953V52.999H57.0943V37H46.0953V35H58.0943C58.6473 35 59.0943 35.447 59.0943 36V54C59.0943 54.552 58.6473 54.999 58.0943 54.999Z" fill="#669E4F"/>
<path d="M18.0951 55H6.09607C5.54307 55 5.09607 54.552 5.09607 54V36C5.09607 35.447 5.54307 35 6.09507 35H18.0951L18.0961 37H7.09607V53H18.0951V55Z" fill="#669E4F"/>
<path d="M46.0953 49H48.0943V51H46.0953V49Z" fill="#78B75B"/>
<path d="M50.0953 49H52.0943V51H50.0953V49Z" fill="#78B75B"/>
<path d="M46.0953 39H48.0943V41H46.0953V39Z" fill="#78B75B"/>
<path d="M50.0953 39H52.0943V41H50.0953V39Z" fill="#78B75B"/>
<path d="M12.0961 39H14.0951V41H12.0961V39Z" fill="#78B75B"/>
<path d="M16.0961 39H18.0951V41H16.0961V39Z" fill="#78B75B"/>
<path d="M12.0961 49H14.0951V51H12.0961V49Z" fill="#78B75B"/>
<path d="M16.0961 49H18.0951V51H16.0961V49Z" fill="#78B75B"/>
<path d="M62.0951 30.999H53.5101L62.8031 21.707C62.9911 21.519 63.0951 21.265 63.0961 21C63.0961 20.734 62.9911 20.48 62.8031 20.292L43.8031 1.29201C43.4121 0.901012 42.7791 0.903012 42.3881 1.29201L12.6801 30.999H2.09412C1.54212 30.999 1.09412 31.447 1.09412 31.999V57.999C1.09412 58.551 1.54212 58.999 2.09412 58.999H16.6801L20.3871 62.706C20.5761 62.894 20.8301 63 21.0961 62.999C21.3611 62.999 21.6161 62.894 21.8031 62.707L25.5101 59H62.0951C62.6471 59 63.0951 58.552 63.0951 58V32C63.0951 31.447 62.6471 30.999 62.0951 30.999ZM43.0951 3.41401L60.6811 20.999L50.6811 30.999H43.0461C42.8171 28.438 41.7141 26.061 39.8741 24.221C35.5841 19.933 28.6061 19.933 24.3181 24.221C22.4771 26.061 21.3731 28.439 21.1451 30.999H15.5111L43.0951 3.41401ZM27.3221 30.999C27.1871 30.35 27.3691 29.655 27.8521 29.172L29.6791 30.999H27.3221ZM38.1091 30.999C37.9991 30.854 37.8811 30.715 37.7511 30.585C36.2411 29.074 33.6051 29.074 32.0961 30.585L29.2671 27.756C30.0481 26.977 31.3151 26.977 32.0961 27.757L33.5091 26.342C31.9511 24.784 29.4131 24.783 27.8531 26.342L27.1461 25.635L25.7311 27.05L26.4391 27.758C25.5601 28.636 25.1711 29.827 25.2961 31H23.1561C23.3781 28.975 24.2701 27.099 25.7331 25.637C29.2411 22.127 34.9511 22.128 38.4611 25.637C39.9221 27.098 40.8141 28.975 41.0371 31H38.1091V30.999ZM21.0951 60.585L19.5101 59H22.6801L21.0951 60.585ZM61.0951 57H3.09412V33H61.0951V57Z" fill="black"/>
<path d="M29.0953 47.999L27.0953 48C27.0953 50.205 28.8893 51.999 31.0953 51.999V52.999H33.0943V51.999H33.0963C35.3003 51.999 37.0943 50.205 37.0943 47.999C37.0943 45.793 35.3003 43.999 33.0963 43.999H33.0943V39.999H33.0963C34.1983 39.999 35.0943 40.896 35.0943 41.999H37.0943C37.0943 39.793 35.3003 37.999 33.0963 37.999H33.0943V36.999H31.0953V37.999C28.8893 37.999 27.0953 39.793 27.0953 41.999C27.0953 44.204 28.8893 45.998 31.0953 45.998V49.998C29.9923 49.999 29.0953 49.102 29.0953 47.999ZM29.0953 42C29.0953 40.897 29.9913 40 31.0953 40V44C29.9923 44 29.0953 43.102 29.0953 42ZM33.0943 45.999H33.0963C34.1983 45.999 35.0943 46.896 35.0943 48C35.0943 49.102 34.1983 49.999 33.0963 49.999H33.0943V45.999Z" fill="black"/>
<path d="M32.0951 55.999C38.1591 55.999 43.0941 51.064 43.0941 44.999C43.0941 38.934 38.1591 33.999 32.0951 33.999C26.0301 34 21.0961 38.934 21.0961 45C21.0961 51.064 26.0301 55.999 32.0951 55.999ZM32.0951 36C37.0571 36 41.0941 40.037 41.0941 45C41.0941 49.962 37.0571 54 32.0951 54C27.1321 54 23.0961 49.963 23.0961 45C23.0961 40.037 27.1321 36 32.0951 36Z" fill="black"/>
<path d="M59.0943 53.999V36C59.0943 35.447 58.6473 35 58.0943 35H46.0953V37H57.0943V53H46.0953V55H58.0943C58.6473 54.999 59.0943 54.552 59.0943 53.999Z" fill="black"/>
<path d="M6.09607 55H18.0951V53H7.09607V37H18.0961L18.0951 35H6.09507C5.54307 35 5.09607 35.447 5.09607 36V54C5.09607 54.552 5.54307 55 6.09607 55Z" fill="black"/>
<path d="M46.0953 49H48.0943V51H46.0953V49Z" fill="black"/>
<path d="M50.0953 49H52.0943V51H50.0953V49Z" fill="black"/>
<path d="M46.0953 39H48.0943V41H46.0953V39Z" fill="black"/>
<path d="M50.0953 39H52.0943V41H50.0953V39Z" fill="black"/>
<path d="M43.3671 9.4139L54.6801 20.7279L46.9021 28.5059L48.3171 29.9209L56.8021 21.4359C56.9901 21.2479 57.0941 20.9939 57.0941 20.7279C57.0941 20.4629 56.9901 20.2079 56.8021 20.0209L44.0751 7.2919C43.6841 6.9009 43.0511 6.9019 42.6601 7.2919L34.1751 15.7769L35.5901 17.1919L43.3671 9.4139Z" fill="black"/>
<path d="M44.0688 25.6875L45.483 24.2733L46.8972 25.6875L45.483 27.1017L44.0688 25.6875Z" fill="black"/>
<path d="M46.8949 22.8511L48.3091 21.4369L49.724 22.8518L48.3098 24.266L46.8949 22.8511Z" fill="black"/>
<path d="M37.0269 18.605L38.4429 17.191L39.8561 18.6063L38.4401 20.0203L37.0269 18.605Z" fill="black"/>
<path d="M39.8286 15.7871L41.2428 14.3729L42.6578 15.7878L41.2435 17.202L39.8286 15.7871Z" fill="black"/>
<path d="M12.0961 39H14.0951V41H12.0961V39Z" fill="black"/>
<path d="M16.0961 39H18.0951V41H16.0961V39Z" fill="black"/>
<path d="M12.0961 49H14.0951V51H12.0961V49Z" fill="black"/>
<path d="M16.0961 49H18.0951V51H16.0961V49Z" fill="black"/>
</svg>
