<svg width="65" height="65" viewBox="0 0 65 65" fill="none" xmlns="http://www.w3.org/2000/svg">
<g clip-path="url(#clip0)">
<path d="M42.8283 9.63636H45.6041C45.7801 9.63636 45.9228 9.77911 45.9228 9.95511V26.9489H50.8642V9.95511C50.8642 9.77911 51.0069 9.63636 51.1829 9.63636H53.8591C54.1192 9.63636 54.2698 9.34161 54.1173 9.13074L48.6497 1.56949C48.5231 1.39436 48.2627 1.39336 48.1346 1.56736L42.5716 9.12861C42.4167 9.33911 42.5669 9.63636 42.8283 9.63636Z" fill="#05E39C"/>
<path d="M45.2438 9.61961L49.8974 3.29461L48.6499 1.56949C48.5232 1.39436 48.2629 1.39336 48.1347 1.56736L42.5717 9.12861C42.4168 9.33911 42.5672 9.63636 42.8285 9.63636H45.2334C45.237 9.63074 45.2398 9.62511 45.2438 9.61961Z" fill="#0ED290"/>
<path d="M11.2352 29.9108H14.0109C14.1869 29.9108 14.3297 30.0535 14.3297 30.2295V45.4403C15.6048 44.8029 17.0413 44.442 18.5612 44.442C18.8002 44.442 19.0364 44.4539 19.271 44.4713V30.2295C19.271 30.0535 19.4138 29.9108 19.5898 29.9108H22.2659C22.526 29.9108 22.6767 29.616 22.5243 29.4052L17.0565 21.8439C16.9299 21.6688 16.6695 21.6678 16.5414 21.8418L10.9784 29.403C10.8235 29.6137 10.9738 29.9108 11.2352 29.9108Z" fill="#FD5426"/>
<path d="M18.2134 23.4437L17.0565 21.8439C16.9299 21.6688 16.6695 21.6678 16.5414 21.8418L10.9784 29.403C10.8235 29.6135 10.9738 29.9108 11.2351 29.9108H13.4553L18.2134 23.4437Z" fill="#EF4424"/>
<path d="M27.032 19.4357H29.8077C29.9837 19.4357 30.1265 19.5784 30.1265 19.7544V41.6998H35.0679V19.7544C35.0679 19.5783 35.2106 19.4357 35.3866 19.4357H38.0627C38.3229 19.4357 38.4735 19.1409 38.3211 18.9301L32.8534 11.3688C32.7267 11.1937 32.4664 11.1927 32.3382 11.3667L26.7752 18.9279C26.6202 19.1384 26.7706 19.4357 27.032 19.4357Z" fill="#01D0FB"/>
<path d="M33.9999 12.9546L32.8531 11.3688C32.7265 11.1937 32.4661 11.1927 32.338 11.3667L26.775 18.9279C26.6201 19.1384 26.7704 19.4357 27.0317 19.4357H29.2315L33.9999 12.9546Z" fill="#01C0FA"/>
<path d="M54.7738 56.3262H40.1214C40.0426 56.3262 39.9658 56.3343 39.8906 56.3469C40.5438 56.457 41.0421 57.0238 41.0421 57.7084V59.8608C41.0421 60.5454 40.5439 61.1122 39.8906 61.2223C39.9658 61.2349 40.0426 61.243 40.1214 61.243H54.7738C55.5372 61.243 56.1561 60.6242 56.1561 59.8608V57.7084C56.1562 56.945 55.5372 56.3262 54.7738 56.3262Z" fill="#FEDF30"/>
<path d="M54.7738 51.4092H40.1214C40.0426 51.4092 39.9658 51.4173 39.8906 51.4299C40.5438 51.5401 41.0421 52.1068 41.0421 52.7914V54.9438C41.0421 55.6284 40.5439 56.1952 39.8906 56.3053C39.9658 56.3179 40.0426 56.3261 40.1214 56.3261H54.7738C55.5372 56.3261 56.1561 55.7072 56.1561 54.9438V52.7914C56.1562 52.0281 55.5372 51.4092 54.7738 51.4092Z" fill="#FAC600"/>
<path d="M54.7738 46.4922H40.1214C40.0426 46.4922 39.9658 46.5003 39.8906 46.5129C40.5438 46.6231 41.0421 47.1898 41.0421 47.8744V50.0269C41.0421 50.7116 40.5439 51.2783 39.8906 51.3884C39.9658 51.4011 40.0426 51.4092 40.1214 51.4092H54.7738C55.5372 51.4092 56.1561 50.7903 56.1561 50.0269V47.8744C56.1562 47.1111 55.5372 46.4922 54.7738 46.4922Z" fill="#FEDF30"/>
<path d="M43.9226 50.0268V47.8744C43.9226 47.1111 44.5414 46.4922 45.3048 46.4922H40.1214C40.0426 46.4922 39.9658 46.5003 39.8906 46.5129C40.5438 46.6231 41.0421 47.1898 41.0421 47.8744V50.0269C41.0421 50.7116 40.5439 51.2783 39.8906 51.3884C39.9658 51.4011 40.0426 51.4092 40.1214 51.4092H45.3048C44.5414 51.4092 43.9226 50.7903 43.9226 50.0268Z" fill="#FED402"/>
<path d="M43.9226 54.9438V52.7914C43.9226 52.0281 44.5414 51.4092 45.3048 51.4092H40.1214C40.0426 51.4092 39.9658 51.4173 39.8906 51.4299C40.5438 51.5401 41.0421 52.1068 41.0421 52.7914V54.9438C41.0421 55.6284 40.5439 56.1952 39.8906 56.3053C39.9658 56.3179 40.0426 56.3261 40.1214 56.3261H45.3048C44.5414 56.3261 43.9226 55.7072 43.9226 54.9438Z" fill="#E8B800"/>
<path d="M43.9226 59.8613V57.7089C43.9226 56.9455 44.5414 56.3267 45.3048 56.3267H40.1214C40.0426 56.3267 39.9658 56.3348 39.8906 56.3474C40.5438 56.4575 41.0421 57.0243 41.0421 57.7089V59.8613C41.0421 60.5459 40.5439 61.1127 39.8906 61.2228C39.9658 61.2354 40.0426 61.2435 40.1214 61.2435H45.3048C44.5414 61.2435 43.9226 60.6247 43.9226 59.8613Z" fill="#FED402"/>
<path d="M54.7738 41.5752H40.1214C40.0426 41.5752 39.9658 41.5833 39.8906 41.5959C40.5438 41.7061 41.0421 42.2728 41.0421 42.9574V45.1098C41.0421 45.7944 40.5439 46.3612 39.8906 46.4713C39.9658 46.4839 40.0426 46.4921 40.1214 46.4921H54.7738C55.5372 46.4921 56.1561 45.8732 56.1561 45.1098V42.9574C56.1562 42.1941 55.5372 41.5752 54.7738 41.5752Z" fill="#FAC600"/>
<path d="M43.9226 45.1098V42.9574C43.9226 42.1941 44.5414 41.5752 45.3048 41.5752H40.1214C40.0426 41.5752 39.9658 41.5833 39.8906 41.5959C40.5438 41.7061 41.0421 42.2728 41.0421 42.9574V45.1098C41.0421 45.7944 40.5439 46.3612 39.8906 46.4713C39.9658 46.4839 40.0426 46.4921 40.1214 46.4921H45.3048C44.5414 46.4921 43.9226 45.8732 43.9226 45.1098Z" fill="#E8B800"/>
<path d="M40.1214 41.5751H54.7738C55.5371 41.5751 56.156 40.9562 56.156 40.1928V38.0405C56.156 37.2771 55.5371 36.6582 54.7738 36.6582H40.1214C39.358 36.6582 38.7391 37.2771 38.7391 38.0405V40.1928C38.7391 40.9562 39.358 41.5751 40.1214 41.5751Z" fill="#FEDF30"/>
<path d="M43.9225 40.1928V38.0405C43.9225 37.2771 44.5414 36.6582 45.3048 36.6582H40.1214C39.358 36.6582 38.7391 37.2771 38.7391 38.0405V40.1928C38.7391 40.9562 39.358 41.5751 40.1214 41.5751H45.3048C44.5414 41.5751 43.9225 40.9562 43.9225 40.1928Z" fill="#FED402"/>
<path d="M40.1214 36.6581H54.7738C55.5371 36.6581 56.156 36.0392 56.156 35.2758V33.1235C56.156 32.3601 55.5371 31.7412 54.7738 31.7412H40.1214C39.358 31.7412 38.7391 32.3601 38.7391 33.1235V35.2758C38.7391 36.0392 39.358 36.6581 40.1214 36.6581Z" fill="#FAC600"/>
<path d="M43.9225 35.2758V33.1235C43.9225 32.3601 44.5414 31.7412 45.3048 31.7412H40.1214C39.358 31.7412 38.7391 32.3601 38.7391 33.1235V35.2758C38.7391 36.0392 39.358 36.6581 40.1214 36.6581H45.3048C44.5414 36.6582 43.9225 36.0393 43.9225 35.2758Z" fill="#E8B800"/>
<path d="M40.1214 31.7412H54.7738C55.5371 31.7412 56.156 31.1223 56.156 30.359V28.2065C56.156 27.4431 55.5371 26.8242 54.7738 26.8242H40.1214C39.358 26.8242 38.7391 27.4431 38.7391 28.2065V30.3588C38.7391 31.1223 39.358 31.7412 40.1214 31.7412Z" fill="#FEDF30"/>
<path d="M43.9225 30.3588V28.2065C43.9225 27.4431 44.5414 26.8242 45.3048 26.8242H40.1214C39.358 26.8242 38.7391 27.4431 38.7391 28.2065V30.3588C38.7391 31.1222 39.358 31.7411 40.1214 31.7411H45.3048C44.5414 31.7412 43.9225 31.1223 43.9225 30.3588Z" fill="#FED402"/>
<path d="M39.6597 56.3262H27.8855C27.3909 58.2644 26.3065 59.9654 24.8367 61.2315C24.8927 61.2384 24.9494 61.2432 25.0073 61.2432H39.6597C40.4231 61.2432 41.0419 60.6243 41.0419 59.8609V57.7085C41.042 56.945 40.4232 56.3262 39.6597 56.3262Z" fill="#E8B800"/>
<path d="M41.0419 50.0269V47.8744C41.0419 47.1111 40.4231 46.4922 39.6597 46.4922H25.0072C24.9007 46.4922 24.7976 46.5053 24.6981 46.5282C26.8276 48.2932 28.1842 50.9581 28.1842 53.9399C28.1842 54.7637 28.0802 55.5632 27.8856 56.3263H39.6597C40.4231 56.3263 41.0419 55.7074 41.0419 54.9441V52.7917C41.0419 52.0283 40.4231 51.4094 39.6597 51.4094C40.4231 51.4093 41.0419 50.7904 41.0419 50.0269Z" fill="#E8B800"/>
<path d="M28.7975 59.8608V57.7084C28.7975 56.945 29.4163 56.3262 30.1797 56.3262H27.8856C27.391 58.2644 26.3066 59.9654 24.8367 61.2315C24.8927 61.2384 24.9495 61.2432 25.0073 61.2432H30.1798C29.4163 61.2431 28.7975 60.6242 28.7975 59.8608Z" fill="#D7AA02"/>
<path d="M39.6596 51.4092H27.8454C28.0648 52.2158 28.1841 53.0637 28.1841 53.9399C28.1841 54.7637 28.0801 55.5632 27.8854 56.3263H39.6596C40.4229 56.3263 41.0418 55.7074 41.0418 54.9441V52.7917C41.0419 52.0281 40.4231 51.4092 39.6596 51.4092Z" fill="#FAC600"/>
<path d="M28.7974 50.0269V47.8744C28.7974 47.1111 29.4163 46.4922 30.1797 46.4922H25.0072C24.9007 46.4922 24.7976 46.5053 24.6981 46.5282C26.2018 47.7746 27.3182 49.4706 27.8456 51.4093H30.1798C29.4163 51.4093 28.7974 50.7904 28.7974 50.0269Z" fill="#D7AA02"/>
<path d="M25.0072 46.4921H39.6596C40.423 46.4921 41.0419 45.8732 41.0419 45.1098V42.9574C41.0419 42.1941 40.423 41.5752 39.6596 41.5752H25.0072C24.2439 41.5752 23.625 42.1941 23.625 42.9574V45.1098C23.625 45.8732 24.2439 46.4921 25.0072 46.4921Z" fill="#FAC600"/>
<path d="M28.7975 45.1098V42.9574C28.7975 42.1941 29.4164 41.5752 30.1798 41.5752H25.0072C24.2439 41.5752 23.625 42.1941 23.625 42.9574V45.1098C23.625 45.8732 24.2439 46.4921 25.0072 46.4921H30.1798C29.4164 46.4921 28.7975 45.8732 28.7975 45.1098Z" fill="#E8B800"/>
<path d="M18.5616 63.5629C23.8761 63.5629 28.1843 59.2546 28.1843 53.9401C28.1843 48.6256 23.8761 44.3174 18.5616 44.3174C13.2471 44.3174 8.93884 48.6256 8.93884 53.9401C8.93884 59.2546 13.2471 63.5629 18.5616 63.5629Z" fill="#FED402"/>
<path d="M12.9225 53.9401C12.9225 49.3088 16.1948 45.4426 20.5533 44.525C19.9106 44.3896 19.2446 44.3174 18.5616 44.3174C13.2471 44.3174 8.93884 48.6256 8.93884 53.9401C8.93884 59.2546 13.2471 63.5629 18.5616 63.5629C19.2446 63.5629 19.9106 63.4906 20.5533 63.3553C16.1948 62.4378 12.9225 58.5716 12.9225 53.9401Z" fill="#FAC600"/>
<path d="M57.0935 28.2061C57.0935 26.927 56.0529 25.8862 54.7736 25.8862H51.802V10.5737H53.8594C54.3336 10.5737 54.7624 10.3114 54.9781 9.889C55.1939 9.46663 55.1553 8.9655 54.8773 8.58125L49.4092 1.01975C49.1747 0.69575 48.7961 0.5015 48.3962 0.5C48.0014 0.500875 47.6164 0.69 47.3795 1.01187L41.8166 8.57288C41.5341 8.95662 41.4922 9.45925 41.7072 9.88437C41.9222 10.3096 42.3517 10.5739 42.8284 10.5739H44.9855V25.8864H40.1213C38.8421 25.8864 37.8014 26.927 37.8014 28.2062V30.3587C37.8014 30.877 37.9742 31.3545 38.2626 31.7411C37.9744 32.1278 37.8014 32.6053 37.8014 33.1235V35.2759C37.8014 35.7941 37.9742 36.2716 38.2626 36.6582C37.9744 37.0449 37.8014 37.5224 37.8014 38.0406V40.1931C37.8014 40.3455 37.818 40.4939 37.8465 40.638H36.0052V20.3734H38.0626C38.5369 20.3734 38.9656 20.111 39.1814 19.6886C39.3971 19.2663 39.3585 18.7651 39.0805 18.3809L33.6127 10.8196C33.3785 10.4955 32.9999 10.3011 32.5999 10.2995C32.5981 10.2995 32.5965 10.2995 32.5947 10.2995C32.1967 10.2995 31.8187 10.4905 31.5827 10.8114L26.0199 18.3724C25.7374 18.7561 25.6955 19.2587 25.9105 19.6839C26.1255 20.1091 26.5551 20.3734 27.0316 20.3734H29.1886V40.6375H25.0067C23.7276 40.6375 22.6869 41.6781 22.6869 42.9572V44.2228C21.904 43.8891 21.074 43.645 20.2082 43.5089V30.8484H22.2656C22.7399 30.8484 23.1685 30.586 23.3842 30.1637C23.6001 29.7414 23.5615 29.2402 23.2836 28.8559L17.816 21.295C17.5817 20.9709 17.2032 20.7764 16.8034 20.7746C16.4027 20.7728 16.0231 20.9641 15.7859 21.2864L10.2229 28.8476C9.9405 29.2314 9.89875 29.734 10.1137 30.1591C10.3289 30.5841 10.7584 30.8484 11.2349 30.8484H13.3919V34.125C13.3919 34.6429 13.8116 35.0625 14.3294 35.0625C14.8471 35.0625 15.2669 34.6429 15.2669 34.125V30.2297C15.2669 29.537 14.7032 28.9734 14.0106 28.9734H12.4587L16.7941 23.0807L21.0554 28.9734H19.5901C18.8974 28.9734 18.3339 29.537 18.3339 30.2297V43.3854C17.2655 43.4081 16.236 43.5896 15.2675 43.9085V38.5C15.2675 37.9821 14.8477 37.5625 14.33 37.5625C13.8122 37.5625 13.3925 37.9821 13.3925 38.5V44.7364C10.1781 46.5489 8.00137 49.994 8.00137 53.9398C8.00137 59.7626 12.7386 64.4999 18.5615 64.4999C21.0539 64.4999 23.3456 63.63 25.1539 62.1805H54.7736C56.0527 62.1805 57.0935 61.1399 57.0935 59.8606V57.7081C57.0935 57.1899 56.9206 56.7125 56.6322 56.3259C56.9205 55.9393 57.0935 55.4619 57.0935 54.9436V52.7911C57.0935 52.2729 56.9206 51.7954 56.6322 51.4087C56.9205 51.0221 57.0935 50.5446 57.0935 50.0264V47.874C57.0935 47.3558 56.9206 46.8783 56.6322 46.4916C56.9205 46.105 57.0935 45.6275 57.0935 45.1092V42.9567C57.0935 42.4385 56.9206 41.9611 56.6324 41.5745C56.9206 41.1879 57.0935 40.7105 57.0935 40.1922V38.0397C57.0935 37.5215 56.9206 37.044 56.6322 36.6574C56.9205 36.2708 57.0935 35.7933 57.0935 35.275V33.1226C57.0935 32.6044 56.9206 32.1269 56.6322 31.7402C56.9205 31.3536 57.0935 30.8761 57.0935 30.3579V28.2061ZM44.0519 8.69888L48.3872 2.80612L52.6485 8.69888H51.1833C50.4906 8.69888 49.927 9.2625 49.927 9.95512V25.8864H46.8606V9.95512C46.8606 9.2625 46.297 8.69888 45.6042 8.69888H44.0519ZM28.2552 18.4984L32.5906 12.6056L36.8517 18.4984H35.3866C34.6939 18.4984 34.1302 19.062 34.1302 19.7546V40.6375H31.0639V19.7546C31.0639 19.062 30.5002 18.4984 29.8076 18.4984H28.2552ZM18.5615 62.625C13.7725 62.625 9.87637 58.7289 9.87637 53.9399C9.87637 49.1509 13.7725 45.2547 18.5615 45.2547C23.3505 45.2547 27.2466 49.1509 27.2466 53.9399C27.2466 58.7289 23.3505 62.625 18.5615 62.625ZM40.1044 59.8609C40.1044 60.1061 39.9047 60.3058 39.6595 60.3058H26.9804C27.6705 59.3954 28.2147 58.3696 28.5826 57.2637H39.6595C39.9047 57.2637 40.1044 57.4632 40.1044 57.7085V59.8609ZM40.1044 50.0267C40.1044 50.272 39.9047 50.4716 39.6595 50.4716H36.0474C35.5295 50.4716 35.1099 50.8913 35.1099 51.4091C35.1099 51.927 35.5295 52.3466 36.0474 52.3466H39.6595C39.9047 52.3466 40.1044 52.5462 40.1044 52.7915V54.944C40.1044 55.1893 39.9047 55.3889 39.6595 55.3889H29.0197C29.0851 54.9149 29.1216 54.4317 29.1216 53.94C29.1216 53.3982 29.0785 52.8667 28.9994 52.3467H31.6724C32.1901 52.3467 32.6099 51.9271 32.6099 51.4092C32.6099 50.8914 32.1901 50.4717 31.6724 50.4717H28.534C28.147 49.3625 27.5815 48.3364 26.8694 47.4297H39.6595C39.9047 47.4297 40.1044 47.6294 40.1044 47.8746V50.0267ZM40.1044 45.1097C40.1044 45.355 39.9047 45.5546 39.6595 45.5546H25.0071C24.9924 45.5546 24.9785 45.5516 24.9641 45.5503C24.8437 45.4581 24.7214 45.3688 24.597 45.2817C24.5747 45.2287 24.5622 45.1707 24.5622 45.1097V42.9572C24.5622 42.712 24.7617 42.5125 25.0071 42.5125H39.6595C39.9047 42.5125 40.1044 42.712 40.1044 42.9572V45.1097ZM55.2185 59.8609C55.2185 60.1061 55.0189 60.3058 54.7736 60.3058H41.9355C41.9636 60.1616 41.9794 60.0131 41.9794 59.8609V57.7084C41.9794 57.556 41.9627 57.4078 41.9344 57.2636H54.7736C55.0189 57.2636 55.2185 57.4631 55.2185 57.7084V59.8609ZM55.2185 54.9439C55.2185 55.1891 55.0189 55.3887 54.7736 55.3887H41.9342C41.9627 55.2446 41.9794 55.0964 41.9794 54.9439V52.7914C41.9794 52.639 41.9627 52.4906 41.9342 52.3465H54.7736C55.0189 52.3465 55.2185 52.5461 55.2185 52.7914V54.9439ZM55.2185 50.0267C55.2185 50.272 55.0189 50.4716 54.7736 50.4716H41.9342C41.9627 50.3275 41.9794 50.1792 41.9794 50.0267V47.8744C41.9794 47.722 41.9627 47.5736 41.9342 47.4295H54.7736C55.0189 47.4295 55.2185 47.6291 55.2185 47.8744V50.0267ZM55.2185 40.1927C55.2185 40.4377 55.0194 40.637 54.7745 40.6375C54.7742 40.6375 54.774 40.6375 54.7738 40.6375H52.4224C51.9045 40.6375 51.4849 41.0571 51.4849 41.575C51.4849 42.0929 51.9045 42.5125 52.4224 42.5125H54.7712C54.772 42.5125 54.7729 42.5126 54.7736 42.5126H54.7744C55.0193 42.5131 55.2184 42.7124 55.2184 42.9574V45.1099C55.2184 45.3551 55.0187 45.5547 54.7735 45.5547H41.9342C41.9627 45.4106 41.9794 45.2624 41.9794 45.1099V42.9574C41.9794 42.8051 41.9636 42.6566 41.9355 42.5125H48.0474C48.5653 42.5125 48.9849 42.0929 48.9849 41.575C48.9849 41.0571 48.5653 40.6375 48.0474 40.6375H40.1214C40.1211 40.6375 40.1209 40.6375 40.1206 40.6375C39.8757 40.637 39.6766 40.4377 39.6766 40.1927V38.0402C39.6766 37.795 39.8762 37.5954 40.1215 37.5954H54.7736C55.0189 37.5954 55.2185 37.795 55.2185 38.0402V40.1927ZM55.2185 35.2756C55.2185 35.5209 55.0189 35.7205 54.7736 35.7205H40.1214C39.8761 35.7205 39.6765 35.5209 39.6765 35.2756V33.1232C39.6765 32.878 39.8761 32.6784 40.1214 32.6784H54.7736C55.0189 32.6784 55.2185 32.878 55.2185 33.1232V35.2756ZM55.2185 30.3586C55.2185 30.6039 55.0189 30.8035 54.7736 30.8035H40.1214C39.8761 30.8035 39.6765 30.6039 39.6765 30.3586V28.2061C39.6765 27.9609 39.8761 27.7612 40.1214 27.7612H54.7736C55.0189 27.7612 55.2185 27.9609 55.2185 28.2061V30.3586Z" fill="black"/>
<path d="M19.5917 53.0024H17.531C17.02 53.0024 16.6042 52.5866 16.6042 52.0755C16.6042 51.5645 17.0199 51.1487 17.531 51.1487H21.1615C21.6793 51.1487 22.099 50.7291 22.099 50.2112C22.099 49.6934 21.6793 49.2737 21.1615 49.2737H19.4988V48.2979C19.4988 47.78 19.079 47.3604 18.5613 47.3604C18.0435 47.3604 17.6238 47.78 17.6238 48.2979V49.2737H17.531C15.9862 49.2737 14.7292 50.5306 14.7292 52.0755C14.7292 53.6204 15.986 54.8774 17.531 54.8774H19.5915C20.1025 54.8774 20.5184 55.2931 20.5184 55.8041C20.5184 56.3152 20.1027 56.731 19.5915 56.731H15.9612C15.4434 56.731 15.0237 57.1506 15.0237 57.6685C15.0237 58.1864 15.4434 58.606 15.9612 58.606H17.6238V59.5819C17.6238 60.0997 18.0435 60.5194 18.5613 60.5194C19.079 60.5194 19.4988 60.0997 19.4988 59.5819V58.606H19.5915C21.1364 58.606 22.3934 57.349 22.3934 55.8041C22.3934 54.2592 21.1365 53.0024 19.5917 53.0024Z" fill="black"/>
</g>
<defs>
<clipPath id="clip0">
<rect width="64" height="64" fill="white" transform="translate(0.547363 0.5)"/>
</clipPath>
</defs>
</svg>
