<svg width="65" height="65" viewBox="0 0 65 65" fill="none" xmlns="http://www.w3.org/2000/svg">
<path d="M6.54736 31.31V14.5C6.54736 11.8478 7.60093 9.3043 9.4763 7.42893C11.3517 5.55357 13.8952 4.5 16.5474 4.5C19.1995 4.5 21.7431 5.55357 23.6184 7.42893C25.4938 9.3043 26.5474 11.8478 26.5474 14.5V31.5" fill="#C6C5CA"/>
<path d="M26.5474 14.4999V31.4999L22.5474 31.4599V14.4999C22.5449 12.1985 21.7503 9.968 20.2971 8.18336C18.8439 6.39872 16.8206 5.16868 14.5674 4.69993C16.0191 4.4067 17.5177 4.43956 18.9551 4.79614C20.3925 5.15271 21.7328 5.8241 22.8791 6.7618C24.0254 7.69951 24.9491 8.88011 25.5835 10.2183C26.2179 11.5565 26.5471 13.019 26.5474 14.4999Z" fill="#898890"/>
<path d="M29.5474 36.5V40.5C29.5458 41.0299 29.3346 41.5377 28.9598 41.9125C28.5851 42.2872 28.0773 42.4984 27.5474 42.5H5.54736C5.01742 42.4984 4.50963 42.2872 4.1349 41.9125C3.76017 41.5377 3.54895 41.0299 3.54736 40.5V36.5C3.54974 34.9094 4.18265 33.3847 5.30735 32.26C6.43205 31.1353 7.9568 30.5024 9.54736 30.5H23.5474C25.1387 30.5 26.6648 31.1321 27.79 32.2574C28.9152 33.3826 29.5474 34.9087 29.5474 36.5Z" fill="#FF6243"/>
<path d="M61.5474 36.5V40.5C61.5458 41.0299 61.3346 41.5377 60.9598 41.9125C60.5851 42.2872 60.0773 42.4984 59.5474 42.5H37.5474C37.0174 42.4984 36.5096 42.2872 36.1349 41.9125C35.7602 41.5377 35.5489 41.0299 35.5474 40.5V36.5C35.5497 34.9094 36.1826 33.3847 37.3074 32.26C38.4321 31.1353 39.9568 30.5024 41.5474 30.5H55.5474C57.1387 30.5 58.6648 31.1321 59.79 32.2574C60.9152 33.3826 61.5474 34.9087 61.5474 36.5Z" fill="#00B6BD"/>
<path d="M61.5474 36.5V40.5C61.5458 41.0299 61.3346 41.5377 60.9598 41.9125C60.5851 42.2872 60.0773 42.4984 59.5474 42.5H55.5474C56.0773 42.4984 56.5851 42.2872 56.9598 41.9125C57.3346 41.5377 57.5458 41.0299 57.5474 40.5V36.5C57.5474 34.9087 56.9152 33.3826 55.79 32.2574C54.6648 31.1321 53.1387 30.5 51.5474 30.5H55.5474C57.1387 30.5 58.6648 31.1321 59.79 32.2574C60.9152 33.3826 61.5474 34.9087 61.5474 36.5Z" fill="#007579"/>
<path d="M57.5474 4.5V8.5C57.5478 9.55248 57.2707 10.5865 56.744 11.4977C56.2173 12.4089 55.4596 13.1651 54.5474 13.69V12.5L46.5474 10.5L42.5474 12.5V14.5H41.5474C41.0174 14.4984 40.5096 14.2872 40.1349 13.9125C39.7602 13.5377 39.5489 13.0299 39.5474 12.5V10.5C39.5474 8.9087 40.1795 7.38258 41.3047 6.25736C42.4299 5.13214 43.9561 4.5 45.5474 4.5H57.5474Z" fill="#C0AB91"/>
<path d="M54.5474 12.5V18.5C54.5478 19.5525 54.2707 20.5865 53.744 21.4977C53.2173 22.4089 52.4596 23.1651 51.5474 23.69C50.6366 24.2205 49.6014 24.4999 48.5474 24.4999C47.4933 24.4999 46.4582 24.2205 45.5474 23.69C44.6351 23.1651 43.8774 22.4089 43.3507 21.4977C42.824 20.5865 42.5469 19.5525 42.5474 18.5V12.5L46.5474 10.5L54.5474 12.5Z" fill="#FFDAAA"/>
<path d="M45.5474 55.5V59.5C45.5458 60.0299 45.3346 60.5377 44.9598 60.9125C44.5851 61.2872 44.0773 61.4984 43.5474 61.5H21.5474C21.0174 61.4984 20.5096 61.2872 20.1349 60.9125C19.7602 60.5377 19.5489 60.0299 19.5474 59.5V55.5C19.5497 53.9094 20.1826 52.3847 21.3074 51.26C22.4321 50.1353 23.9568 49.5024 25.5474 49.5H39.5474C41.1387 49.5 42.6648 50.1321 43.79 51.2574C44.9152 52.3826 45.5474 53.9087 45.5474 55.5Z" fill="#2488FF"/>
<path d="M41.5474 23.5001V27.5001C41.5455 28.5521 41.2674 29.5852 40.7409 30.496C40.2144 31.4068 39.458 32.1634 38.5474 32.6901V31.5001L30.5474 29.5001L26.5474 31.5001V33.5001H25.5474C25.0174 33.4985 24.5096 33.2873 24.1349 32.9125C23.7602 32.5378 23.5489 32.03 23.5474 31.5001V29.5001C23.5469 28.4476 23.824 27.4136 24.3507 26.5024C24.8774 25.5912 25.6351 24.835 26.5474 24.3101C27.4562 23.7749 28.4927 23.495 29.5474 23.5001H41.5474Z" fill="#FFDE55"/>
<path d="M41.5475 23.5V27.5C41.5456 28.552 41.2675 29.5851 40.741 30.4959C40.2146 31.4067 39.4582 32.1633 38.5475 32.69V31.5L37.2775 31.18C37.4288 30.9847 37.5691 30.7811 37.6975 30.57C38.2547 29.643 38.5486 28.5816 38.5475 27.5V23.5H41.5475Z" fill="#EBBF00"/>
<path d="M39.5474 49.4999L32.5474 53.4999L25.5474 49.4999L29.5474 46.4999V42.6899C30.4582 43.2204 31.4933 43.4999 32.5474 43.4999C33.6014 43.4999 34.6366 43.2204 35.5474 42.6899V46.4999L39.5474 49.4999Z" fill="#FFDAAA"/>
<path d="M35.5474 42.6899V45.6899C34.6366 46.2204 33.6014 46.4999 32.5474 46.4999C31.4933 46.4999 30.4582 46.2204 29.5474 45.6899V42.6899C30.4582 43.2204 31.4933 43.4999 32.5474 43.4999C33.6014 43.4999 34.6366 43.2204 35.5474 42.6899Z" fill="#FFB655"/>
<path d="M38.5474 31.5V37.5C38.5476 38.3823 38.3532 39.2537 37.9781 40.0523C37.6031 40.8508 37.0565 41.5568 36.3774 42.12C35.2964 43.0033 33.9433 43.4858 32.5474 43.4858C31.1514 43.4858 29.7983 43.0033 28.7174 42.12C28.0382 41.5568 27.4917 40.8508 27.1166 40.0523C26.7415 39.2537 26.5472 38.3823 26.5474 37.5V31.5L30.5474 29.5L38.5474 31.5Z" fill="#FFDAAA"/>
<path d="M38.5474 31.5V37.5C38.5476 38.3823 38.3532 39.2537 37.9781 40.0523C37.6031 40.8508 37.0565 41.5568 36.3774 42.12C35.2949 43.0024 33.9439 43.4892 32.5474 43.5C32.0415 43.4985 31.5377 43.4347 31.0474 43.31C31.5731 43.1722 32.0777 42.9636 32.5474 42.69C32.84 42.5243 33.1177 42.3336 33.3774 42.12C34.0565 41.5568 34.6031 40.8508 34.9781 40.0523C35.3532 39.2537 35.5476 38.3823 35.5474 37.5V31.5L29.5474 30L30.5474 29.5L38.5474 31.5Z" fill="#FFB655"/>
<path d="M23.5474 30.4999L16.5474 34.4999L9.54736 30.4999L13.5474 27.4999V23.6899C14.4582 24.2204 15.4933 24.4999 16.5474 24.4999C17.6014 24.4999 18.6366 24.2204 19.5474 23.6899V27.4999L23.5474 30.4999Z" fill="#FFDAAA"/>
<path d="M22.5474 12.5V18.5C22.5478 19.5525 22.2707 20.5865 21.744 21.4977C21.2173 22.4089 20.4596 23.1651 19.5474 23.69C18.6366 24.2205 17.6014 24.4999 16.5474 24.4999C15.4933 24.4999 14.4582 24.2205 13.5474 23.69C12.6351 23.1651 11.8774 22.4089 11.3507 21.4977C10.824 20.5865 10.5469 19.5525 10.5474 18.5V12.5L14.5474 10.5L22.5474 12.5Z" fill="#FFDAAA"/>
<path d="M55.5474 30.4999L48.5474 34.4999L41.5474 30.4999L45.5474 27.4999V23.6899C46.4582 24.2204 47.4933 24.4999 48.5474 24.4999C49.6014 24.4999 50.6366 24.2204 51.5474 23.6899V27.4999L55.5474 30.4999Z" fill="#FFDAAA"/>
<path d="M57.5475 4.5V8.5C57.5456 9.55201 57.2675 10.5851 56.741 11.4959C56.2146 12.4067 55.4582 13.1633 54.5475 13.69V12.5L53.2775 12.18C53.4288 11.9847 53.5691 11.7811 53.6975 11.57C54.2547 10.643 54.5486 9.58158 54.5475 8.5V4.5H57.5475Z" fill="#A78966"/>
<path d="M51.5474 23.6899V26.6899C50.6366 27.2204 49.6014 27.4999 48.5474 27.4999C47.4933 27.4999 46.4582 27.2204 45.5474 26.6899V23.6899C46.4582 24.2204 47.4933 24.4999 48.5474 24.4999C49.6014 24.4999 50.6366 24.2204 51.5474 23.6899Z" fill="#FFB655"/>
<path d="M54.5474 12.5V18.5C54.5476 19.3823 54.3532 20.2537 53.9781 21.0523C53.6031 21.8508 53.0565 22.5568 52.3774 23.12C51.2949 24.0024 49.9439 24.4892 48.5474 24.5C48.0415 24.4985 47.5377 24.4346 47.0474 24.31C47.5731 24.1722 48.0777 23.9636 48.5474 23.69C48.84 23.5243 49.1177 23.3336 49.3774 23.12C50.0565 22.5568 50.6031 21.8508 50.9781 21.0523C51.3532 20.2537 51.5476 19.3823 51.5474 18.5V12.5L45.5474 11L46.5474 10.5L54.5474 12.5Z" fill="#FFB655"/>
<path d="M19.5474 23.6899V26.6899C18.6366 27.2204 17.6014 27.4999 16.5474 27.4999C15.4933 27.4999 14.4582 27.2204 13.5474 26.6899V23.6899C14.4582 24.2204 15.4933 24.4999 16.5474 24.4999C17.6014 24.4999 18.6366 24.2204 19.5474 23.6899Z" fill="#FFB655"/>
<path d="M22.5474 12.5V18.5C22.5476 19.3823 22.3532 20.2537 21.9781 21.0523C21.6031 21.8508 21.0565 22.5568 20.3774 23.12C19.2949 24.0024 17.9439 24.4892 16.5474 24.5C16.0415 24.4985 15.5377 24.4346 15.0474 24.31C15.5731 24.1722 16.0777 23.9636 16.5474 23.69C16.84 23.5243 17.1177 23.3336 17.3774 23.12C18.0565 22.5568 18.6031 21.8508 18.9781 21.0523C19.3532 20.2537 19.5476 19.3823 19.5474 18.5V12.5L13.5474 11L14.5474 10.5L22.5474 12.5Z" fill="#FFB655"/>
<path d="M55.5474 54.5C55.5474 54.7652 55.442 55.0196 55.2545 55.2071C55.0669 55.3946 54.8126 55.5 54.5474 55.5H48.5474V57.5H54.5474C55.343 57.5 56.1061 57.1839 56.6687 56.6213C57.2313 56.0587 57.5474 55.2956 57.5474 54.5V49.5H55.5474V54.5Z" fill="black"/>
<path d="M55.5474 45.5H57.5474V47.5H55.5474V45.5Z" fill="black"/>
<path d="M9.54736 54.5V49.5H7.54736V54.5C7.54736 55.2956 7.86343 56.0587 8.42604 56.6213C8.98865 57.1839 9.75171 57.5 10.5474 57.5H16.5474V55.5H10.5474C10.2821 55.5 10.0278 55.3946 9.84026 55.2071C9.65272 55.0196 9.54736 54.7652 9.54736 54.5Z" fill="black"/>
<path d="M7.54736 45.5H9.54736V47.5H7.54736V45.5Z" fill="black"/>
<path d="M13.5474 14.5H15.5474V16.5H13.5474V14.5Z" fill="black"/>
<path d="M17.5474 14.5H19.5474V16.5H17.5474V14.5Z" fill="black"/>
<path d="M45.5474 14.5H47.5474V16.5H45.5474V14.5Z" fill="black"/>
<path d="M49.5474 14.5H51.5474V16.5H49.5474V14.5Z" fill="black"/>
<path d="M29.5474 33.5H31.5474V35.5H29.5474V33.5Z" fill="black"/>
<path d="M33.5474 33.5H35.5474V35.5H33.5474V33.5Z" fill="black"/>
<path d="M22.5474 56.5H24.5474V58.5H22.5474V56.5Z" fill="black"/>
<path d="M26.5474 56.5H38.5474V58.5H26.5474V56.5Z" fill="black"/>
<path d="M55.9074 29.52L52.5474 27V24.24C53.4722 23.595 54.2278 22.7365 54.7501 21.7372C55.2723 20.738 55.5458 19.6275 55.5474 18.5V14.22C56.4712 13.5787 57.2264 12.7237 57.7487 11.7278C58.2711 10.7319 58.5451 9.62457 58.5474 8.5V4.5C58.5474 4.23478 58.4421 3.98043 58.2545 3.79289C58.067 3.60536 57.8126 3.5 57.5474 3.5H45.5474C43.6916 3.50212 41.9123 4.2403 40.6 5.55259C39.2877 6.86489 38.5495 8.64413 38.5474 10.5V12.5C38.5498 13.2949 38.8666 14.0566 39.4287 14.6187C39.9908 15.1808 40.7525 15.4976 41.5474 15.5V18.5C41.549 19.6275 41.8225 20.738 42.3448 21.7372C42.867 22.7365 43.6226 23.595 44.5474 24.24V27L42.4574 28.57C42.5126 28.2159 42.5427 27.8583 42.5474 27.5V23.5C42.5474 23.2348 42.4421 22.9804 42.2545 22.7929C42.067 22.6054 41.8126 22.5 41.5474 22.5H29.5474C28.8705 22.5031 28.1973 22.6007 27.5474 22.79V14.5C27.5474 11.5826 26.3885 8.78473 24.3256 6.72183C22.2627 4.65893 19.4648 3.5 16.5474 3.5C13.63 3.5 10.8321 4.65893 8.76925 6.72183C6.70635 8.78473 5.54742 11.5826 5.54742 14.5V30.76C5.2093 30.9923 4.8945 31.2569 4.60742 31.55C3.95086 32.1957 3.43031 32.9664 3.0765 33.8165C2.72269 34.6667 2.54279 35.5792 2.54742 36.5V40.5C2.54979 41.2949 2.86663 42.0566 3.42872 42.6187C3.99082 43.1808 4.7525 43.4976 5.54742 43.5H27.5474C27.8889 43.5012 28.2278 43.4402 28.5474 43.32V46L25.1874 48.52C23.3975 48.6122 21.711 49.3874 20.4757 50.6861C19.2403 51.9847 18.5502 53.7077 18.5474 55.5V59.5C18.5498 60.2949 18.8666 61.0566 19.4287 61.6187C19.9908 62.1808 20.7525 62.4976 21.5474 62.5H43.5474C44.3423 62.4976 45.104 62.1808 45.6661 61.6187C46.2282 61.0566 46.545 60.2949 46.5474 59.5V55.5C46.5447 53.7077 45.8545 51.9847 44.6192 50.6861C43.3838 49.3874 41.6974 48.6122 39.9074 48.52L36.5474 46V43.32C36.8671 43.4402 37.2059 43.5012 37.5474 43.5H59.5474C60.3423 43.4976 61.104 43.1808 61.6661 42.6187C62.2282 42.0566 62.545 41.2949 62.5474 40.5V36.5C62.5447 34.7077 61.8545 32.9847 60.6192 31.6861C59.3838 30.3874 57.6974 29.6122 55.9074 29.52ZM41.5474 12.5V13.5C41.2822 13.5 41.0279 13.3946 40.8403 13.2071C40.6528 13.0196 40.5474 12.7652 40.5474 12.5V10.5C40.5474 9.17392 41.0742 7.90215 42.0119 6.96447C42.9496 6.02678 44.2213 5.5 45.5474 5.5H56.5474V8.5C56.545 9.72669 56.0891 10.9092 55.2674 11.82C55.136 11.6825 54.9703 11.5824 54.7874 11.53L46.7874 9.53C46.5554 9.47077 46.3097 9.49926 46.0974 9.61L42.0974 11.61C41.9308 11.6909 41.7906 11.8176 41.6932 11.9752C41.5959 12.1328 41.5453 12.3148 41.5474 12.5ZM43.5474 18.5V13.12L46.6674 11.56L53.5474 13.28V18.5C53.5474 19.8261 53.0206 21.0979 52.083 22.0355C51.1453 22.9732 49.8735 23.5 48.5474 23.5C47.2213 23.5 45.9496 22.9732 45.0119 22.0355C44.0742 21.0979 43.5474 19.8261 43.5474 18.5ZM46.1474 28.3C46.2708 28.2061 46.3711 28.0852 46.4404 27.9465C46.5097 27.8078 46.5464 27.6551 46.5474 27.5V25.21C47.8527 25.5966 49.2421 25.5966 50.5474 25.21V27.5C50.5485 27.6551 50.5851 27.8078 50.6544 27.9465C50.7238 28.0852 50.824 28.2061 50.9474 28.3L53.7274 30.39L48.5474 33.35L43.3674 30.39L46.1474 28.3ZM7.54742 14.5C7.54742 12.1131 8.49563 9.82387 10.1835 8.13604C11.8713 6.44821 14.1605 5.5 16.5474 5.5C18.9344 5.5 21.2236 6.44821 22.9114 8.13604C24.5992 9.82387 25.5474 12.1131 25.5474 14.5V23.76C24.7556 24.3137 24.0866 25.0249 23.5824 25.8491C23.0782 26.6734 22.7497 27.5929 22.6174 28.55L20.5474 27V24.24C21.4722 23.595 22.2278 22.7365 22.7501 21.7372C23.2723 20.738 23.5458 19.6275 23.5474 18.5V12.5C23.5472 12.2767 23.4723 12.0598 23.3346 11.884C23.1968 11.7082 23.0042 11.5836 22.7874 11.53L14.7874 9.53C14.5554 9.47134 14.3099 9.4998 14.0974 9.61L10.0974 11.61C9.9308 11.6909 9.79063 11.8176 9.69325 11.9752C9.59587 12.1328 9.54529 12.3148 9.54742 12.5V18.5C9.54899 19.6275 9.82251 20.738 10.3448 21.7372C10.867 22.7365 11.6226 23.595 12.5474 24.24V27L9.18742 29.52C8.63191 29.544 8.0813 29.6346 7.54742 29.79V14.5ZM14.1474 28.3C14.2708 28.2061 14.371 28.0852 14.4404 27.9465C14.5097 27.8078 14.5464 27.6551 14.5474 27.5V25.21C15.8527 25.5966 17.2421 25.5966 18.5474 25.21V27.5C18.5485 27.6551 18.5851 27.8078 18.6544 27.9465C18.7238 28.0852 18.824 28.2061 18.9474 28.3L21.7274 30.39L16.5474 33.35L11.3674 30.39L14.1474 28.3ZM11.5474 18.5V13.12L14.6674 11.56L21.5474 13.28V18.5C21.5474 19.8261 21.0206 21.0979 20.083 22.0355C19.1453 22.9732 17.8735 23.5 16.5474 23.5C15.2213 23.5 13.9496 22.9732 13.0119 22.0355C12.0742 21.0979 11.5474 19.8261 11.5474 18.5ZM5.54742 41.5C5.2822 41.5 5.02785 41.3946 4.84031 41.2071C4.65278 41.0196 4.54742 40.7652 4.54742 40.5V36.5C4.54716 35.2175 5.04023 33.984 5.92449 33.0551C6.80875 32.1261 8.01645 31.5729 9.29742 31.51L16.0474 35.37C16.2008 35.4537 16.3727 35.4975 16.5474 35.4975C16.7221 35.4975 16.894 35.4537 17.0474 35.37L22.6274 32.18C22.7829 32.8385 23.1554 33.4254 23.6852 33.8463C24.2149 34.2672 24.8709 34.4974 25.5474 34.5V37.5C25.5479 38.9309 25.9877 40.3271 26.8074 41.5H5.54742ZM26.0974 30.61C25.9308 30.6909 25.7906 30.8176 25.6932 30.9752C25.5959 31.1328 25.5453 31.3148 25.5474 31.5V32.5C25.2822 32.5 25.0278 32.3946 24.8403 32.2071C24.6528 32.0196 24.5474 31.7652 24.5474 31.5V29.5C24.5474 28.1739 25.0742 26.9021 26.0119 25.9645C26.9496 25.0268 28.2213 24.5 29.5474 24.5H40.5474V27.5C40.545 28.7267 40.0891 29.9092 39.2674 30.82C39.136 30.6825 38.9703 30.5824 38.7874 30.53L30.7874 28.53C30.5554 28.4713 30.3099 28.4998 30.0974 28.61L26.0974 30.61ZM44.5474 55.5V59.5C44.5474 59.7652 44.4421 60.0196 44.2545 60.2071C44.067 60.3946 43.8126 60.5 43.5474 60.5H21.5474C21.2822 60.5 21.0278 60.3946 20.8403 60.2071C20.6528 60.0196 20.5474 59.7652 20.5474 59.5V55.5C20.5496 54.2182 21.0435 52.9861 21.9272 52.0577C22.811 51.1293 24.0173 50.5753 25.2974 50.51L32.0474 54.37C32.2008 54.4537 32.3727 54.4975 32.5474 54.4975C32.7221 54.4975 32.894 54.4537 33.0474 54.37L39.7974 50.51C41.0776 50.5753 42.2838 51.1293 43.1676 52.0577C44.0514 52.9861 44.5452 54.2182 44.5474 55.5ZM37.7274 49.39L32.5474 52.35L27.3674 49.39L30.1474 47.3C30.2708 47.2061 30.371 47.0852 30.4404 46.9465C30.5097 46.8078 30.5464 46.6551 30.5474 46.5V44.21C31.8527 44.5966 33.2421 44.5966 34.5474 44.21V46.5C34.5485 46.6551 34.5851 46.8078 34.6544 46.9465C34.7238 47.0852 34.824 47.2061 34.9474 47.3L37.7274 49.39ZM37.5474 37.5C37.5474 38.8261 37.0206 40.0979 36.083 41.0355C35.1453 41.9732 33.8735 42.5 32.5474 42.5C31.2213 42.5 29.9496 41.9732 29.0119 41.0355C28.0742 40.0979 27.5474 38.8261 27.5474 37.5V32.12L30.6674 30.56L37.5474 32.28V37.5ZM60.5474 40.5C60.5474 40.7652 60.4421 41.0196 60.2545 41.2071C60.067 41.3946 59.8126 41.5 59.5474 41.5H38.2874C39.1071 40.3271 39.5469 38.9309 39.5474 37.5V33.22C40.2161 32.7546 40.7982 32.1759 41.2674 31.51H41.2974L48.0474 35.37C48.2008 35.4537 48.3727 35.4975 48.5474 35.4975C48.7221 35.4975 48.8941 35.4537 49.0474 35.37L55.7974 31.51C57.0776 31.5753 58.2838 32.1293 59.1676 33.0577C60.0514 33.9861 60.5452 35.2182 60.5474 36.5V40.5Z" fill="black"/>
<path d="M40.5474 56.5H42.5474V58.5H40.5474V56.5Z" fill="black"/>
</svg>
