<svg width="65" height="64" viewBox="0 0 65 64" fill="none" xmlns="http://www.w3.org/2000/svg">
<path d="M34.9361 52.7798C35.6961 54.8698 36.9361 56.7198 38.5261 58.2098C38.0261 58.3398 37.5161 58.4498 37.0161 58.5498L36.0961 61.9998H28.0961L27.1761 58.5498C23.3861 57.8498 19.8661 56.3598 16.7961 54.2498L13.7161 56.0398L8.05607 50.3798L9.84607 47.2998C7.73607 44.2298 6.24607 40.7098 5.54607 36.9198L2.09607 35.9998V27.9998L5.54607 27.0798C5.64607 26.5798 5.75607 26.0698 5.88607 25.5698C7.37607 27.1598 9.22607 28.3998 11.3161 29.1598C11.1861 30.0898 11.0961 31.0398 11.0961 31.9998C11.0961 43.5998 20.4961 52.9998 32.0961 52.9998C33.0561 52.9998 34.0061 52.9098 34.9361 52.7798Z" fill="#A0D468"/>
<path d="M62.0961 28V36L58.6461 36.92C58.5461 37.42 58.4361 37.93 58.3061 38.43C56.8161 36.84 54.9661 35.6 52.8761 34.84C53.0061 33.91 53.0961 32.96 53.0961 32C53.0961 20.4 43.6961 11 32.0961 11C31.1361 11 30.1861 11.09 29.2561 11.22C28.4961 9.13 27.2561 7.28 25.6661 5.79C26.1661 5.66 26.6761 5.55 27.1761 5.45L28.0961 2H36.0961L37.0161 5.45C40.8061 6.15 44.3261 7.64 47.3961 9.75L50.4761 7.96L56.1361 13.62L54.3461 16.7C56.4561 19.77 57.9461 23.29 58.6461 27.08L62.0961 28Z" fill="#A0D468"/>
<path d="M34.1461 46.8402C34.1161 47.2202 34.0961 47.6102 34.0961 48.0002C34.0961 49.6802 34.3961 51.2902 34.9361 52.7802C34.0061 52.9102 33.0561 53.0002 32.0961 53.0002C20.4961 53.0002 11.0961 43.6002 11.0961 32.0002C11.0961 31.0402 11.1861 30.0902 11.3161 29.1602C12.8061 29.7002 14.4161 30.0002 16.0961 30.0002C16.4861 30.0002 16.8761 29.9802 17.2561 29.9502C17.1561 30.6302 17.0961 31.3002 17.0961 32.0002C17.0961 40.2802 23.8161 47.0002 32.0961 47.0002C32.7961 47.0002 33.4661 46.9402 34.1461 46.8402Z" fill="#B4DD7F"/>
<path d="M32.0961 17C31.3961 17 30.7261 17.06 30.0461 17.16C30.0761 16.78 30.0961 16.39 30.0961 16C30.0961 14.32 29.7961 12.71 29.2561 11.22C30.1861 11.09 31.1361 11 32.0961 11C43.6961 11 53.0961 20.4 53.0961 32C53.0961 32.96 53.0061 33.91 52.8761 34.84C51.3861 34.3 49.7761 34 48.0961 34C47.7061 34 47.3161 34.02 46.9361 34.05C47.0361 33.37 47.0961 32.7 47.0961 32C47.0961 23.72 40.3761 17 32.0961 17Z" fill="#B4DD7F"/>
<path d="M36.8961 39.6102C35.3561 41.6602 34.3661 44.1402 34.1461 46.8402C33.4661 46.9402 32.7961 47.0002 32.0961 47.0002C23.8161 47.0002 17.0961 40.2802 17.0961 32.0002C17.0961 31.3002 17.1561 30.6302 17.2561 29.9502C19.9561 29.7302 22.4361 28.7402 24.4861 27.2002C23.6061 28.5902 23.0961 30.2302 23.0961 32.0002C23.0961 36.9702 27.1261 41.0002 32.0961 41.0002C33.8661 41.0002 35.5061 40.4902 36.8961 39.6102Z" fill="#E6E9ED"/>
<path d="M47.0961 32C47.0961 32.7 47.0361 33.37 46.9361 34.05C44.2361 34.27 41.7561 35.26 39.7061 36.8C40.5861 35.41 41.0961 33.77 41.0961 32C41.0961 27.03 37.0661 23 32.0961 23C30.3261 23 28.6861 23.51 27.2961 24.39C28.8361 22.34 29.8261 19.86 30.0461 17.16C30.7261 17.06 31.3961 17 32.0961 17C40.3761 17 47.0961 23.72 47.0961 32Z" fill="#E6E9ED"/>
<path d="M17.2561 29.95C16.8761 29.98 16.4861 30 16.0961 30C14.4161 30 12.8061 29.7 11.3161 29.16C9.22607 28.4 7.37607 27.16 5.88607 25.57C3.53607 23.06 2.09607 19.7 2.09607 16C2.09607 8.27 8.36607 2 16.0961 2C19.7961 2 23.1561 3.44 25.6661 5.79C27.2561 7.28 28.4961 9.13 29.2561 11.22C29.7961 12.71 30.0961 14.32 30.0961 16C30.0961 16.39 30.0761 16.78 30.0461 17.16C29.8261 19.86 28.8361 22.34 27.2961 24.39C26.4961 25.46 25.5561 26.4 24.4861 27.2C22.4361 28.74 19.9561 29.73 17.2561 29.95Z" fill="#FFC729"/>
<path d="M58.3061 38.43C60.6561 40.94 62.0961 44.3 62.0961 48C62.0961 55.73 55.8261 62 48.0961 62C44.3961 62 41.0361 60.56 38.5261 58.21C36.9361 56.72 35.6961 54.87 34.9361 52.78C34.3961 51.29 34.0961 49.68 34.0961 48C34.0961 47.61 34.1161 47.22 34.1461 46.84C34.3661 44.14 35.3561 41.66 36.8961 39.61C37.6961 38.54 38.6361 37.6 39.7061 36.8C41.7561 35.26 44.2361 34.27 46.9361 34.05C47.3161 34.02 47.7061 34 48.0961 34C49.7761 34 51.3861 34.3 52.8761 34.84C54.9661 35.6 56.8161 36.84 58.3061 38.43Z" fill="#FFC729"/>
<path d="M26.0961 16C26.0961 18.4 25.2461 20.61 23.8361 22.34L22.4361 23.74C20.7061 25.15 18.4961 26 16.0961 26C10.5761 26 6.09607 21.52 6.09607 16C6.09607 13.6 6.94607 11.39 8.35607 9.66L9.75607 8.26C11.4861 6.85 13.6961 6 16.0961 6C21.6161 6 26.0961 10.48 26.0961 16Z" fill="#FCD770"/>
<path d="M58.0961 48C58.0961 50.4 57.2461 52.61 55.8361 54.34L54.4361 55.74C52.7061 57.15 50.4961 58 48.0961 58C42.5761 58 38.0961 53.52 38.0961 48C38.0961 45.6 38.9461 43.39 40.3561 41.66L41.7561 40.26C43.4861 38.85 45.6961 38 48.0961 38C53.6161 38 58.0961 42.48 58.0961 48Z" fill="#FCD770"/>
<path d="M17.0961 13C17.6471 13 18.0961 13.449 18.0961 14H20.0961C20.0961 12.346 18.7501 11 17.0961 11V9H15.0961V11H12.0961V14C12.0961 15.654 13.4421 17 15.0961 17H17.0961C17.6471 17 18.0961 17.449 18.0961 18V19H15.0961C14.5451 19 14.0961 18.551 14.0961 18H12.0961C12.0961 19.654 13.4421 21 15.0961 21V23H17.0961V21H20.0961V18C20.0961 16.346 18.7501 15 17.0961 15H15.0961C14.5451 15 14.0961 14.551 14.0961 14V13H17.0961Z" fill="black"/>
<path d="M16.0961 26.9998C18.6311 26.9998 21.1061 26.1148 23.0661 24.5088L21.7971 22.9618C20.1951 24.2758 18.1701 24.9998 16.0961 24.9998C11.1341 24.9998 7.09607 20.9618 7.09607 15.9998C7.09607 13.9258 7.82007 11.9008 9.13407 10.2988L7.58707 9.02979C5.98107 10.9898 5.09607 13.4648 5.09607 15.9998C5.09607 22.0648 10.0311 26.9998 16.0961 26.9998Z" fill="black"/>
<path d="M16.096 7C21.058 7 25.096 11.038 25.096 16C25.096 18.074 24.372 20.099 23.058 21.701L24.605 22.97C26.211 21.01 27.096 18.535 27.096 16C27.096 9.935 22.161 5 16.096 5C13.561 5 11.086 5.885 9.12605 7.491L10.395 9.038C11.997 7.724 14.022 7 16.096 7Z" fill="black"/>
<path d="M48.0961 57.0003C43.1341 57.0003 39.0961 52.9633 39.0961 48.0003C39.0961 45.9263 39.8201 43.9013 41.1341 42.2983L39.5871 41.0303C37.9811 42.9903 37.0961 45.4653 37.0961 48.0003C37.0961 54.0653 42.0311 59.0003 48.0961 59.0003C50.6321 59.0003 53.1071 58.1153 55.0661 56.5093L53.7971 54.9623C52.1951 56.2763 50.1701 57.0003 48.0961 57.0003Z" fill="black"/>
<path d="M48.096 37C45.56 37 43.085 37.885 41.126 39.491L42.395 41.038C43.997 39.724 46.022 39 48.096 39C53.058 39 57.096 43.037 57.096 48C57.096 50.074 56.372 52.099 55.058 53.702L56.605 54.97C58.211 53.01 59.096 50.535 59.096 48C59.096 41.935 54.161 37 48.096 37Z" fill="black"/>
<path d="M51.3891 42.293L48.0961 45.586L44.8031 42.293L43.3891 43.707L46.6821 47H45.0961V49H47.0961V51H45.0961V53H47.0961V55H49.0961V53H51.0961V51H49.0961V49H51.0961V47H49.5101L52.8031 43.707L51.3891 42.293Z" fill="black"/>
<path d="M63.0961 36.77V27.23L59.5031 26.277C58.7891 22.833 57.4521 19.606 55.5221 16.665L57.3891 13.451L50.6441 6.706L47.4301 8.573C44.4901 6.643 41.2621 5.306 37.8181 4.592L36.8661 1H27.3261L26.3731 4.595C26.2231 4.627 26.0751 4.663 25.9261 4.697C23.2901 2.402 19.8571 1 16.0961 1C7.82507 1 1.09607 7.729 1.09607 16C1.09607 19.761 2.49807 23.194 4.79307 25.83C4.75907 25.979 4.72207 26.127 4.69107 26.277L1.09607 27.23V36.769L4.68907 37.722C5.40307 41.164 6.74007 44.393 8.67007 47.333L6.80307 50.547L13.5481 57.292L16.7621 55.425C19.7031 57.356 22.9311 58.693 26.3741 59.405L27.3261 63H36.8651L37.8181 59.405C37.9681 59.373 38.1161 59.336 38.2651 59.303C40.9011 61.598 44.3351 63 48.0961 63C56.3671 63 63.0961 56.271 63.0961 48C63.0961 44.239 61.6941 40.806 59.3991 38.17C59.4331 38.021 59.4691 37.873 59.5011 37.723L63.0961 36.77ZM28.8661 3H35.3271L36.2081 6.323L36.8311 6.438C40.4401 7.103 43.8021 8.495 46.8241 10.577L47.3461 10.936L50.3181 9.209L54.8871 13.778L53.1601 16.75L53.5191 17.272C55.6011 20.294 56.9931 23.656 57.6581 27.265L57.7731 27.888L61.0961 28.77V35.231L57.7731 36.112L57.7021 36.494C56.5831 35.558 55.3271 34.78 53.9671 34.2C54.0541 33.404 54.0961 32.691 54.0961 32C54.0961 19.869 44.2271 10 32.0961 10C31.4051 10 30.6921 10.042 29.8971 10.128C29.3161 8.768 28.5391 7.512 27.6021 6.393L27.9841 6.322L28.8661 3ZM12.1711 30.461C13.4241 30.802 14.7361 31 16.0961 31C16.1091 31 16.1221 30.998 16.1351 30.998C16.1101 31.345 16.0961 31.676 16.0961 32C16.0961 40.822 23.2741 48 32.0961 48C32.4191 48 32.7511 47.986 33.0981 47.961C33.0981 47.974 33.0961 47.987 33.0961 48C33.0961 49.36 33.2941 50.672 33.6351 51.925C33.0901 51.973 32.5831 52 32.0961 52C21.0681 52 12.0961 43.028 12.0961 32C12.0961 31.513 12.1221 31.006 12.1711 30.461ZM33.2551 45.936C32.8461 45.974 32.4571 46 32.0961 46C24.3761 46 18.0961 39.72 18.0961 32C18.0961 31.638 18.1221 31.25 18.1601 30.841C19.6611 30.633 21.0881 30.205 22.4141 29.586C22.2171 30.373 22.0961 31.18 22.0961 32C22.0961 37.514 26.5821 42 32.0961 42C32.9161 42 33.7231 41.879 34.5111 41.682C33.8911 43.007 33.4631 44.435 33.2551 45.936ZM36.2681 38.808C35.0061 39.583 33.5691 40 32.0961 40C27.6851 40 24.0961 36.411 24.0961 32C24.0961 30.526 24.5131 29.089 25.2881 27.828C26.2721 27.061 27.1571 26.177 27.9231 25.193C29.1851 24.417 30.6221 24 32.0961 24C36.5071 24 40.0961 27.589 40.0961 32C40.0961 33.474 39.6791 34.91 38.9041 36.172C37.9201 36.939 37.0351 37.824 36.2681 38.808ZM32.0961 22C31.2761 22 30.4691 22.121 29.6811 22.318C30.3001 20.992 30.7281 19.565 30.9361 18.064C31.3461 18.026 31.7341 18 32.0961 18C39.8161 18 46.0961 24.28 46.0961 32C46.0961 32.362 46.0701 32.75 46.0321 33.159C44.5311 33.367 43.1041 33.795 41.7781 34.414C41.9751 33.627 42.0961 32.82 42.0961 32C42.0961 26.486 37.6101 22 32.0961 22ZM32.0961 16C31.7721 16 31.4411 16.014 31.0941 16.039C31.0941 16.026 31.0961 16.013 31.0961 16C31.0961 14.64 30.8981 13.328 30.5571 12.075C31.1021 12.026 31.6091 12 32.0961 12C43.1241 12 52.0961 20.972 52.0961 32C52.0961 32.487 52.0701 32.994 52.0211 33.539C50.7681 33.198 49.4561 33 48.0961 33C48.0831 33 48.0701 33.002 48.0571 33.002C48.0821 32.655 48.0961 32.324 48.0961 32C48.0961 23.178 40.9181 16 32.0961 16ZM16.0961 3C23.2641 3 29.0961 8.832 29.0961 16C29.0961 23.168 23.2641 29 16.0961 29C8.92807 29 3.09607 23.168 3.09607 16C3.09607 8.832 8.92807 3 16.0961 3ZM35.3261 61H28.8661L27.9851 57.676L27.3611 57.562C23.7541 56.899 20.3911 55.506 17.3681 53.424L16.8461 53.065L13.8741 54.792L9.30507 50.223L11.0321 47.25L10.6731 46.729C8.59107 43.707 7.19907 40.345 6.53407 36.737L6.41907 36.114L3.09607 35.23V28.77L6.41907 27.889L6.49007 27.507C7.60907 28.443 8.86507 29.221 10.2251 29.802C10.1381 30.596 10.0961 31.309 10.0961 32C10.0961 44.131 19.9651 54 32.0961 54C32.7871 54 33.5001 53.958 34.2951 53.872C34.8761 55.232 35.6531 56.487 36.5891 57.606L36.2081 57.676L35.3261 61ZM48.0961 61C40.9281 61 35.0961 55.168 35.0961 48C35.0961 40.832 40.9281 35 48.0961 35C55.2641 35 61.0961 40.832 61.0961 48C61.0961 55.168 55.2641 61 48.0961 61Z" fill="black"/>
</svg>
