<svg width="65" height="65" viewBox="0 0 65 65" fill="none" xmlns="http://www.w3.org/2000/svg">
<g clip-path="url(#clip0)">
<path d="M57.9848 52.3126C57.1165 52.3126 56.2942 52.5098 55.56 52.8611L52.6193 49.9205C55.455 46.493 57.1591 42.0954 57.1591 37.2995C57.1591 26.9899 49.2842 18.5208 39.2216 17.5759V13.4156C41.4061 12.6432 42.9716 10.5609 42.9716 8.112C42.9716 5.00537 40.4532 2.487 37.3466 2.487C34.24 2.487 31.7216 5.00537 31.7216 8.112C31.7216 10.561 33.2871 12.6434 35.4716 13.4156V17.5759C31.408 17.9574 27.701 19.5651 24.7256 22.0268L21.9048 19.206C23.2145 17.367 23.9847 15.1173 23.9847 12.6875C23.9847 6.47425 18.948 1.4375 12.7347 1.4375C6.52147 1.4375 1.48472 6.47425 1.48472 12.6875C1.48472 18.9007 6.52147 23.9375 12.7347 23.9375C15.1643 23.9375 17.4141 23.1673 19.2532 21.8576L22.074 24.6784C19.6123 27.6539 18.0046 31.3608 17.6231 35.4244H13.4628C12.6905 33.2399 10.6081 31.6744 8.15922 31.6744C5.05259 31.6744 2.53422 34.1928 2.53422 37.2994C2.53422 40.406 5.05259 42.9244 8.15922 42.9244C10.6082 42.9244 12.6906 41.3589 13.4628 39.1744H17.6231C18.5678 49.237 27.0371 57.1119 37.3467 57.1119C42.1426 57.1119 46.5403 55.4076 49.9677 52.5721L52.9083 55.5128C52.557 56.247 52.3598 57.0693 52.3598 57.9376C52.3598 61.0443 54.8782 63.5626 57.9848 63.5626C61.0915 63.5626 63.6098 61.0443 63.6098 57.9376C63.6098 54.831 61.0915 52.3126 57.9848 52.3126Z" fill="#8C98A7"/>
<path d="M12.7349 20.1875C16.877 20.1875 20.2349 16.8296 20.2349 12.6875C20.2349 8.54536 16.877 5.1875 12.7349 5.1875C8.59273 5.1875 5.23486 8.54536 5.23486 12.6875C5.23486 16.8296 8.59273 20.1875 12.7349 20.1875Z" fill="#FFF7E8"/>
<path d="M8.15922 39.1743C9.19475 39.1743 10.0342 38.3349 10.0342 37.2993C10.0342 36.2638 9.19475 35.4243 8.15922 35.4243C7.12369 35.4243 6.28422 36.2638 6.28422 37.2993C6.28422 38.3349 7.12369 39.1743 8.15922 39.1743Z" fill="#FFF7E8"/>
<path d="M37.3467 9.98681C38.3822 9.98681 39.2217 9.14735 39.2217 8.11182C39.2217 7.07628 38.3822 6.23682 37.3467 6.23682C36.3112 6.23682 35.4717 7.07628 35.4717 8.11182C35.4717 9.14735 36.3112 9.98681 37.3467 9.98681Z" fill="#FFF7E8"/>
<path d="M57.9849 59.8125C59.0204 59.8125 59.8599 58.973 59.8599 57.9375C59.8599 56.902 59.0204 56.0625 57.9849 56.0625C56.9493 56.0625 56.1099 56.902 56.1099 57.9375C56.1099 58.973 56.9493 59.8125 57.9849 59.8125Z" fill="#FFF7E8"/>
<path d="M12.7349 16.4375C14.8059 16.4375 16.4849 14.7586 16.4849 12.6875C16.4849 10.6164 14.8059 8.9375 12.7349 8.9375C10.6638 8.9375 8.98486 10.6164 8.98486 12.6875C8.98486 14.7586 10.6638 16.4375 12.7349 16.4375Z" fill="#1E8AFF"/>
<path d="M37.3467 53.3618C46.2178 53.3618 53.4092 46.1704 53.4092 37.2993C53.4092 28.4282 46.2178 21.2368 37.3467 21.2368C28.4756 21.2368 21.2842 28.4282 21.2842 37.2993C21.2842 46.1704 28.4756 53.3618 37.3467 53.3618Z" fill="#FFF7E8"/>
<path d="M37.3467 24.9868V36.2368C40.4533 36.2368 42.9717 33.7184 42.9717 30.6118C42.9717 27.5052 40.4532 24.9868 37.3467 24.9868Z" fill="#1B74D6"/>
<path d="M39.2217 30.6118C39.2217 27.5052 38.3822 24.9868 37.3467 24.9868C34.2401 24.9868 31.7217 27.5052 31.7217 30.6118C31.7217 33.7184 34.2401 36.2368 37.3467 36.2368C38.3822 36.2368 39.2217 33.7183 39.2217 30.6118Z" fill="#1E8AFF"/>
<path d="M30.7836 39.9868C28.7211 39.9868 27.0336 41.6743 27.0336 43.7368V44.0263C28.0031 45.5097 29.2842 46.7707 30.7836 47.7174L34.5336 39.9868H30.7836Z" fill="#54A5FF"/>
<path d="M43.9097 39.9868H40.1597L43.9097 47.7174C45.4091 46.7707 46.6902 45.5097 47.6597 44.0263V43.7368C47.6597 41.6743 45.9722 39.9868 43.9097 39.9868Z" fill="#1B74D6"/>
<path d="M40.1597 39.9868H34.5336C32.4711 39.9868 30.7836 41.6743 30.7836 43.7368V47.7174C32.6833 48.9171 34.9336 49.6118 37.3466 49.6118C39.7596 49.6118 42.0098 48.9171 43.9096 47.7174V43.7368C43.9097 41.6743 42.2222 39.9868 40.1597 39.9868Z" fill="#1E8AFF"/>
<path d="M12.7349 4.25C8.08236 4.25 4.29736 8.035 4.29736 12.6875C4.29736 17.34 8.08236 21.125 12.7349 21.125C17.3874 21.125 21.1724 17.34 21.1724 12.6875C21.1724 8.035 17.3874 4.25 12.7349 4.25ZM12.7349 19.25C9.11624 19.25 6.17236 16.3061 6.17236 12.6875C6.17236 9.06888 9.11624 6.125 12.7349 6.125C16.3535 6.125 19.2974 9.06888 19.2974 12.6875C19.2974 16.3061 16.3535 19.25 12.7349 19.25Z" fill="black"/>
<path d="M12.7349 8C10.1501 8 8.04736 10.1028 8.04736 12.6875C8.04736 15.2723 10.1501 17.375 12.7349 17.375C15.3196 17.375 17.4224 15.2723 17.4224 12.6875C17.4224 10.1028 15.3196 8 12.7349 8ZM12.7349 15.5C11.184 15.5 9.92236 14.2384 9.92236 12.6875C9.92236 11.1366 11.184 9.875 12.7349 9.875C14.2857 9.875 15.5474 11.1366 15.5474 12.6875C15.5474 14.2384 14.2857 15.5 12.7349 15.5Z" fill="black"/>
<path d="M5.34672 37.2993C5.34672 38.8502 6.60835 40.1118 8.15922 40.1118C9.7101 40.1118 10.9717 38.8502 10.9717 37.2993C10.9717 35.7484 9.7101 34.4868 8.15922 34.4868C6.60835 34.4868 5.34672 35.7484 5.34672 37.2993ZM9.09672 37.2993C9.09672 37.8163 8.67622 38.2368 8.15922 38.2368C7.64222 38.2368 7.22172 37.8163 7.22172 37.2993C7.22172 36.7823 7.64222 36.3618 8.15922 36.3618C8.67622 36.3618 9.09672 36.7823 9.09672 37.2993Z" fill="black"/>
<path d="M40.1592 8.11182C40.1592 6.56094 38.8975 5.29932 37.3467 5.29932C35.796 5.29932 34.5342 6.56094 34.5342 8.11182C34.5342 9.66269 35.796 10.9243 37.3467 10.9243C38.8975 10.9243 40.1592 9.66257 40.1592 8.11182ZM37.3467 9.04931C36.8297 9.04931 36.4092 8.62882 36.4092 8.11182C36.4092 7.59482 36.8297 7.17432 37.3467 7.17432C37.8637 7.17432 38.2842 7.59482 38.2842 8.11182C38.2842 8.62882 37.8636 9.04931 37.3467 9.04931Z" fill="black"/>
<path d="M20.3467 37.2993C20.3467 46.6732 27.9728 54.2993 37.3467 54.2993C46.7205 54.2993 54.3467 46.6732 54.3467 37.2993C54.3467 27.9254 46.7205 20.2993 37.3467 20.2993C27.9728 20.2993 20.3467 27.9254 20.3467 37.2993ZM37.3467 22.1743C45.6867 22.1743 52.4717 28.9593 52.4717 37.2993C52.4717 45.6393 45.6867 52.4243 37.3467 52.4243C29.0067 52.4243 22.2217 45.6393 22.2217 37.2993C22.2217 28.9593 29.0067 22.1743 37.3467 22.1743Z" fill="black"/>
<path d="M37.3467 37.1743C40.9652 37.1743 43.9092 34.2304 43.9092 30.6118C43.9092 26.9932 40.9652 24.0493 37.3467 24.0493C33.7282 24.0493 30.7842 26.9932 30.7842 30.6118C30.7842 34.2304 33.7281 37.1743 37.3467 37.1743ZM37.3467 25.9243C39.9315 25.9243 42.0342 28.0271 42.0342 30.6118C42.0342 33.1966 39.9315 35.2993 37.3467 35.2993C34.762 35.2993 32.6592 33.1966 32.6592 30.6118C32.6592 28.0271 34.762 25.9243 37.3467 25.9243Z" fill="black"/>
<path d="M26.2488 44.5393C28.7086 48.3026 32.8572 50.5493 37.3466 50.5493C41.836 50.5493 45.9846 48.3026 48.4443 44.5393C48.544 44.3868 48.5971 44.2086 48.5971 44.0263V43.7368C48.5971 41.1521 46.4943 39.0493 43.9096 39.0493H30.7836C28.1988 39.0493 26.0961 41.1521 26.0961 43.7368V44.0263C26.0961 44.2086 26.1492 44.3868 26.2488 44.5393ZM30.7836 40.9244H43.9096C45.4603 40.9244 46.7221 42.1861 46.7221 43.7413C44.5936 46.8354 41.1092 48.6744 37.3466 48.6744C33.584 48.6744 30.0997 46.8356 27.9711 43.7413C27.9711 42.1861 29.2327 40.9244 30.7836 40.9244Z" fill="black"/>
<path d="M60.7974 57.9375C60.7974 56.3866 59.5356 55.125 57.9849 55.125C56.4341 55.125 55.1724 56.3866 55.1724 57.9375C55.1724 59.4884 56.4341 60.75 57.9849 60.75C59.5356 60.75 60.7974 59.4884 60.7974 57.9375ZM57.0474 57.9375C57.0474 57.4205 57.4679 57 57.9849 57C58.5019 57 58.9224 57.4205 58.9224 57.9375C58.9224 58.4545 58.5019 58.875 57.9849 58.875C57.4679 58.875 57.0474 58.4545 57.0474 57.9375Z" fill="black"/>
<path d="M57.9849 51.375C57.2235 51.375 56.4844 51.5025 55.7796 51.7549L53.8729 49.8481C56.6024 46.2544 58.0966 41.8315 58.0966 37.2994C58.0966 32.0995 56.1642 27.1251 52.6554 23.2926C49.3626 19.6964 44.9524 17.39 40.1591 16.7399V14.0414C42.4272 12.9651 43.9091 10.6605 43.9091 8.11175C43.9091 4.49313 40.9651 1.54925 37.3466 1.54925C33.7281 1.54925 30.7841 4.49313 30.7841 8.11175C30.7841 10.6604 32.266 12.965 34.5341 14.0414V16.7396C30.9865 17.2198 27.651 18.6014 24.7976 20.7728L23.1101 19.0853C24.2981 17.165 24.9224 14.9692 24.9224 12.6875C24.9224 5.96725 19.4551 0.5 12.7349 0.5C6.01461 0.5 0.547363 5.96725 0.547363 12.6875C0.547363 19.4077 6.01461 24.875 12.7349 24.875C15.0166 24.875 17.2124 24.2507 19.1326 23.0627L20.8201 24.7502C18.6487 27.6036 17.2671 30.9391 16.787 34.4868H14.0887C13.0125 32.2186 10.7079 30.7367 8.15911 30.7367C4.54049 30.7367 1.59661 33.6806 1.59661 37.2993C1.59661 40.9179 4.54049 43.8618 8.15911 43.8618C10.7077 43.8618 13.0124 42.3799 14.0887 40.1118H16.7871C17.3052 43.939 18.8739 47.5206 21.3524 50.517C21.6825 50.916 22.2734 50.9719 22.6724 50.6419C23.0714 50.3119 23.1272 49.7209 22.7972 49.3219C20.3769 46.3958 18.9105 42.8565 18.5565 39.0865C18.5112 38.6047 18.1069 38.2366 17.6231 38.2366H13.4629C13.0656 38.2366 12.7114 38.487 12.579 38.8616C11.9181 40.7308 10.142 41.9866 8.15924 41.9866C5.57449 41.9866 3.47174 39.8839 3.47174 37.2991C3.47174 34.7144 5.57449 32.6116 8.15924 32.6116C10.142 32.6116 11.9182 33.8675 12.579 35.7366C12.7115 36.1113 13.0656 36.3616 13.4629 36.3616H17.6231C18.107 36.3616 18.5112 35.9935 18.5565 35.5117C18.9106 31.7399 20.3767 28.2004 22.7962 25.2756C23.1045 24.903 23.0787 24.357 22.7367 24.0151L19.9161 21.1945C19.5925 20.8708 19.0824 20.8281 18.7094 21.0938C16.9584 22.3409 14.8924 23 12.7349 23C7.04849 23 2.42236 18.3739 2.42236 12.6875C2.42236 7.00112 7.04849 2.375 12.7349 2.375C18.4212 2.375 23.0474 7.00112 23.0474 12.6875C23.0474 14.845 22.3882 16.911 21.1412 18.6621C20.8757 19.035 20.9182 19.5451 21.242 19.8689L24.0626 22.6895C24.4046 23.0315 24.9506 23.0571 25.3231 22.749C28.2477 20.3295 31.7874 18.8634 35.5592 18.5093C36.041 18.464 36.4091 18.0596 36.4091 17.5759V13.4156C36.4091 13.0184 36.1587 12.6641 35.7841 12.5317C33.915 11.8709 32.6591 10.0948 32.6591 8.112C32.6591 5.52725 34.7619 3.4245 37.3466 3.4245C39.9314 3.4245 42.0341 5.52725 42.0341 8.112C42.0341 10.0948 40.7782 11.871 38.9091 12.5317C38.5346 12.6642 38.2841 13.0184 38.2841 13.4156V17.5759C38.2841 18.0597 38.6522 18.464 39.134 18.5093C48.8756 19.4239 56.2216 27.5019 56.2216 37.2994C56.2216 41.682 54.6857 45.9519 51.897 49.3229C51.5886 49.6955 51.6144 50.2414 51.9564 50.5834L54.8969 53.524C55.1781 53.8052 55.6061 53.8784 55.9645 53.7067C56.5977 53.4037 57.2775 53.2501 57.9847 53.2501C60.5695 53.2501 62.6722 55.3529 62.6722 57.9376C62.6722 60.5224 60.5696 62.625 57.9849 62.625C55.4001 62.625 53.2974 60.5223 53.2974 57.9375C53.2974 57.23 53.451 56.5504 53.754 55.9173C53.9256 55.5586 53.8524 55.1307 53.5712 54.8496L50.6307 51.9091C50.2887 51.5671 49.7429 51.5415 49.3701 51.8496C45.9992 54.6385 41.7292 56.1743 37.3466 56.1743C32.9646 56.1743 28.695 54.6381 25.324 51.8488C24.925 51.5185 24.334 51.5745 24.004 51.9734C23.6739 52.3722 23.7297 52.9632 24.1286 53.2934C27.835 56.3602 32.5292 58.0493 37.3465 58.0493C41.8785 58.0493 46.3014 56.555 49.8952 53.8254L51.802 55.7321C51.5497 56.4367 51.4222 57.1759 51.4222 57.9374C51.4222 61.556 54.3662 64.4999 57.9847 64.4999C61.6032 64.4999 64.5472 61.556 64.5472 57.9374C64.5472 54.3187 61.6034 51.375 57.9849 51.375Z" fill="black"/>
</g>
<defs>
<clipPath id="clip0">
<rect width="64" height="64" fill="white" transform="translate(0.547363 0.5)"/>
</clipPath>
</defs>
</svg>
