<svg width="65" height="64" viewBox="0 0 65 64" fill="none" xmlns="http://www.w3.org/2000/svg">
<g clip-path="url(#clip0)">
<path d="M43.1035 8.53271H34.5517V13.4673H43.1035V8.53271Z" fill="#D5F5FB"/>
<path d="M34.3275 8.53281H43.3277C44.9846 8.53281 46.3277 7.18966 46.3277 5.53276C46.3277 3.87586 44.9846 2.53271 43.3277 2.53271H34.3275C32.6706 2.53271 31.3275 3.87586 31.3275 5.53276C31.3275 7.18966 32.6706 8.53281 34.3275 8.53281Z" fill="#FF7480"/>
<path d="M38.8468 61.468C52.1019 61.468 62.8472 50.7227 62.8472 37.4677C62.8472 24.2126 52.1019 13.4673 38.8468 13.4673C25.5918 13.4673 14.8465 24.2126 14.8465 37.4677C14.8465 50.7227 25.5918 61.468 38.8468 61.468Z" fill="#5DDEF5"/>
<path d="M38.8468 55.609C48.866 55.609 56.9882 47.4868 56.9882 37.4676C56.9882 27.4484 48.866 19.3262 38.8468 19.3262C28.8276 19.3262 20.7054 27.4484 20.7054 37.4676C20.7054 47.4868 28.8276 55.609 38.8468 55.609Z" fill="white"/>
<path d="M38.8469 40.102C40.3018 40.102 41.4811 38.9226 41.4811 37.4677C41.4811 36.0129 40.3018 34.8335 38.8469 34.8335C37.392 34.8335 36.2126 36.0129 36.2126 37.4677C36.2126 38.9226 37.392 40.102 38.8469 40.102Z" fill="#FF838E"/>
<path d="M63.9727 34.9562C63.3981 29.1764 60.8159 23.7274 56.7016 19.613C53.1855 16.0971 48.882 13.8377 44.3536 12.833V9.65697C46.2032 9.19684 47.5779 7.52269 47.5779 5.53278C47.5779 3.18924 45.6714 1.28271 43.3279 1.28271H34.3277C31.9842 1.28271 30.0777 3.18924 30.0777 5.53278C30.0777 7.52256 31.4524 9.19671 33.3018 9.65697V12.8419C28.7874 13.8508 24.4981 16.1071 20.992 19.6131C20.2248 20.3804 19.5172 21.1853 18.8696 22.0218C18.8382 22.0194 18.8069 22.017 18.7749 22.017H9.8671C9.17684 22.017 8.61708 22.5767 8.61708 23.2671C8.61708 23.9574 9.17684 24.5171 9.8671 24.5171H17.1687C16.2522 26.0515 15.5132 27.6629 14.9507 29.3217H1.34609C0.655828 29.3217 0.0960693 29.8813 0.0960693 30.5717C0.0960693 31.2621 0.655828 31.8217 1.34609 31.8217H14.2443C13.884 33.4031 13.6773 35.0125 13.6239 36.6264H8.09619C7.40593 36.6264 6.84617 37.186 6.84617 37.8764C6.84617 38.5668 7.40593 39.1264 8.09619 39.1264H13.6638C13.7693 40.7445 14.0294 42.354 14.4443 43.9311H6.34617C5.65591 43.9311 5.09615 44.4908 5.09615 45.1812C5.09615 45.8715 5.65591 46.4312 6.34617 46.4312H15.2421C16.4683 49.6751 18.3847 52.7155 20.992 55.3228C25.1103 59.4411 30.5649 62.0239 36.3508 62.5955C37.1765 62.677 38.0029 62.7174 38.8282 62.7174C43.706 62.7174 48.5218 61.3058 52.6081 58.6447C53.1866 58.268 53.3503 57.4936 52.9735 56.9151C52.5968 56.3366 51.8224 56.1729 51.2439 56.5497C42.2991 62.3744 30.3198 61.115 22.7598 53.555C13.8894 44.6846 13.8894 30.2515 22.7598 21.381C31.6301 12.5108 46.0632 12.5108 54.9337 21.381C62.4837 28.9311 63.7499 40.9002 57.9445 49.8406C57.5685 50.4196 57.7331 51.1939 58.312 51.5698C58.8912 51.9458 59.6652 51.7811 60.0411 51.2021C63.1429 46.4252 64.5392 40.6557 63.9727 34.9562ZM32.5777 5.53291C32.5777 4.56789 33.3627 3.78288 34.3277 3.78288H43.3279C44.2929 3.78288 45.0779 4.56789 45.0779 5.53291C45.0779 6.49792 44.2929 7.28293 43.3279 7.28293H43.1036H34.5519H34.3277C33.3627 7.28293 32.5777 6.4978 32.5777 5.53291ZM35.8019 12.4121V9.78297H41.8536V12.4076C39.8441 12.1686 37.811 12.1701 35.8019 12.4121Z" fill="black"/>
<path d="M55.8181 53.1885C55.4881 53.1885 55.1668 53.3222 54.9344 53.5547C54.7007 53.7872 54.5681 54.1097 54.5681 54.4385C54.5681 54.7672 54.7007 55.0897 54.9344 55.3222C55.1668 55.556 55.4882 55.6885 55.8181 55.6885C56.1468 55.6885 56.4681 55.556 56.7018 55.3222C56.9343 55.0897 57.0681 54.7672 57.0681 54.4385C57.0681 54.1097 56.9344 53.7872 56.7018 53.5547C56.4681 53.3222 56.1467 53.1885 55.8181 53.1885Z" fill="black"/>
<path d="M38.8467 18.0767C28.1542 18.0767 19.4552 26.7755 19.4552 37.4681C19.4552 48.1606 28.1542 56.8595 38.8467 56.8595C49.5391 56.8595 58.2381 48.1606 58.2381 37.4681C58.2381 26.7755 49.5391 18.0767 38.8467 18.0767ZM38.8467 54.3595C29.5326 54.3595 21.9553 46.782 21.9553 37.4681C21.9553 28.1542 29.5326 20.5767 38.8467 20.5767C48.1607 20.5767 55.738 28.1542 55.738 37.4681C55.738 46.782 48.1607 54.3595 38.8467 54.3595Z" fill="black"/>
<path d="M46.754 27.7929L40.5627 33.9841C40.0449 33.7281 39.4625 33.5834 38.8469 33.5834C38.2311 33.5834 37.6489 33.7281 37.1311 33.9841L34.3602 31.2132C33.8719 30.725 33.0807 30.725 32.5923 31.2132C32.1042 31.7013 32.1042 32.4928 32.5923 32.9809L35.3632 35.7519C35.1071 36.2696 34.9626 36.852 34.9626 37.4676C34.9626 39.6094 36.705 41.3519 38.8469 41.3519C40.9888 41.3519 42.7312 39.6094 42.7312 37.4676C42.7312 36.852 42.5866 36.2696 42.3306 35.7519L48.3402 29.7423L48.5218 29.5606C49.0099 29.0725 49.0099 28.281 48.5218 27.7929C48.0337 27.3047 47.2424 27.3047 46.754 27.7929ZM38.8469 38.852C38.0836 38.852 37.4626 38.231 37.4626 37.4678C37.4626 36.7045 38.0836 36.0835 38.8469 36.0835C39.6102 36.0835 40.2312 36.7045 40.2312 37.4678C40.2312 38.231 39.6102 38.852 38.8469 38.852Z" fill="black"/>
<path d="M52.2118 36.2329H51.0537C50.3634 36.2329 49.8037 36.7925 49.8037 37.4829C49.8037 38.1733 50.3634 38.7329 51.0537 38.7329H52.2118C52.9021 38.7329 53.4618 38.1733 53.4618 37.4829C53.4618 36.7925 52.9021 36.2329 52.2118 36.2329Z" fill="black"/>
<path d="M26.6396 36.2026H25.4816C24.7914 36.2026 24.2316 36.7623 24.2316 37.4526C24.2316 38.143 24.7914 38.7026 25.4816 38.7026H26.6396C27.3299 38.7026 27.8896 38.143 27.8896 37.4526C27.8896 36.7623 27.3299 36.2026 26.6396 36.2026Z" fill="black"/>
<path d="M38.8619 26.5105C39.5522 26.5105 40.1119 25.9509 40.1119 25.2605V24.1025C40.1119 23.4122 39.5522 22.8525 38.8619 22.8525C38.1717 22.8525 37.6119 23.4122 37.6119 24.1025V25.2605C37.6119 25.9509 38.1717 26.5105 38.8619 26.5105Z" fill="black"/>
<path d="M38.8316 48.4248C38.1413 48.4248 37.5816 48.9844 37.5816 49.6748V50.8328C37.5816 51.5232 38.1413 52.0828 38.8316 52.0828C39.5218 52.0828 40.0816 51.5232 40.0816 50.8328V49.6748C40.0816 48.9844 39.5218 48.4248 38.8316 48.4248Z" fill="black"/>
<path d="M1.34607 43.9307C1.01732 43.9307 0.694819 44.0644 0.462319 44.2969C0.229819 44.5294 0.0960693 44.8519 0.0960693 45.1807C0.0960693 45.5107 0.229694 45.8319 0.462319 46.0644C0.694944 46.2969 1.01732 46.4307 1.34607 46.4307C1.67482 46.4307 1.99732 46.2969 2.22969 46.0644C2.46219 45.8319 2.59607 45.5094 2.59607 45.1807C2.59607 44.8519 2.46232 44.5294 2.22969 44.2969C1.99732 44.0644 1.67482 43.9307 1.34607 43.9307Z" fill="black"/>
</g>
<defs>
<clipPath id="clip0">
<rect width="64" height="64" fill="white" transform="translate(0.0960693)"/>
</clipPath>
</defs>
</svg>
