<svg width="65" height="65" viewBox="0 0 65 65" fill="none" xmlns="http://www.w3.org/2000/svg">
<path d="M51.5474 32.5V38.5H39.5474V32.5C39.8101 32.5002 40.0702 32.4486 40.3129 32.3481C40.5557 32.2477 40.7762 32.1004 40.962 31.9146C41.1477 31.7289 41.295 31.5083 41.3955 31.2656C41.4959 31.0228 41.5475 30.7627 41.5474 30.5V28.5H49.5474V30.5C49.547 30.7627 49.5985 31.023 49.6989 31.2658C49.7993 31.5086 49.9466 31.7292 50.1324 31.915C50.3182 32.1008 50.5388 32.2481 50.7816 32.3485C51.0244 32.4489 51.2846 32.5003 51.5474 32.5Z" fill="#FDC8A2"/>
<path d="M49.7061 31.28C48.4122 32.0072 46.9661 32.4215 45.4835 32.4899C44.0008 32.5583 42.5227 32.2788 41.1674 31.6737C41.4149 31.3325 41.5479 30.9216 41.5474 30.5V28.5H49.5474V30.5C49.547 30.7681 49.601 31.0334 49.7061 31.28Z" fill="#FDBF92"/>
<path d="M31.0387 36.2716L28.5474 42.5H36.5474V57.5H54.5474V42.5H61.5474V38.5C61.5474 36.9087 60.9152 35.3826 59.79 34.2574C58.6648 33.1321 57.1387 32.5 55.5474 32.5H51.5474L50.4256 33.9956C49.8424 34.7732 49.0862 35.4043 48.2168 35.839C47.3475 36.2737 46.3888 36.5 45.4169 36.5C44.2541 36.5 43.1143 36.1762 42.1253 35.5649C41.1362 34.9536 40.3369 34.079 39.8169 33.039L39.5474 32.5H36.6099C35.4107 32.4999 34.239 32.8592 33.2459 33.5315C32.2529 34.2038 31.4841 35.1582 31.0387 36.2716Z" fill="#DE5540"/>
<path d="M30.5474 57.5H22.5474L28.5474 42.5H36.5474L30.5474 57.5Z" fill="#FDC8A2"/>
<path d="M54.5474 22.5H52.5474V16.5H54.5474C55.343 16.5 56.1061 16.8161 56.6687 17.3787C57.2313 17.9413 57.5474 18.7043 57.5474 19.5C57.5474 20.2956 57.2313 21.0587 56.6687 21.6213C56.1061 22.1839 55.343 22.5 54.5474 22.5Z" fill="#FDB683"/>
<path d="M35.5474 16.5H37.5474V22.5H35.5474C34.7517 22.5 33.9887 22.1839 33.426 21.6213C32.8634 21.0587 32.5474 20.2957 32.5474 19.5C32.5474 18.7044 32.8634 17.9413 33.426 17.3787C33.9887 16.8161 34.7517 16.5 35.5474 16.5Z" fill="#FDB683"/>
<path d="M41.5474 8.5H48.5474C50.1387 8.5 51.6648 9.13214 52.79 10.2574C53.9152 11.3826 54.5474 12.9087 54.5474 14.5V21C54.5474 23.5196 53.5465 25.9359 51.7649 27.7175C49.9833 29.4991 47.5669 30.5 45.0474 30.5C42.5278 30.5 40.1114 29.4991 38.3298 27.7175C36.5483 25.9359 35.5474 23.5196 35.5474 21V14.5C35.5474 12.9087 36.1795 11.3826 37.3047 10.2574C38.4299 9.13214 39.9561 8.5 41.5474 8.5Z" fill="#FDC8A2"/>
<path d="M54.5474 16.5L52.3421 15.7649C51.2371 15.3965 50.276 14.6898 49.595 13.7449C48.9139 12.8 48.5474 11.6648 48.5474 10.5V5.5C50.1387 5.5 51.6648 6.13214 52.79 7.25736C53.9152 8.38258 54.5474 9.9087 54.5474 11.5V16.5Z" fill="#7D4A38"/>
<path d="M48.5474 5.5V10.5C46.6019 11.7977 44.4757 12.8015 42.2374 13.4788C39.9996 14.1561 37.6742 14.5002 35.3361 14.5H33.5474V11.5C33.5474 9.37827 34.3902 7.34344 35.8905 5.84315C37.3908 4.34285 39.4256 3.5 41.5474 3.5H45.3111C45.9831 3.49989 46.6418 3.68695 47.2134 4.0402C47.785 4.39346 48.2469 4.89895 48.5474 5.5Z" fill="#844E3A"/>
<path d="M40.5474 20.5C40.1518 20.5 39.7651 20.3827 39.4362 20.1629C39.1073 19.9432 38.851 19.6308 38.6996 19.2654C38.5482 18.8999 38.5086 18.4978 38.5858 18.1098C38.663 17.7219 38.8534 17.3655 39.1331 17.0858C39.4129 16.8061 39.7692 16.6156 40.1572 16.5384C40.5451 16.4613 40.9473 16.5009 41.3127 16.6522C41.6782 16.8036 41.9905 17.06 42.2103 17.3889C42.4301 17.7178 42.5474 18.1044 42.5474 18.5C42.5467 19.0302 42.3358 19.5386 41.9609 19.9135C41.586 20.2885 41.0776 20.4994 40.5474 20.5Z" fill="#844E3A"/>
<path d="M48.5474 20.5C48.1518 20.5 47.7651 20.3827 47.4362 20.1629C47.1073 19.9432 46.851 19.6308 46.6996 19.2654C46.5482 18.8999 46.5086 18.4978 46.5858 18.1098C46.663 17.7219 46.8534 17.3655 47.1331 17.0858C47.4129 16.8061 47.7692 16.6156 48.1572 16.5384C48.5451 16.4613 48.9473 16.5009 49.3127 16.6522C49.6782 16.8036 49.9905 17.06 50.2103 17.3889C50.4301 17.7178 50.5474 18.1044 50.5474 18.5C50.5467 19.0302 50.3358 19.5386 49.9609 19.9135C49.586 20.2885 49.0776 20.4994 48.5474 20.5Z" fill="#844E3A"/>
<path d="M44.5474 24.5028C43.2888 24.5034 42.057 24.1382 41.002 23.4518L42.0928 21.7754C42.8234 22.2504 43.676 22.5032 44.5474 22.5032C45.4188 22.5032 46.2715 22.2504 47.002 21.7754L48.0928 23.4518C47.0378 24.1382 45.8061 24.5034 44.5474 24.5028Z" fill="#FCB079"/>
<path d="M3.54736 57.5H61.5474V61.5H3.54736V57.5Z" fill="#844E3A"/>
<path d="M34.5474 25.5H6.54736C4.89051 25.5 3.54736 26.8431 3.54736 28.5V46.5C3.54736 48.1569 4.89051 49.5 6.54736 49.5H34.5474C36.2042 49.5 37.5474 48.1569 37.5474 46.5V28.5C37.5474 26.8431 36.2042 25.5 34.5474 25.5Z" fill="#D5D5D3"/>
<path d="M20.5474 49.5H24.5474L23.5474 43.5H20.5474V49.5Z" fill="#CECECC"/>
<path d="M14.5474 53.5H26.5474V57.5H14.5474V53.5Z" fill="#D5D5D3"/>
<path d="M20.5474 57.5H10.5474L16.5474 43.5H23.5474L20.5474 57.5Z" fill="#DFDFDD"/>
<path d="M30.5474 53.5H42.5474V57.5H30.5474V53.5Z" fill="#D5D5D3"/>
<path d="M54.5474 42.5V50.5H41.5474C40.4865 50.5 39.4691 50.9214 38.7189 51.6716C37.9688 52.4217 37.5474 53.4391 37.5474 54.5V56.5C37.5474 56.7652 37.6527 57.0196 37.8403 57.2071C38.0278 57.3946 38.2821 57.5 38.5474 57.5H54.5474C56.4039 57.5 58.1844 56.7625 59.4971 55.4497C60.8099 54.137 61.5474 52.3565 61.5474 50.5V42.5H54.5474Z" fill="#FDC8A2"/>
<path d="M55.5474 31.5H51.5474C51.416 31.5003 51.2858 31.4747 51.1643 31.4245C51.0428 31.3744 50.9325 31.3008 50.8396 31.2078C50.7466 31.1149 50.673 31.0045 50.6228 30.8831C50.5727 30.7616 50.5471 30.6314 50.5474 30.5V29.9395C52.9151 28.4789 54.6089 26.141 55.259 23.436C56.1566 23.2738 56.9719 22.8097 57.5696 22.1207C58.1672 21.4316 58.5114 20.5589 58.5451 19.6474C58.5788 18.7358 58.2999 17.8401 57.7546 17.1088C57.2094 16.3776 56.4306 15.8546 55.5474 15.6267V11.5C55.545 9.74575 54.8849 8.05613 53.6972 6.76498C52.5096 5.47382 50.881 4.67503 49.133 4.5264C48.7117 3.90039 48.1426 3.38795 47.4759 3.03448C46.8093 2.68102 46.0658 2.49744 45.3112 2.50003H41.5474C39.1612 2.50271 36.8736 3.45178 35.1864 5.13903C33.4991 6.82627 32.55 9.1139 32.5474 11.5V14.5C32.5474 14.7652 32.6527 15.0196 32.8403 15.2071C33.0278 15.3947 33.2821 15.5 33.5474 15.5H34.5474V15.6262C33.6645 15.8541 32.8861 16.3767 32.3409 17.1076C31.7958 17.8384 31.5167 18.7335 31.5498 19.6447C31.583 20.5558 31.9265 21.4283 32.5233 22.1176C33.1202 22.8069 33.9346 23.2715 34.8316 23.4347C34.8576 23.5444 34.8854 23.6537 34.9149 23.7625L36.8447 23.2375C36.6468 22.5082 36.5468 21.7557 36.5474 21V15.4698C40.4963 15.281 44.3423 14.1475 47.7624 12.1644C48.0382 13.2176 48.5726 14.1854 49.3171 14.9798C50.0616 15.7742 50.9927 16.3701 52.0259 16.7135L53.5474 17.2208V21C53.5472 22.5596 53.118 24.0892 52.3067 25.4212C51.4955 26.7531 50.3334 27.8363 48.9477 28.552C47.562 29.2677 46.0061 29.5884 44.4503 29.4791C42.8946 29.3697 41.3989 28.8344 40.127 27.9318L38.9677 29.5615C39.4664 29.9157 39.9949 30.2258 40.5474 30.4881V30.5C40.5471 30.7652 40.4416 31.0193 40.2541 31.2068C40.0667 31.3943 39.8125 31.4997 39.5474 31.5H38.5474V28.5C38.5462 27.4395 38.1244 26.4228 37.3745 25.6729C36.6246 24.923 35.6079 24.5012 34.5474 24.5H6.54736C5.48686 24.5012 4.47014 24.923 3.72025 25.6729C2.97036 26.4228 2.54855 27.4395 2.54736 28.5V31.5H4.54736V28.5C4.54799 27.9698 4.75891 27.4614 5.13384 27.0865C5.50878 26.7116 6.01712 26.5007 6.54736 26.5H34.5474C35.0776 26.5007 35.5859 26.7116 35.9609 27.0865C36.3358 27.4614 36.5467 27.9698 36.5474 28.5V46.5C36.5467 47.0303 36.3358 47.5386 35.9609 47.9135C35.5859 48.2885 35.0776 48.4994 34.5474 48.5H23.4986L24.5251 43.7095C24.5564 43.5637 24.5546 43.4128 24.52 43.2678C24.4853 43.1228 24.4187 42.9873 24.325 42.8714C24.2312 42.7554 24.1128 42.6619 23.9782 42.5976C23.8437 42.5334 23.6965 42.5 23.5474 42.5H16.5474C16.3517 42.5 16.1603 42.5575 15.9969 42.6652C15.8335 42.7729 15.7053 42.9263 15.6282 43.1061L13.3166 48.5H6.54736C6.01712 48.4994 5.50878 48.2885 5.13384 47.9135C4.75891 47.5386 4.54799 47.0303 4.54736 46.5V33.5H2.54736V46.5C2.54855 47.5605 2.97036 48.5772 3.72025 49.3271C4.47014 50.077 5.48686 50.4988 6.54736 50.5H12.4599L9.88799 56.5H3.54736C3.28215 56.5 3.02779 56.6054 2.84026 56.7929C2.65272 56.9805 2.54736 57.2348 2.54736 57.5V61.5C2.54736 61.7652 2.65272 62.0196 2.84026 62.2071C3.02779 62.3947 3.28215 62.5 3.54736 62.5H61.5474C61.8126 62.5 62.0669 62.3947 62.2545 62.2071C62.442 62.0196 62.5474 61.7652 62.5474 61.5V57.5C62.5474 57.2348 62.442 56.9805 62.2545 56.7929C62.0669 56.6054 61.8126 56.5 61.5474 56.5H59.8304C60.6841 55.7508 61.3681 54.8281 61.8367 53.7934C62.3052 52.7587 62.5475 51.6359 62.5474 50.5V49.5H60.5474V50.5C60.5455 52.0908 59.9128 53.6158 58.788 54.7407C57.6632 55.8655 56.1381 56.4982 54.5474 56.5H38.5474V54.5C38.5483 53.7047 38.8647 52.9421 39.4271 52.3797C39.9895 51.8173 40.752 51.5009 41.5474 51.5H54.5474C54.8126 51.5 55.0669 51.3947 55.2545 51.2071C55.442 51.0196 55.5474 50.7652 55.5474 50.5V43.5H60.5474V47.5H62.5474V38.5C62.5452 36.6442 61.8071 34.8649 60.4948 33.5526C59.1825 32.2403 57.4032 31.5021 55.5474 31.5ZM55.5474 21V17.7706C55.8129 17.9237 56.0397 18.1358 56.2101 18.3905C56.3805 18.6453 56.4901 18.9358 56.5302 19.2396C56.5703 19.5435 56.54 19.8525 56.4415 20.1427C56.343 20.433 56.1791 20.6967 55.9624 20.9134C55.8367 21.038 55.6952 21.1457 55.5415 21.2335C55.5431 21.1556 55.5474 21.0783 55.5474 21ZM33.5474 19.5C33.5468 19.2375 33.5983 18.9775 33.6987 18.7349C33.7991 18.4923 33.9465 18.272 34.1324 18.0866C34.2564 17.9636 34.3959 17.8573 34.5474 17.7702V21C34.5474 21.0774 34.5495 21.1545 34.5512 21.2318C34.2465 21.0568 33.9933 20.8045 33.8171 20.5005C33.6408 20.1965 33.5478 19.8514 33.5474 19.5ZM47.5474 9.95753C43.8966 12.2753 39.6606 13.5042 35.3362 13.5H34.5474V12.3862C43.1077 11.265 46.1261 8.3354 46.2545 8.20715L44.8466 6.78665C44.8394 6.79365 44.112 7.48528 42.3564 8.28478C40.8795 8.9574 38.3849 9.83153 34.6425 10.355C34.749 9.70883 34.9464 9.08095 35.2287 8.49003C38.97 8.3844 40.9094 7.43703 40.9946 7.3944L40.1056 5.6029C40.0914 5.6099 38.9719 6.1394 36.7794 6.38153C38.0722 5.17177 39.7768 4.49911 41.5474 4.50003H45.3112C45.7607 4.49842 46.2029 4.61327 46.5948 4.83338C46.9867 5.0535 47.3149 5.37137 47.5474 5.75603V9.95753ZM52.6584 14.8163C51.752 14.5151 50.9635 13.9359 50.4051 13.1611C49.8466 12.3863 49.5465 11.4551 49.5474 10.5V6.60003C50.676 6.8321 51.69 7.44618 52.4187 8.33875C53.1473 9.23133 53.5459 10.3478 53.5474 11.5V15.1125L52.6584 14.8163ZM42.4687 31.1799C44.4874 31.6899 46.612 31.5887 48.5731 30.8893C48.6575 31.5459 48.9577 32.1559 49.4265 32.6233C49.574 32.7703 49.7363 32.9017 49.9109 33.0154L49.6259 33.3953C49.1193 34.0726 48.4568 34.6176 47.6945 34.984C46.9322 35.3504 46.0928 35.5273 45.2475 35.4998C44.4021 35.4723 43.576 35.2411 42.8391 34.8259C42.1023 34.4107 41.4766 33.8237 41.0152 33.1149C41.3782 32.9105 41.6948 32.633 41.945 32.2999C42.1952 31.9668 42.3736 31.5855 42.4687 31.1799ZM36.5474 54.5V56.5H31.5474V54.5H36.5474ZM34.4244 50.5H34.5474C34.8847 50.5002 35.2207 50.4577 35.5474 50.3734V52.5H33.6244L34.4244 50.5ZM26.4244 50.5H32.2704L31.4704 52.5H30.5474C30.2821 52.5 30.0278 52.6054 29.8403 52.7929C29.6527 52.9805 29.5474 53.2348 29.5474 53.5V56.5H27.5474V53.5C27.5474 53.2348 27.442 52.9805 27.2545 52.7929C27.0669 52.6054 26.8126 52.5 26.5474 52.5H25.6244L26.4244 50.5ZM23.07 50.5H24.27L23.47 52.5H22.6411L23.07 50.5ZM25.5474 54.5V56.5H21.7849L22.2134 54.5H25.5474ZM17.2067 44.5H22.3099L19.7385 56.5H12.0635L17.2067 44.5ZM60.5474 58.5V60.5H4.54736V58.5H60.5474ZM60.5474 41.5H55.5474V38.5H53.5474V49.5H41.5474C40.7708 49.5001 40.0049 49.6812 39.3106 50.029C38.6162 50.3768 38.0125 50.8816 37.5474 51.5035V49.141C38.1921 48.4124 38.5478 47.473 38.5474 46.5V33.5H38.93C39.4852 34.6048 40.3133 35.5494 41.3359 36.2444C42.3585 36.9394 43.5416 37.3618 44.7731 37.4714C46.0047 37.5811 47.2438 37.3745 48.3731 36.8711C49.5024 36.3677 50.4844 35.5843 51.2261 34.595L52.0474 33.5H55.5474C56.873 33.5015 58.1439 34.0288 59.0813 34.9661C60.0186 35.9035 60.5459 37.1744 60.5474 38.5V41.5ZM49.4702 38.6L50.3421 40.4C48.726 41.1827 46.9428 41.5579 45.1483 41.4928C43.3538 41.4276 41.6025 40.9241 40.0474 40.0263L41.0474 38.2943C42.3197 39.0289 43.7526 39.4408 45.2209 39.4941C46.6891 39.5474 48.1481 39.2404 49.4704 38.6H49.4702ZM42.5474 18.5C42.5474 18.8956 42.4301 19.2823 42.2103 19.6112C41.9905 19.9401 41.6782 20.1964 41.3127 20.3478C40.9473 20.4992 40.5451 20.5388 40.1572 20.4616C39.7692 20.3844 39.4129 20.1939 39.1331 19.9142C38.8534 19.6345 38.663 19.2782 38.5858 18.8902C38.5086 18.5022 38.5482 18.1001 38.6996 17.7347C38.851 17.3692 39.1073 17.0568 39.4362 16.8371C39.7651 16.6173 40.1518 16.5 40.5474 16.5C41.0776 16.5007 41.5859 16.7116 41.9609 17.0865C42.3358 17.4614 42.5467 17.9698 42.5474 18.5ZM46.5474 18.5C46.5474 18.1045 46.6647 17.7178 46.8844 17.3889C47.1042 17.06 47.4165 16.8036 47.782 16.6523C48.1474 16.5009 48.5496 16.4613 48.9375 16.5385C49.3255 16.6156 49.6819 16.8061 49.9616 17.0858C50.2413 17.3655 50.4318 17.7219 50.5089 18.1098C50.5861 18.4978 50.5465 18.8999 50.3951 19.2654C50.2437 19.6308 49.9874 19.9432 49.6585 20.163C49.3296 20.3827 48.9429 20.5 48.5474 20.5C48.0171 20.4994 47.5088 20.2885 47.1338 19.9135C46.7589 19.5386 46.548 19.0303 46.5474 18.5ZM47.002 21.775L48.0927 23.4514C47.0375 24.1373 45.8059 24.5024 44.5474 24.5024C43.2888 24.5024 42.0572 24.1373 41.002 23.4514L42.0927 21.775C42.8233 22.25 43.676 22.5028 44.5474 22.5028C45.4188 22.5028 46.2714 22.25 47.002 21.775ZM16.5474 31.5H12.5474V29.5H16.5474V31.5ZM22.5474 29.5V31.5H18.5474V29.5H22.5474ZM28.5474 29.5V31.5H24.5474V29.5H28.5474ZM34.5474 31.5H30.5474V29.5H34.5474V31.5ZM10.5474 29.5V31.5H6.54736V29.5H10.5474Z" fill="black"/>
</svg>
