<svg width="65" height="65" viewBox="0 0 65 65" fill="none" xmlns="http://www.w3.org/2000/svg">
<g clip-path="url(#clip0)">
<path d="M63.6099 58.5996H43.2312V50.4929C43.2312 46.5846 46.3994 43.4165 50.3075 43.4165H56.5334C60.4417 43.4165 63.6098 46.5848 63.6098 50.4929V58.5996H63.6099Z" fill="#27D1B3"/>
<path d="M56.3466 52.9105L53.9131 55.0499C53.6314 55.2975 53.2096 55.2975 52.9279 55.0499L50.4944 52.9105C50.2835 52.7251 50.1945 52.437 50.2642 52.1649L52.5057 43.4165H54.3354L56.5769 52.1649C56.6465 52.4369 56.5575 52.725 56.3466 52.9105Z" fill="#FB4A59"/>
<path d="M63.6098 50.4929V58.5996H59.9267V50.4929C59.9267 46.5858 56.7576 43.4165 52.8503 43.4165H56.5335C60.4407 43.4166 63.6098 46.5858 63.6098 50.4929Z" fill="#20B69F"/>
<path d="M53.4205 44.0409C50.2344 44.0409 47.6515 41.458 47.6515 38.2719V36.1894C47.6515 33.0033 50.2344 30.4204 53.4205 30.4204C56.6066 30.4204 59.1895 33.0033 59.1895 36.1894V38.2719C59.1895 41.458 56.6066 44.0409 53.4205 44.0409Z" fill="#FFCEC0"/>
<path d="M59.1896 36.1899V38.2718C59.1896 41.4579 56.6067 44.0408 53.4206 44.0408C52.7833 44.0408 52.1688 43.937 51.5948 43.7457C53.8858 42.9804 55.5365 40.819 55.5365 38.2718V36.1899C55.5365 34.5976 54.8911 33.1546 53.847 32.1104C53.2211 31.4845 52.4542 31.003 51.5948 30.716C52.1688 30.5246 52.7833 30.4209 53.4206 30.4209C55.0128 30.4209 56.4558 31.0663 57.5001 32.1104C58.5442 33.1546 59.1896 34.5976 59.1896 36.1899Z" fill="#FDB0A0"/>
<path d="M21.8636 58.5996H1.48486V50.4929C1.48486 46.5846 4.65311 43.4165 8.56124 43.4165H14.7871C18.6954 43.4165 21.8635 46.5848 21.8635 50.4929V58.5996H21.8636Z" fill="#FB4A59"/>
<path d="M14.6003 52.9105L12.1668 55.0499C11.8851 55.2975 11.4633 55.2975 11.1816 55.0499L8.74808 52.9105C8.53721 52.7251 8.44821 52.437 8.51796 52.1649L10.7595 43.4165H12.5891L14.8306 52.1649C14.9002 52.4369 14.8112 52.725 14.6003 52.9105Z" fill="#F8F3F1"/>
<path d="M21.8635 50.4929V58.5996H18.1804V50.4929C18.1804 46.5858 15.0113 43.4165 11.104 43.4165H14.7872C18.6944 43.4166 21.8635 46.5858 21.8635 50.4929Z" fill="#F82F40"/>
<path d="M11.6742 44.0409C8.48806 44.0409 5.90518 41.458 5.90518 38.2719V36.1894C5.90518 33.0033 8.48806 30.4204 11.6742 30.4204C14.8603 30.4204 17.4432 33.0033 17.4432 36.1894V38.2719C17.4432 41.458 14.8603 44.0409 11.6742 44.0409Z" fill="#FFCEC0"/>
<path d="M17.4432 36.1899V38.2718C17.4432 41.4579 14.8604 44.0408 11.6742 44.0408C11.037 44.0408 10.4225 43.937 9.84848 43.7457C12.1395 42.9804 13.7901 40.819 13.7901 38.2718V36.1899C13.7901 34.5976 13.1447 33.1546 12.1006 32.1104C11.4747 31.4845 10.7079 31.003 9.84848 30.716C10.4225 30.5246 11.037 30.4209 11.6742 30.4209C13.2665 30.4209 14.7095 31.0663 15.7537 32.1104C16.7979 33.1546 17.4432 34.5976 17.4432 36.1899Z" fill="#FDB0A0"/>
<path d="M46.8651 62.5369H18.2296V50.0818C18.2296 44.5901 22.6815 40.1382 28.1732 40.1382H36.9217C42.4134 40.1382 46.8654 44.5901 46.8654 50.0818V62.5369H46.8651Z" fill="#0D5F7F"/>
<path d="M46.8651 50.0817V62.5368H41.6896V50.0817C41.6896 44.5914 37.2363 40.1382 31.7461 40.1382H36.9216C42.412 40.1383 46.8651 44.5914 46.8651 50.0817Z" fill="#094C66"/>
<path d="M40.1829 40.6864L32.5474 55.2293L24.9119 40.6864C25.9334 40.3327 27.0319 40.1392 28.1741 40.1392H36.9206C38.0629 40.1392 39.1614 40.3327 40.1829 40.6864Z" fill="white"/>
<path d="M36.4442 47.8059L32.5474 55.2293L28.6507 47.8059L31.4572 40.1392H33.6377L36.4442 47.8059Z" fill="#FB4A59"/>
<path d="M22.4712 33.6727C24.1668 33.6727 25.5414 32.2981 25.5414 30.6025C25.5414 28.9068 24.1668 27.5322 22.4712 27.5322C20.7755 27.5322 19.4009 28.9068 19.4009 30.6025C19.4009 32.2981 20.7755 33.6727 22.4712 33.6727Z" fill="#FDB0A0"/>
<path d="M42.6234 33.6727C44.3191 33.6727 45.6937 32.2981 45.6937 30.6025C45.6937 28.9068 44.3191 27.5322 42.6234 27.5322C40.9278 27.5322 39.5532 28.9068 39.5532 30.6025C39.5532 32.2981 40.9278 33.6727 42.6234 33.6727Z" fill="#F69583"/>
<path d="M32.5473 41.0156C28.0703 41.0156 24.4409 37.3862 24.4409 32.9092V29.9828C24.4409 25.5058 28.0703 21.8765 32.5473 21.8765C37.0243 21.8765 40.6537 25.5058 40.6537 29.9828V32.9092C40.6537 37.3862 37.0243 41.0156 32.5473 41.0156Z" fill="#FFCEC0"/>
<path d="M40.654 29.9826V32.9082C40.654 37.3869 37.0242 41.0147 32.5475 41.0147C31.8771 41.0147 31.2236 40.934 30.6002 40.7781C34.1361 39.9069 36.7576 36.7145 36.7576 32.9082V29.9826C36.7576 27.7442 35.8506 25.7181 34.3822 24.2496C33.3551 23.2225 32.0556 22.4714 30.6003 22.1126C31.2237 21.9567 31.8772 21.876 32.5476 21.876C34.786 21.876 36.8121 22.783 38.2806 24.2495C39.747 25.7181 40.654 27.7444 40.654 29.9826Z" fill="#FDB0A0"/>
<path d="M43.3067 27.7961C41.6831 27.9572 38.4456 28.1312 35.6703 27.3757C33.6972 26.8386 32.3438 25.0232 32.3438 22.9782V19.8843C32.3438 18.3156 33.6154 17.0439 35.1842 17.0439H37.3209C41.2017 17.0439 44.3477 20.1899 44.3477 24.0707V26.6463C44.3477 27.2408 43.8982 27.7374 43.3067 27.7961Z" fill="#7A7179"/>
<path d="M44.348 24.0715V26.6471C44.348 27.2401 43.8987 27.7373 43.3057 27.7956C42.1863 27.908 40.3014 28.0245 38.327 27.8372C38.4914 27.8226 38.6433 27.8101 38.7848 27.7956C39.3757 27.7373 39.825 27.2401 39.825 26.6471V24.0715C39.825 20.6906 37.4408 17.8695 34.2638 17.1975C34.5509 17.0976 34.8609 17.0435 35.1834 17.0435H37.3202C41.2023 17.0435 44.348 20.1892 44.348 24.0715Z" fill="#685E67"/>
<path d="M21.7777 28.1105C23.6165 28.3047 27.588 28.5573 30.9755 27.6352C33.3014 27.002 34.8967 24.8622 34.8967 22.4515V18.8047C34.8967 16.9555 33.3977 15.4565 31.5485 15.4565H29.0298C24.4553 15.4565 20.7469 19.1649 20.7469 23.7394V26.9622C20.7469 27.5518 21.191 28.0485 21.7777 28.1105Z" fill="#9B8F99"/>
<path d="M34.8962 18.8037V22.4508C34.8962 24.8622 33.3004 27.0031 30.9764 27.6354C28.1782 28.3969 24.9824 28.3574 22.9207 28.2117C24.0837 28.1202 25.2842 27.9433 26.418 27.6354C28.744 27.0029 30.3398 24.8621 30.3398 22.4508V18.8037C30.3398 17.2267 29.2475 15.9034 27.7787 15.5497C28.1864 15.4873 28.6047 15.4561 29.029 15.4561H31.5485C33.3982 15.4562 34.8962 16.9562 34.8962 18.8037Z" fill="#8B8088"/>
<path d="M18.0515 25.3251C24.3646 25.3251 29.4824 20.2074 29.4824 13.8943C29.4824 7.58116 24.3646 2.46338 18.0515 2.46338C11.7384 2.46338 6.62067 7.58116 6.62067 13.8943C6.62067 20.2074 11.7384 25.3251 18.0515 25.3251Z" fill="#27D1B3"/>
<path d="M29.483 13.8939C29.483 20.207 24.365 25.325 18.0518 25.325C17.0015 25.325 15.9851 25.1839 15.0193 24.918C21.0901 24.898 26.0058 19.9694 26.0058 13.8939C26.0058 7.81837 21.089 2.88974 15.017 2.87087C15.9838 2.60499 17.0013 2.46387 18.0517 2.46387C24.365 2.46387 29.483 7.58074 29.483 13.8939Z" fill="#20B69F"/>
<path d="M14.995 19.4874L10.8928 15.3851C10.6632 15.1555 10.6632 14.783 10.8928 14.5534L12.5869 12.8593C12.8165 12.6296 13.189 12.6296 13.4187 12.8593L15.8267 15.2673L22.684 8.41001C22.9137 8.18039 23.2862 8.18039 23.5158 8.41001L25.2099 10.1041C25.4395 10.3338 25.4395 10.7063 25.2099 10.9359L16.6584 19.4874C16.1993 19.9468 15.4544 19.9468 14.995 19.4874Z" fill="#BCEA73"/>
<path d="M58.4419 42.7104C59.4892 41.5269 60.127 39.9728 60.127 38.2718V36.1891C60.127 32.4913 57.1185 29.4826 53.4205 29.4826C49.7225 29.4826 46.714 32.4911 46.714 36.1891V38.2718C46.714 39.9733 47.352 41.5278 48.4 42.7114C47.4865 42.9354 46.6171 43.3188 45.8335 43.8461C44.5422 42.0063 42.6965 40.5829 40.5409 39.8204C40.5075 39.8065 40.4737 39.7944 40.4396 39.7846C39.9297 39.61 39.4031 39.472 38.8625 39.3743C40.1984 38.0691 41.1316 36.3553 41.4596 34.4366C41.8334 34.5499 42.2239 34.6101 42.6235 34.6101C44.8334 34.6101 46.6312 32.8123 46.6312 30.6024C46.6312 29.3589 46.0595 28.2148 45.1179 27.4666C45.2249 27.2143 45.2852 26.9375 45.2852 26.6465V24.0709C45.2852 19.6794 41.7125 16.1068 37.3211 16.1068H35.1844C35.0846 16.1068 34.9849 16.1119 34.8855 16.1196C34.0992 15.1445 32.896 14.519 31.5487 14.519H30.4025C30.4129 14.3114 30.42 14.1033 30.42 13.8943C30.42 7.07425 24.8715 1.52588 18.0516 1.52588C11.2317 1.52588 5.68324 7.07438 5.68324 13.8943C5.68324 20.7141 11.2317 26.2626 18.0516 26.2626C18.6437 26.2626 19.2307 26.2198 19.8096 26.1374V26.962C19.8096 27.1611 19.8375 27.354 19.8894 27.5369C18.995 28.2895 18.4636 29.4039 18.4636 30.6023C18.4636 32.8121 20.2615 34.61 22.4714 34.61C22.8711 34.61 23.2616 34.5495 23.6352 34.4364C23.9632 36.3555 24.897 38.0698 26.2334 39.3751C25.7021 39.4716 25.184 39.607 24.682 39.7781C24.6295 39.7915 24.5777 39.8098 24.5269 39.8328C22.3864 40.5995 20.551 42.0203 19.2645 43.8525C18.4929 43.3301 17.626 42.9389 16.6957 42.7103C17.7432 41.5268 18.3809 39.9726 18.3809 38.2715V36.1889C18.3809 32.491 15.3724 29.4824 11.6744 29.4824C7.97649 29.4824 4.96799 32.4909 4.96799 36.1889V38.2715C4.96799 39.9725 5.60574 41.5266 6.65311 42.7101C3.15261 43.5689 0.547363 46.7315 0.547363 50.4928V58.5995C0.547363 59.1173 0.967113 59.537 1.48486 59.537C2.00261 59.537 2.42236 59.1173 2.42236 58.5995V50.4928C2.42236 47.1078 5.17624 44.3539 8.56124 44.3539H8.85336C9.05886 44.4495 9.26986 44.5348 9.48599 44.6096L7.60986 51.9323C7.45174 52.5494 7.65074 53.194 8.12911 53.6145L10.5627 55.7539C10.8796 56.0324 11.2769 56.1716 11.6742 56.1716C12.0716 56.1716 12.469 56.0324 12.7859 55.7539L15.2195 53.6145C15.6979 53.1939 15.8967 52.5493 15.7386 51.9323L13.8625 44.6096C14.0786 44.5348 14.2896 44.4495 14.4951 44.3539H14.7871C16.102 44.3539 17.321 44.7704 18.321 45.477C17.6724 46.856 17.3045 48.391 17.2937 50.0084C17.2904 50.5261 17.7072 50.9486 18.225 50.9521H18.2314C18.7462 50.9521 19.1654 50.5365 19.1687 50.0209C19.1927 46.404 21.3724 43.284 24.4774 41.8756L31.6099 55.4603V62.5295C31.6099 63.0473 32.0296 63.467 32.5474 63.467C33.0651 63.467 33.4849 63.0473 33.4849 62.5295V55.4603L40.6187 41.8728C43.7454 43.2866 45.9276 46.433 45.9276 50.0816V62.5369C45.9276 63.0546 46.3474 63.4744 46.8651 63.4744C47.3829 63.4744 47.8026 63.0546 47.8026 62.5369V50.0816C47.8026 48.4345 47.434 46.8721 46.7761 45.4714C47.8052 44.7476 49.0391 44.3538 50.3075 44.3538H50.5995C50.805 44.4494 51.0161 44.5348 51.2321 44.6095L49.3559 51.932C49.1977 52.549 49.3967 53.1936 49.8752 53.6144L52.3089 55.7538C52.6257 56.0323 53.023 56.1715 53.4204 56.1715C53.8177 56.1715 54.2151 56.0323 54.532 55.7538L56.9655 53.6144C57.444 53.1938 57.643 52.5491 57.4849 51.9321L57.1852 50.7626C57.0569 50.2611 56.5465 49.959 56.0445 50.0871C55.5429 50.2156 55.2405 50.7264 55.369 51.228L55.6395 52.2839L53.4205 54.2346L51.2015 52.2839L53.0756 44.9694C53.1899 44.9753 53.3049 44.9781 53.4205 44.9781C53.5361 44.9781 53.6512 44.9751 53.7655 44.9694L54.2419 46.8285C54.3504 47.252 54.7314 47.5336 55.1494 47.5336C55.2264 47.5336 55.3047 47.524 55.3827 47.504C55.8844 47.3755 56.1867 46.8648 56.0582 46.3633L55.609 44.6098C55.8266 44.5344 56.0394 44.4485 56.2462 44.3519C56.2602 44.3525 56.274 44.354 56.2882 44.354H56.5337C59.9187 44.354 62.6726 47.1079 62.6726 50.4929V58.5996C62.6726 59.1174 63.0924 59.5371 63.6101 59.5371C64.1279 59.5371 64.5476 59.1174 64.5476 58.5996V50.4929C64.5474 46.7315 61.9421 43.5689 58.4419 42.7104ZM6.84274 36.1891C6.84274 33.525 9.01011 31.3576 11.6742 31.3576C14.3384 31.3576 16.5057 33.525 16.5057 36.1891V38.2718C16.5057 40.9359 14.3384 43.1033 11.6742 43.1033C9.01011 43.1033 6.84286 40.9359 6.84286 38.2718V36.1891H6.84274ZM13.8932 52.2839L11.6744 54.2346L9.45524 52.2839L11.3292 44.9694C11.4435 44.9753 11.5585 44.9781 11.6742 44.9781C11.7899 44.9781 11.9049 44.9751 12.0191 44.9694L13.8932 52.2839ZM42.6235 32.735C42.2575 32.735 41.9056 32.6421 41.5912 32.4675V29.9825C41.5912 29.61 41.567 29.2321 41.5196 28.8548C42.2486 28.8288 42.8936 28.7793 43.3994 28.7291C43.4642 28.7228 43.528 28.7131 43.5909 28.701C44.3035 29.0634 44.7564 29.7939 44.7564 30.6023C44.7562 31.7784 43.7995 32.735 42.6235 32.735ZM37.321 17.9816C40.6786 17.9816 43.4101 20.7133 43.4101 24.0708V26.6464C43.4101 26.7589 43.3259 26.8521 43.2141 26.8631C41.6109 27.0223 38.5312 27.1829 35.9165 26.4711C35.5134 26.3614 35.1325 26.178 34.7925 25.9349C35.4544 24.9266 35.8342 23.7235 35.8342 22.4514V18.8045C35.8342 18.523 35.8061 18.248 35.7541 17.9815H37.321V17.9816ZM24.9335 24.1721C25.3635 23.8836 25.4782 23.3013 25.1897 22.8713C24.9012 22.4413 24.3189 22.3266 23.8889 22.615C22.1601 23.7746 20.1416 24.3876 18.0514 24.3876C12.2652 24.3876 7.55799 19.6803 7.55799 13.8943C7.55799 8.10825 12.2654 3.40088 18.0514 3.40088C23.8374 3.40088 28.5447 8.10825 28.5447 13.8943C28.5447 15.952 27.9489 17.9445 26.8216 19.6564C26.5369 20.0888 26.6566 20.6701 27.089 20.9549C27.5212 21.2396 28.1027 21.12 28.3875 20.6875C29.2531 19.3731 29.851 17.9183 30.1642 16.3939H31.5484C32.8776 16.3939 33.959 17.4753 33.959 18.8045V22.4514C33.959 24.4531 32.6309 26.2128 30.7291 26.7304C27.4269 27.6294 23.4377 27.3429 21.8759 27.1781C21.7665 27.1666 21.6841 27.0736 21.6841 26.9619V25.7195C22.8302 25.3681 23.9237 24.8495 24.9335 24.1721ZM20.3385 30.6023C20.3385 29.9363 20.6475 29.3196 21.1625 28.9193C21.3257 28.9805 21.4984 29.0238 21.6794 29.0429C22.1934 29.0971 22.8262 29.1518 23.54 29.1888C23.5164 29.4546 23.5035 29.7199 23.5035 29.9825V32.4675C23.1891 32.6423 22.8375 32.735 22.4712 32.735C21.2952 32.735 20.3385 31.7784 20.3385 30.6023ZM25.3785 32.9089V29.9825C25.3785 29.7356 25.3934 29.4851 25.42 29.2341C27.2394 29.2264 29.3081 29.0606 31.2219 28.5398C32.0892 28.3036 32.8726 27.8869 33.5377 27.3371C34.0984 27.7708 34.7404 28.0944 35.4241 28.2805C36.7997 28.655 38.2724 28.8138 39.6259 28.8591C39.6852 29.2353 39.7162 29.613 39.7162 29.9828V32.9091C39.7162 36.8621 36.5002 40.078 32.5474 40.078C28.5945 40.078 25.3785 36.8619 25.3785 32.9089ZM32.5474 53.2124L29.6735 47.7388L31.8036 41.9198C32.0491 41.9399 32.2967 41.9529 32.5474 41.9529C32.798 41.9529 33.0455 41.9399 33.2911 41.9198L35.4212 47.7388L32.5474 53.2124ZM28.1731 41.0756H28.6654C29.0731 41.2703 29.4977 41.4344 29.9361 41.5669L28.497 45.498L26.2816 41.2785C26.8922 41.1468 27.5246 41.0756 28.1731 41.0756ZM36.5976 45.498L35.1586 41.5669C35.5975 41.4343 36.0227 41.2699 36.4309 41.075C36.4354 41.075 36.4397 41.0756 36.4442 41.0756H36.9216C37.5706 41.0756 38.2032 41.1463 38.8137 41.2773L36.5976 45.498ZM48.589 38.2716V36.189C48.589 33.5249 50.7564 31.3575 53.4205 31.3575C56.0846 31.3575 58.252 33.5249 58.252 36.189V38.2716C58.252 40.9358 56.0846 43.1031 53.4205 43.1031C50.7564 43.1031 48.589 40.9358 48.589 38.2716Z" fill="black"/>
<path d="M18.2296 53.6133C17.7119 53.6133 17.2921 54.033 17.2921 54.5508V62.5368C17.2921 63.0545 17.7119 63.4743 18.2296 63.4743C18.7474 63.4743 19.1671 63.0545 19.1671 62.5368V54.5508C19.1671 54.033 18.7474 53.6133 18.2296 53.6133Z" fill="black"/>
<path d="M36.0757 56.1553H36.0542C36.0532 56.1553 36.0523 56.1553 36.0515 56.1553C35.535 56.1553 35.1155 56.5733 35.114 57.0901C35.1125 57.6079 35.531 58.0288 36.0488 58.0303H36.0705H36.0731C36.5896 58.0303 37.0091 57.6123 37.0106 57.0954C37.012 56.5776 36.5935 56.1566 36.0757 56.1553Z" fill="black"/>
<path d="M25.873 9.44129L24.179 7.74729C23.8907 7.45904 23.5076 7.30029 23.1001 7.30029C22.6926 7.30029 22.3095 7.45904 22.0213 7.74717L15.8268 13.9415L14.0817 12.1964C13.7936 11.9083 13.4105 11.7495 13.003 11.7495C12.5955 11.7495 12.2123 11.9083 11.9242 12.1964L10.23 13.8905C9.63509 14.4854 9.63509 15.4532 10.23 16.048L14.3322 20.1503C14.7443 20.5624 15.2855 20.7684 15.8268 20.7684C16.3681 20.7684 16.9095 20.5624 17.3216 20.1503L25.8731 11.5988C26.4678 11.004 26.4678 10.0363 25.873 9.44129ZM15.9958 18.8244C15.9026 18.9175 15.7512 18.9175 15.6581 18.8244L11.803 14.9692L13.0031 13.769L15.1641 15.93C15.5301 16.2962 16.1237 16.2962 16.4898 15.93L23.1002 9.31992L24.3003 10.5199L15.9958 18.8244Z" fill="black"/>
</g>
<defs>
<clipPath id="clip0">
<rect width="64" height="64" fill="white" transform="translate(0.547363 0.5)"/>
</clipPath>
</defs>
</svg>
