<svg width="65" height="65" viewBox="0 0 65 65" fill="none" xmlns="http://www.w3.org/2000/svg">
<g clip-path="url(#clip0)">
<path d="M40.9849 5.3125H37.2349L40.9849 10.9375V16.5625H44.7349V9.0625C44.7349 6.99137 43.056 5.3125 40.9849 5.3125Z" fill="#233952"/>
<path d="M37.2349 5.3125H24.1099C22.0387 5.3125 20.3599 6.99137 20.3599 9.0625V16.5625H24.1099V10.9375H40.9849V9.0625C40.9849 6.99137 39.306 5.3125 37.2349 5.3125Z" fill="#3D5168"/>
<path d="M54.2349 40.9375V59.6875H57.9849C60.056 59.6875 61.7349 58.0086 61.7349 55.9375V40.9375H54.2349Z" fill="#233952"/>
<path d="M50.4849 40.9375V59.6875H54.2349C56.306 59.6875 57.9849 58.0086 57.9849 55.9375V40.9375H50.4849Z" fill="#3D5168"/>
<path d="M46.7349 40.9375V59.6875H50.4849C52.556 59.6875 54.2349 58.0086 54.2349 55.9375V40.9375H46.7349Z" fill="#57697D"/>
<path d="M3.35986 40.9375V55.9375C3.35986 58.0086 5.03874 59.6875 7.10986 59.6875H14.6099V40.9375H3.35986Z" fill="#3D5168"/>
<path d="M50.4849 55.9375V40.9375H10.8599V55.9375C10.8599 58.0086 12.5389 59.6875 14.6099 59.6875H46.7349C48.806 59.6875 50.4849 58.0086 50.4849 55.9375Z" fill="#728192"/>
<path d="M59.8599 14.6875H56.1099V44.6875H59.8599C61.931 44.6875 63.6099 43.0086 63.6099 40.9375V18.4375C63.6099 16.3664 61.931 14.6875 59.8599 14.6875Z" fill="#3D5168"/>
<path d="M59.8599 40.9375V18.4375C59.8599 16.3664 58.181 14.6875 56.1099 14.6875H5.23486C3.16386 14.6875 1.48486 16.3664 1.48486 18.4375V40.9375C1.48486 43.0086 3.16386 44.6875 5.23486 44.6875H26.9224L32.5474 42.8125L38.1724 44.6875H56.1099C58.181 44.6875 59.8599 43.0086 59.8599 40.9375Z" fill="#57697D"/>
<path d="M34.4224 31.5625L28.7974 42.8125H38.1724V31.5625H34.4224Z" fill="#233952"/>
<path d="M26.9224 31.5625H34.4224V42.8125H26.9224V31.5625Z" fill="#3D5168"/>
<path d="M32.5474 42.8125V55.9375C35.654 55.9375 38.1724 53.4191 38.1724 50.3125V42.8125H32.5474Z" fill="#FFB739"/>
<path d="M34.4224 50.3125V42.8125H26.9224V50.3125C26.9224 53.4191 29.4407 55.9375 32.5474 55.9375C33.5829 55.9375 34.4224 53.4191 34.4224 50.3125Z" fill="#FFD17E"/>
<path d="M34.4224 40.9375V44.6875H38.1724C39.2079 44.6875 40.0474 43.848 40.0474 42.8125C40.0474 41.777 39.2079 40.9375 38.1724 40.9375H34.4224Z" fill="#FF9441"/>
<path d="M25.0474 42.8125C25.0474 43.848 25.8869 44.6875 26.9224 44.6875H34.4224C35.4579 44.6875 36.2974 43.848 36.2974 42.8125C36.2974 41.777 35.4579 40.9375 34.4224 40.9375H26.9224C25.8869 40.9375 25.0474 41.777 25.0474 42.8125Z" fill="#FFB739"/>
<path d="M32.5474 52.1875C33.5829 52.1875 34.4224 51.348 34.4224 50.3125C34.4224 49.277 33.5829 48.4375 32.5474 48.4375C31.5118 48.4375 30.6724 49.277 30.6724 50.3125C30.6724 51.348 31.5118 52.1875 32.5474 52.1875Z" fill="#FF9441"/>
<path d="M59.8599 13.75H45.6724V9.0625C45.6724 6.47775 43.5696 4.375 40.9849 4.375H24.1099C21.5251 4.375 19.4224 6.47775 19.4224 9.0625V14.6875C19.4224 15.2054 19.8421 15.625 20.3599 15.625H59.8599C61.4106 15.625 62.6724 16.8868 62.6724 18.4375V40.9375C62.6724 42.4883 61.4106 43.75 59.8599 43.75H40.8224C40.9265 43.4564 40.9849 43.1414 40.9849 42.8125C40.9849 41.5904 40.201 40.5483 39.1099 40.1613V31.5625C39.1099 31.0446 38.6902 30.625 38.1724 30.625H26.9224C26.4046 30.625 25.9849 31.0446 25.9849 31.5625V40.1613C24.8937 40.5483 24.1099 41.5904 24.1099 42.8125C24.1099 43.1414 24.1682 43.4564 24.2724 43.75H5.23486C3.68399 43.75 2.42236 42.4883 2.42236 40.9375V18.4375C2.42236 16.8868 3.68399 15.625 5.23486 15.625H16.6099C17.1276 15.625 17.5474 15.2054 17.5474 14.6875C17.5474 14.1696 17.1276 13.75 16.6099 13.75H5.23486C2.65011 13.75 0.547363 15.8527 0.547363 18.4375V40.9375C0.547363 42.4678 1.28461 43.8289 2.42236 44.685V55.9375C2.42236 58.5223 4.52511 60.625 7.10986 60.625H57.9849C60.5696 60.625 62.6724 58.5223 62.6724 55.9375V44.685C63.8101 43.829 64.5474 42.4679 64.5474 40.9375V18.4375C64.5474 15.8527 62.4446 13.75 59.8599 13.75ZM40.0474 13.75H25.0474V11.875H40.0474V13.75ZM43.7974 13.75H41.9224V10.9375C41.9224 10.4196 41.5027 10 40.9849 10H24.1099C23.5921 10 23.1724 10.4196 23.1724 10.9375V13.75H21.2974V9.0625C21.2974 7.51175 22.559 6.25 24.1099 6.25H40.9849C42.5356 6.25 43.7974 7.51175 43.7974 9.0625V13.75ZM37.2349 32.5V40H27.8599V32.5H37.2349ZM25.9849 42.8125C25.9849 42.2955 26.4054 41.875 26.9224 41.875H38.1724C38.6894 41.875 39.1099 42.2955 39.1099 42.8125C39.1099 43.3295 38.6894 43.75 38.1724 43.75H26.9224C26.4054 43.75 25.9849 43.3295 25.9849 42.8125ZM27.8599 45.625H37.2349V50.3125C37.2349 52.8973 35.1321 55 32.5474 55C29.9626 55 27.8599 52.8973 27.8599 50.3125V45.625ZM4.29736 55.9375V45.5306C4.60036 45.5924 4.91386 45.625 5.23486 45.625H9.92236V55.9375C9.92236 56.992 10.2725 57.966 10.8624 58.75H7.10986C5.55899 58.75 4.29736 57.4883 4.29736 55.9375ZM14.6099 58.75C13.059 58.75 11.7974 57.4883 11.7974 55.9375V45.625H25.9849V50.3125C25.9849 53.931 28.9287 56.875 32.5474 56.875C36.1659 56.875 39.1099 53.931 39.1099 50.3125V45.625H53.2974V55.9375C53.2974 57.4883 52.0356 58.75 50.4849 58.75H14.6099ZM60.7974 55.9375C60.7974 57.4883 59.5356 58.75 57.9849 58.75H54.2324C54.8222 57.966 55.1724 56.992 55.1724 55.9375V45.625H59.8599C60.1809 45.625 60.4944 45.5924 60.7974 45.5306V55.9375Z" fill="black"/>
<path d="M32.5474 53.125C34.0981 53.125 35.3599 51.8632 35.3599 50.3125C35.3599 48.7617 34.0981 47.5 32.5474 47.5C30.9965 47.5 29.7349 48.7617 29.7349 50.3125C29.7349 51.8632 30.9965 53.125 32.5474 53.125ZM32.5474 49.375C33.0644 49.375 33.4849 49.7955 33.4849 50.3125C33.4849 50.8295 33.0644 51.25 32.5474 51.25C32.0304 51.25 31.6099 50.8295 31.6099 50.3125C31.6099 49.7955 32.0304 49.375 32.5474 49.375Z" fill="black"/>
</g>
<defs>
<clipPath id="clip0">
<rect width="64" height="64" fill="white" transform="translate(0.547363 0.5)"/>
</clipPath>
</defs>
</svg>
