<svg width="115" height="115" viewBox="0 0 115 115" fill="none" xmlns="http://www.w3.org/2000/svg">
<g clip-path="url(#clip0)">
<path d="M114.507 64.1871C114.506 64.1865 114.506 64.1863 114.506 64.1857L92.9825 10.1416C92.5257 8.99332 91.2242 8.43274 90.0759 8.88954C90.075 8.88982 90.0742 8.8901 90.0733 8.89066L2.75466 43.6601C2.39856 43.814 2.08974 44.0596 1.85952 44.3718C1.13334 44.7491 0.674581 45.496 0.666748 46.3142V104.498C0.666748 105.734 1.66875 106.736 2.9046 106.736H96.8943C98.1302 106.736 99.1322 105.734 99.1322 104.498V72.7209L113.257 67.0949C114.405 66.637 114.965 65.3351 114.507 64.1871ZM94.6565 102.26H5.14245V48.5521H94.6565V102.26ZM38.0053 44.0876L75.4758 29.1566C78.82 32.6717 83.4538 34.6696 88.3054 34.6886L92.0426 44.0876H38.0053ZM99.1322 67.914V46.3142C99.1322 45.0784 98.1302 44.0764 96.8943 44.0764H96.8585L92.1165 32.1665C92.0639 32.0672 92.0026 31.9727 91.933 31.8846C91.693 30.8068 90.6949 30.0714 89.5944 30.1614C85.0801 30.5729 80.664 28.6713 77.8614 25.1084C77.164 24.2476 75.9382 24.0336 74.9902 24.6071C74.8839 24.6197 74.7785 24.6392 74.6747 24.6653L28.9286 42.8814C28.375 43.0984 27.9322 43.5289 27.7 44.0764H13.8074L89.6526 13.8766L109.522 63.7695L99.1322 67.914Z" fill="#FF4057"/>
<path d="M11.216 87.1528C15.5608 88.437 18.9606 91.8327 20.2502 96.1758C20.533 97.1238 21.4049 97.7734 22.394 97.7736C22.5101 97.7664 22.6254 97.749 22.7387 97.7222C22.8391 97.7507 22.9418 97.7717 23.0453 97.7848H76.7537C76.846 97.7728 76.9372 97.7541 77.0267 97.7289C78.1448 98.0008 79.2715 97.3152 79.5437 96.1971C79.5445 96.1929 79.5457 96.189 79.5465 96.1848C80.8327 91.8372 84.2331 88.4368 88.5807 87.1506C89.635 86.8283 90.2901 85.7776 90.1159 84.6889C90.1458 84.5804 90.1673 84.4696 90.1808 84.3577V66.4549C90.1676 66.3428 90.1452 66.232 90.1136 66.1237C90.289 65.0347 89.6336 63.9835 88.5785 63.6621C84.2309 62.3762 80.8313 58.9744 79.5487 54.6257C79.2248 53.5641 78.1638 52.9073 77.0692 53.0905C76.9657 53.0617 76.8602 53.0407 76.7537 53.0278H23.0453C22.9325 53.0413 22.8209 53.0636 22.7118 53.095C21.6234 52.9215 20.5733 53.5764 20.2502 54.6301C18.9631 58.9769 15.563 62.3762 11.216 63.6621C10.1617 63.9843 9.50655 65.035 9.68082 66.1237C9.65173 66.2325 9.63075 66.343 9.61816 66.4549V84.3577C9.63103 84.4629 9.65201 84.567 9.68082 84.6688C9.49732 85.7645 10.1538 86.8269 11.216 87.1528ZM14.0939 67.3635C18.5875 65.5587 22.149 61.9971 23.9538 57.5035H75.8429C77.6485 61.9971 81.2109 65.5587 85.7051 67.3635V83.4492C81.2129 85.2559 77.6519 88.8169 75.8451 93.3091H23.9538C22.147 88.8169 18.5861 85.2559 14.0939 83.4492V67.3635Z" fill="#FF4057"/>
<path d="M49.8995 88.8337C57.3151 88.8337 63.3265 82.8223 63.3265 75.4066C63.3265 67.9909 57.3151 61.9795 49.8995 61.9795C42.4838 61.9795 36.4724 67.9909 36.4724 75.4066C36.4796 82.8192 42.4869 88.8264 49.8995 88.8337ZM49.8995 66.4552C54.8431 66.4552 58.8509 70.4629 58.8509 75.4066C58.8509 80.3503 54.8431 84.358 49.8995 84.358C44.9558 84.358 40.9481 80.3503 40.9481 75.4066C40.9481 70.4629 44.9558 66.4552 49.8995 66.4552Z" fill="#FF4057"/>
<path d="M25.2831 78.7634C27.1369 78.7634 28.6399 77.2604 28.6399 75.4066C28.6399 73.5528 27.1369 72.0498 25.2831 72.0498C23.4293 72.0498 21.9263 73.5528 21.9263 75.4066C21.9263 77.2606 23.4293 78.7634 25.2831 78.7634ZM25.2831 74.2877C25.901 74.2877 26.402 74.7887 26.402 75.4066C26.402 76.0245 25.901 76.5255 25.2831 76.5255C24.6652 76.5255 24.1642 76.0245 24.1642 75.4066C24.1642 74.7887 24.6652 74.2877 25.2831 74.2877Z" fill="#FF4057"/>
<path d="M74.5158 78.7634C76.3696 78.7634 77.8726 77.2604 77.8726 75.4066C77.8726 73.5528 76.3696 72.0498 74.5158 72.0498C72.662 72.0498 71.159 73.5528 71.159 75.4066C71.159 77.2606 72.662 78.7634 74.5158 78.7634ZM74.5158 74.2877C75.1337 74.2877 75.6347 74.7887 75.6347 75.4066C75.6347 76.0245 75.1337 76.5255 74.5158 76.5255C73.8979 76.5255 73.3969 76.0245 73.3969 75.4066C73.3969 74.7887 73.8979 74.2877 74.5158 74.2877Z" fill="#FF4057"/>
</g>
<defs>
<clipPath id="clip0">
<rect width="114" height="114" fill="white" transform="translate(0.666748 0.733398)"/>
</clipPath>
</defs>
</svg>
