<svg width="112" height="112" viewBox="0 0 112 112" fill="none" xmlns="http://www.w3.org/2000/svg">
<path d="M31.8526 68.0603C31.8515 68.0583 31.8402 68.0388 31.8389 68.0366C31.2021 66.9479 29.8091 66.5898 28.7197 67.2248C27.6301 67.8599 27.2661 69.2662 27.8996 70.3565C27.9007 70.3585 27.9121 70.3779 27.9134 70.3801C28.3371 71.1046 29.0957 71.5056 29.8771 71.5056C30.2698 71.5056 30.6681 71.4045 31.0325 71.1919C32.1221 70.5569 32.4859 69.1507 31.8526 68.0603Z" fill="#FF4057"/>
<path d="M71.6682 53.3549C71.5367 52.0992 70.4128 51.1883 69.1571 51.3196C66.8268 51.5635 64.5461 50.7561 62.895 49.105C61.2439 47.4538 60.4367 45.1712 60.6804 42.8426C60.8118 41.5872 59.9007 40.4628 58.6451 40.3316C57.3897 40.1994 56.2656 41.1116 56.1341 42.3668C55.7462 46.0729 57.0323 49.707 59.663 52.3377C61.9852 54.6599 65.0893 55.9341 68.3346 55.9341C68.7656 55.9341 69.1991 55.9116 69.6329 55.8661C70.8883 55.7348 71.7994 54.6103 71.6682 53.3549Z" fill="#FF4057"/>
<path d="M71.1653 36.9088C71.0341 35.6536 69.9136 34.7397 68.6543 34.8735C67.9641 34.9457 67.2856 34.7064 66.7953 34.2162C66.3053 33.7264 66.066 33.049 66.1382 32.3575C66.2697 31.1019 65.3584 29.9777 64.103 29.8464C62.8449 29.7159 61.7232 30.6263 61.5919 31.8817C61.3754 33.9506 62.094 35.98 63.5629 37.4489C64.8601 38.7463 66.5932 39.4583 68.4058 39.4581C68.646 39.4581 68.8881 39.4456 69.1301 39.4203C70.3855 39.2886 71.2968 38.1644 71.1653 36.9088Z" fill="#FF4057"/>
<path d="M82.1538 47.8968C82.0225 46.6416 80.8988 45.7296 79.6427 45.8615C78.9508 45.9337 78.2738 45.6944 77.7836 45.204C77.2938 44.7144 77.0545 44.0369 77.1267 43.3455C77.2584 42.0898 76.3468 40.9657 75.0914 40.8344C73.8323 40.7027 72.7116 41.6143 72.5804 42.8697C72.3638 44.9386 73.0824 46.968 74.5511 48.4364C75.8483 49.7338 77.5819 50.4459 79.3942 50.4459C79.6344 50.4459 79.8764 50.4334 80.1185 50.408C81.3739 50.2768 82.2852 49.1524 82.1538 47.8968Z" fill="#FF4057"/>
<path d="M92.6673 19.3323C92.6588 19.3236 92.65 19.3155 92.6413 19.3069L92.6415 19.3067C92.6327 19.298 92.6238 19.2903 92.6152 19.2818C87.0666 13.7599 79.7035 10.7192 71.8729 10.7192C64.0178 10.7192 56.6326 13.7782 51.0781 19.3325C39.6123 30.7985 39.6123 49.4553 51.0781 60.9215C54.2119 64.0553 57.9287 66.3942 61.9837 67.8382C53.6517 67.2066 45.9044 63.6596 39.9341 57.689C39.0416 56.7972 37.5946 56.7967 36.7014 57.689C35.8089 58.5815 35.8089 60.029 36.7014 60.9217C44.1757 68.3962 54.1137 72.5126 64.6844 72.5124C75.1874 72.5122 85.0649 68.4465 92.5229 61.0624C92.5706 61.0151 92.6196 60.9692 92.6671 60.9215L92.6675 60.9211C104.133 49.4551 104.133 30.7983 92.6673 19.3323ZM89.4346 57.689C89.2878 57.8358 89.1389 57.9791 88.9903 58.1228C84.3535 62.5394 78.2994 64.9636 71.8729 64.9636C65.2389 64.9636 59.0019 62.3803 54.3108 57.6892C44.6272 48.0052 44.6272 32.2486 54.3108 22.5652C59.0017 17.8743 65.2387 15.2909 71.8729 15.2909C74.4824 15.2909 77.0295 15.6923 79.4463 16.4625C77.8142 17.0783 76.3164 18.0369 75.0461 19.3071C73.0798 21.2733 71.997 23.888 71.9972 26.6687C71.9972 29.4495 73.0802 32.064 75.0465 34.0299C76.6786 35.6624 78.7292 36.6595 80.8215 36.838C81.0504 36.8577 81.2776 36.8673 81.5032 36.8673C83.5294 36.8673 85.4159 36.0857 86.8737 34.628C89.8924 31.609 89.985 27.8003 87.1097 24.9251C86.217 24.0328 84.77 24.0328 83.877 24.9251C82.9845 25.8176 82.9845 27.2651 83.877 28.1578C84.3644 28.6449 85.3779 29.6586 83.6412 31.3957C82.9714 32.0653 82.1529 32.3646 81.21 32.2832C80.1907 32.1963 79.1494 31.6687 78.2788 30.7976C76.002 28.5209 76.0018 24.8164 78.2784 22.5398C81.3393 19.4789 86.3141 19.4716 89.3847 22.5164C89.4011 22.5328 89.4182 22.5486 89.4348 22.5652C99.1182 32.2488 99.1182 48.0052 89.4346 57.689Z" fill="#FF4057"/>
<path d="M19.2992 80.6769L19.2531 80.5969C18.6067 79.5129 17.2003 79.1531 16.1166 79.7995C15.0323 80.4459 14.6748 81.8444 15.3212 82.9285C15.7419 83.6716 16.5158 84.0887 17.3123 84.0887C17.6938 84.0887 18.0808 83.9929 18.4362 83.7919C19.5346 83.1702 19.9211 81.7755 19.2992 80.6769Z" fill="#FF4057"/>
<path d="M100.518 11.4826C93.1131 4.07794 83.2681 0 72.7963 0C62.3243 0 52.4788 4.07816 45.0737 11.4831L11.4837 45.073C-3.8023 60.3592 -3.80252 85.2311 11.4833 100.517C18.8882 107.922 28.7333 112 39.2053 112C49.6775 112 59.5228 107.922 66.9279 100.517L100.518 66.927C115.804 51.641 115.804 26.7687 100.518 11.4826ZM97.2849 63.6943L63.695 97.2842C57.1535 103.826 48.4562 107.429 39.2053 107.429C29.9543 107.429 21.2573 103.826 14.716 97.2849C2.37236 84.9413 1.3147 65.5231 11.5375 51.9636C11.3173 52.7225 11.1145 53.4877 10.9395 54.2616C9.33976 61.3386 9.70617 68.7111 11.9993 75.5821C12.3187 76.5393 13.2105 77.1448 14.1671 77.1448C14.4069 77.1448 14.651 77.1068 14.891 77.0265C16.0882 76.627 16.735 75.3323 16.3354 74.1348C12.1798 61.6833 15.234 48.2079 24.292 38.7844C23.998 39.7392 23.737 40.7059 23.5154 41.6854C21.9157 48.7624 22.2821 56.135 24.5753 63.0061C24.8946 63.9636 25.7863 64.5689 26.7431 64.5689C26.9828 64.5689 27.2267 64.5308 27.4669 64.4505C28.6641 64.0511 29.311 62.7563 28.9113 61.5589C24.6805 48.8817 27.9182 35.1402 37.3614 25.6974C37.3516 25.6942 37.3435 25.6907 37.3341 25.6874L48.3059 14.7155C54.8479 8.17425 63.5451 4.57144 72.7965 4.57144C82.0475 4.57144 90.7443 8.17403 97.2858 14.7153C110.789 28.2188 110.789 50.1909 97.2849 63.6943Z" fill="#FF4057"/>
</svg>
