<svg width="112" height="112" viewBox="0 0 112 112" fill="none" xmlns="http://www.w3.org/2000/svg">
<path d="M102.934 58.7129C102.596 56.9553 101.059 55.6843 99.2693 55.6833H95.6648L95.3997 54.0947C95.1353 52.4992 93.8782 51.2527 92.2805 51.0017C91.9259 50.9457 91.5675 50.9083 91.2147 50.8598C91.826 48.006 91.3181 45.0265 89.796 42.5363C90.6002 40.4503 90.4501 38.1166 89.3853 36.1508C88.3205 34.185 86.4479 32.7843 84.2613 32.3182C82.8634 24.8366 76.3547 19.3982 68.7437 19.3523C68.5571 19.3523 68.3909 19.3766 68.2136 19.3822C66.9975 17.4723 64.9925 16.2048 62.7456 15.9253C60.4987 15.6458 58.2443 16.3836 56.5973 17.9374C54.5226 16.5888 52.1017 15.8698 49.6272 15.8673C45.6401 15.8836 41.8824 17.7342 39.4389 20.8849C36.7258 20.0937 33.8001 20.5795 31.4882 22.205C29.1763 23.8305 27.7293 26.4193 27.5557 29.2401C24.706 30.438 22.8517 33.2272 22.8499 36.3185C22.8557 36.8543 22.9183 37.3881 23.0365 37.9107C20.5163 41.71 19.8578 46.4482 21.2464 50.7907C20.7461 50.8598 20.2347 50.9214 19.7531 50.9923C18.1471 51.2347 16.8788 52.4818 16.6096 54.0835L16.3445 55.6777H12.7307C10.944 55.6789 9.40863 56.9458 9.06827 58.6998L0.894134 100.666C0.574907 102.31 1.0078 104.01 2.07414 105.301C3.14049 106.591 4.72842 107.337 6.40267 107.334H45.3301C46.8757 109.884 51.5723 111.067 56 111.067C60.3811 111.067 65.0328 109.912 66.6232 107.334H105.597C107.271 107.337 108.859 106.592 109.925 105.301C110.991 104.011 111.424 102.311 111.106 100.668L102.934 58.7129ZM28.4947 39.6971C26.9791 38.7859 26.2557 36.9768 26.7252 35.2718C27.1947 33.5668 28.7422 32.383 30.5107 32.3761C31.7483 32.3724 32.9132 32.9607 33.6448 33.959C34.0423 34.4945 34.6952 34.7773 35.3578 34.7009C36.0203 34.6244 36.5917 34.2003 36.8567 33.5883C37.1217 32.9763 37.0401 32.2695 36.6427 31.7339C35.3751 30.0398 33.4543 28.9561 31.3488 28.7473C31.9053 26.133 34.2107 24.2616 36.8835 24.2542C37.1112 24.2658 37.3381 24.2907 37.5629 24.3289C37.4128 24.7116 37.2819 25.1016 37.1709 25.4974C36.9386 26.4855 37.5385 27.4782 38.5213 27.732C39.5041 27.9858 40.5096 27.4078 40.7848 26.4307C40.9971 25.6103 41.3232 24.8237 41.7536 24.0937C43.4094 21.3197 46.3967 19.615 49.6272 19.6006C51.3854 19.6084 53.1034 20.1272 54.572 21.0939C54.2922 21.88 54.144 22.7068 54.1333 23.5411C54.1333 24.5721 54.9691 25.4078 56 25.4078C57.0309 25.4078 57.8667 24.5721 57.8667 23.5411C57.8667 21.3726 59.6246 19.6146 61.7932 19.6146C63.9618 19.6146 65.7197 21.3726 65.7197 23.5411C65.7197 24.5721 66.5555 25.4078 67.5864 25.4078C68.6173 25.4078 69.4531 24.5721 69.4531 23.5411C69.4531 23.3974 69.4176 23.2611 69.4101 23.1174C74.755 23.4472 79.2496 27.2465 80.4645 32.4619C79.5938 32.7154 78.7757 33.1233 78.0491 33.6659C77.5156 34.0661 77.236 34.7204 77.3158 35.3826C77.3956 36.0447 77.8225 36.6139 78.4358 36.8759C79.0491 37.1379 79.7556 37.0527 80.2891 36.6526C81.7807 35.5482 83.8413 35.6363 85.2333 36.8639C86.6253 38.0916 86.9702 40.125 86.0608 41.743C85.6545 42.4575 85.037 43.0287 84.2931 43.3782C83.513 43.7559 83.0955 44.6209 83.2851 45.4667C83.4747 46.3124 84.2216 46.9164 85.0883 46.9249C85.362 46.9253 85.6324 46.8647 85.8797 46.7475C86.3745 46.5078 86.8419 46.2155 87.2741 45.8758C88.2391 48.619 87.6339 51.67 85.6949 53.8371L85.6501 53.8838C83.2183 56.5182 79.339 57.2302 76.1301 55.631C75.8158 55.465 75.5139 55.2766 75.2267 55.0673C76.6016 53.1397 76.7915 50.6077 75.7195 48.4966C75.4194 47.9007 74.8242 47.5102 74.1581 47.4722C73.492 47.4342 72.8562 47.7544 72.4902 48.3122C72.1242 48.87 72.0836 49.5807 72.3837 50.1766C72.9975 51.4104 72.6147 52.9076 71.484 53.6953C70.82 54.1373 69.9997 54.2772 69.2268 54.08C68.4538 53.8829 67.8007 53.3672 67.4296 52.6611C67.1312 52.0646 66.5372 51.6726 65.8713 51.6328C65.2055 51.593 64.569 51.9114 64.2016 52.4681C63.8342 53.0248 63.7917 53.7353 64.0901 54.3318C65.1849 56.5417 67.4405 57.9374 69.9067 57.9307C70.7096 57.9253 71.5043 57.7689 72.2493 57.4697C72.9161 58.0534 73.6506 58.5548 74.4371 58.963C77.0975 60.342 80.1911 60.628 83.0592 59.7601C81.2145 62.2789 78.4537 63.9717 75.3723 64.4734C74.4136 64.6295 73.7348 65.4946 73.8113 66.4629C73.8878 67.4311 74.6941 68.1789 75.6653 68.1825C75.7647 68.1824 75.8639 68.175 75.9621 68.1601C77.0988 67.9633 78.2096 67.6389 79.2736 67.1931C79.8486 68.2098 80.3154 69.2841 80.6661 70.3982C80.7304 70.5927 80.7631 70.7963 80.7632 71.0011C80.7627 71.8079 80.2809 72.5366 79.5387 72.8529C78.68 73.185 77.7052 72.923 77.1288 72.2051C75.6832 70.5075 73.7902 69.2496 71.6651 68.5745C67.6312 67.223 66.0744 66.0153 65.4136 64.7011C66.3821 64.5803 67.3392 64.3805 68.2752 64.1038C68.9128 63.9077 69.3973 63.3864 69.5463 62.7363C69.6952 62.0861 69.486 61.4058 68.9975 60.9517C68.5089 60.4976 67.8152 60.3387 67.1776 60.5347C66.1302 60.8561 65.049 61.0547 63.9557 61.1265C61.8495 61.2911 59.7335 60.9719 57.7696 60.1931C57.0322 59.9056 56.1936 60.1143 55.6771 60.7139C52.9593 63.8359 48.3077 64.3665 44.9567 61.9369C41.6056 59.5073 40.6637 54.9213 42.7859 51.3675C43.1297 50.7937 43.1412 50.08 42.8161 49.4953C42.491 48.9107 41.8787 48.5439 41.2098 48.5331C40.5409 48.5223 39.9171 48.8691 39.5733 49.443C39.128 50.201 38.7698 51.0069 38.5056 51.8454C37.0356 51.7681 35.8766 50.5658 35.8531 49.0939V49.0473C35.8521 48.5547 35.6544 48.083 35.3038 47.737C34.9532 47.391 34.4789 47.1994 33.9864 47.2049C32.951 47.2151 32.1176 48.0585 32.1197 49.0939C32.1281 52.4044 34.6245 55.1791 37.9157 55.5358C37.9224 56.1616 37.9792 56.7858 38.0856 57.4025C33.9177 58.3043 29.5948 56.8062 26.8789 53.5186C24.1629 50.2311 23.5074 45.7032 25.1795 41.7803C25.5971 42.2029 26.0633 42.5744 26.5683 42.8873C27.4501 43.4038 28.5833 43.1153 29.1107 42.2399C29.6381 41.3645 29.3635 40.2278 28.4947 39.6897V39.6971ZM20.2813 54.6921C21.1419 54.5651 22.0304 54.4531 22.9133 54.3374C26.3647 59.8527 32.9656 62.5307 39.284 60.979C40.9817 64.2012 44.084 66.4483 47.6748 67.0569C51.2657 67.6655 54.9351 66.5661 57.5997 64.0833C58.8683 64.4617 60.1748 64.6983 61.4955 64.7889C62.3971 68.2086 65.0029 70.2806 70.4779 72.1155C71.9538 72.5783 73.2705 73.4455 74.2784 74.6187C75.399 75.9512 77.0473 76.7256 78.7883 76.7374C79.5497 76.7372 80.3033 76.5835 81.004 76.2857C83.12 75.3814 84.4926 73.3022 84.4928 71.0011C84.4945 70.401 84.3987 69.8046 84.2091 69.2353C83.7893 67.9164 83.2364 66.6436 82.5589 65.4366C85.7332 63.1548 87.9444 59.7731 88.7619 55.9502C89.1594 55.4779 89.519 54.9748 89.8371 54.4457C90.4624 54.5259 91.0877 54.5969 91.7168 54.7014L98.4555 95.2342C85.2833 90.8358 71.0388 90.8358 57.8667 95.2342V71.8673C57.8667 70.8363 57.0309 70.0006 56 70.0006C54.9691 70.0006 54.1333 70.8363 54.1333 71.8673V95.2417C40.9627 90.8392 26.7184 90.834 13.5445 95.2268L20.2813 54.6921ZM4.94853 102.914C4.59582 102.488 4.45203 101.926 4.55653 101.383L12.7307 59.4166H15.7173L9.85973 94.6201C9.65371 95.9014 10.1255 97.1982 11.1068 98.0475C12.0881 98.8969 13.439 99.1778 14.6776 98.7902C24.6288 95.5662 35.2304 94.8935 45.5093 96.834L44.9531 103.601H6.40267C5.83953 103.601 5.30588 103.349 4.94853 102.914ZM56 107.334C51.5032 107.334 48.9235 106.005 48.5445 105.413L49.1867 97.6665C51.2392 98.1775 53.2479 98.851 55.1936 99.6806C55.4452 99.8019 55.7207 99.8656 56 99.8673C56.2801 99.8669 56.5564 99.803 56.8083 99.6806C58.7528 98.8462 60.7609 98.1683 62.8133 97.6534L63.4555 105.411C63.0765 106.005 60.4968 107.334 56 107.334ZM107.051 102.914C106.694 103.349 106.16 103.601 105.597 103.601H67.0525L66.4925 96.8209C76.7771 94.8845 87.3833 95.5629 97.3373 98.794C98.5756 99.1765 99.9237 98.8915 100.901 98.0405C101.879 97.1896 102.347 95.8937 102.138 94.6145L96.2864 59.4185H99.2731L107.449 101.381C107.553 101.926 107.407 102.488 107.051 102.914Z" fill="#FF4057"/>
<path d="M49.8139 43.2788C49.0497 43.9702 48.9904 45.15 49.6813 45.9145C51.2648 47.6628 53.3576 48.8695 55.664 49.3641C54.6195 50.8361 52.9255 51.7095 51.1205 51.7068C50.0896 51.7068 49.2539 52.5425 49.2539 53.5734C49.2539 54.6044 50.0896 55.4401 51.1205 55.4401C54.9848 55.4555 58.4521 53.0688 59.8173 49.4537C64.4589 48.6845 68.1336 45.1118 69.0331 40.4937C69.1721 39.8332 68.9436 39.1491 68.4356 38.7046C67.9276 38.2601 67.2192 38.1245 66.583 38.3499C65.9467 38.5753 65.4818 39.1267 65.3669 39.7918C65.0009 41.7171 63.8901 43.4202 62.2757 44.5313C59.1701 46.623 55.0049 46.1482 52.4496 43.4113C51.7582 42.6472 50.5784 42.5879 49.8139 43.2788Z" fill="#FF4057"/>
<path d="M43.3067 41.2536C44.3376 41.2536 45.1733 40.4179 45.1733 39.387C45.1733 38.0998 45.6847 36.8653 46.5948 35.9551C47.505 35.045 48.7395 34.5336 50.0267 34.5336C51.0576 34.5336 51.8933 33.6979 51.8933 32.667C51.8933 31.636 51.0576 30.8003 50.0267 30.8003C45.2865 30.8054 41.4451 34.6468 41.44 39.387C41.44 39.882 41.6367 40.3568 41.9867 40.7069C42.3368 41.057 42.8116 41.2536 43.3067 41.2536Z" fill="#FF4057"/>
<path d="M57.8667 4.66693V2.80026C57.8667 1.76933 57.0309 0.933594 56 0.933594C54.9691 0.933594 54.1333 1.76933 54.1333 2.80026V4.66693C54.1333 5.69786 54.9691 6.53359 56 6.53359C57.0309 6.53359 57.8667 5.69786 57.8667 4.66693Z" fill="#FF4057"/>
<path d="M86.632 14.3287L84.7653 16.1954C84.2801 16.664 84.0855 17.3581 84.2563 18.0107C84.4271 18.6634 84.9368 19.173 85.5895 19.3439C86.2421 19.5147 86.9361 19.3201 87.4048 18.8348L89.2715 16.9682C89.7567 16.4995 89.9513 15.8055 89.7805 15.1528C89.6097 14.5002 89.1 13.9905 88.4474 13.8197C87.7947 13.6488 87.1007 13.8435 86.632 14.3287Z" fill="#FF4057"/>
<path d="M25.9149 19.3818C26.6698 19.3816 27.3503 18.9268 27.6391 18.2294C27.928 17.532 27.7684 16.7292 27.2347 16.1954L25.368 14.3287C24.8993 13.8435 24.2053 13.6488 23.5527 13.8197C22.9 13.9905 22.3903 14.5002 22.2195 15.1528C22.0487 15.8055 22.2433 16.4995 22.7285 16.9682L24.5952 18.8348C24.9452 19.1849 25.4199 19.3817 25.9149 19.3818Z" fill="#FF4057"/>
<path d="M40.2845 11.5267C40.5298 11.5262 40.7726 11.478 40.9995 11.3849C41.457 11.1953 41.8205 10.8318 42.0099 10.3742C42.1993 9.91665 42.1991 9.40256 42.0093 8.94513L39.8645 3.77073C39.6189 3.1405 39.0514 2.6925 38.3814 2.59971C37.7114 2.50693 37.0436 2.78388 36.6359 3.32363C36.2282 3.86339 36.1444 4.58147 36.4168 5.2006L38.5597 10.375C38.8489 11.0724 39.5296 11.5269 40.2845 11.5267Z" fill="#FF4057"/>
<path d="M74.5733 2.7614C73.6213 2.36754 72.5301 2.81953 72.1355 3.77127L69.9907 8.94567C69.8003 9.40332 69.7999 9.91787 69.9893 10.3759C70.1787 10.8339 70.5425 11.1978 71.0005 11.3873C71.2274 11.4804 71.4702 11.5286 71.7155 11.5291C72.4704 11.5293 73.1511 11.0748 73.4403 10.3774L75.5832 5.203C75.7735 4.74535 75.774 4.2308 75.5846 3.77279C75.3951 3.31478 75.0313 2.95091 74.5733 2.7614Z" fill="#FF4057"/>
<path d="M93.94 33.7532C94.1855 33.7528 94.4284 33.7039 94.6549 33.6095L99.8275 31.4666C100.444 31.2115 100.877 30.647 100.964 29.9858C101.051 29.3246 100.779 28.6671 100.25 28.261C99.7212 27.8549 99.0157 27.7619 98.3995 28.017L93.2251 30.1599C92.3994 30.4991 91.9294 31.3753 92.1035 32.2508C92.2777 33.1263 93.0474 33.7559 93.94 33.7532Z" fill="#FF4057"/>
<path d="M17.3451 33.6095C18.2976 34.0043 19.39 33.5522 19.7848 32.5996C20.1796 31.647 19.7275 30.5547 18.7749 30.1599L13.6005 28.0169C12.648 27.6226 11.5561 28.0752 11.1617 29.0277C10.7674 29.9803 11.22 31.0722 12.1725 31.4665L17.3451 33.6095Z" fill="#FF4057"/>
</svg>
